<?xml version="1.0" encoding="UTF-8"?><svg id="Capa_2" xmlns="http://www.w3.org/2000/svg" viewBox="0 0 114.36 123.02"><g id="Capa_1-2"><path d="m79.35,52.28c2.19,1.13,3.68,3.08,5.43,4.72.74.7,1.52,1.34,2.33,1.95,2.51,1.88,4.96,3.8,7.19,6.01,1.56,1.55,3.4,2.78,5.3,3.9,1.27.75,2.46,1.63,3.28,2.91.04.45.29.76.63,1.03.36.29.73.62.92,1.03,1.03,2.21,3.1,3.05,5.11,3.99.95.45,1.87.97,2.48,1.87.58,1.01-.14,1.95-.56,2.57-.99,1.48-1.71,3.23-3.24,4.27-.87.59-1.54,1.3-2.05,2.18-.49,1.15-1.36,2.08-1.88,3.22-.21.47-.36.92-.32,1.44-.88,1.77-1.87,3.47-3.15,4.99-.28.1-.58.1-.84.26-.79.51-1.45.24-2.03-.37-.58-.62-.71-1.36-.32-2.11.75-1.45,1.4-2.95,2.08-4.08-1.17,1.49-2.43,3.3-3.2,5.4-.15.41-.33.74-.08,1.18.56,1-.03,1.67-.82,2.06-1.05.51-1.8,1.27-2.28,2.27-.4.82-1.24,1.12-1.81,1.73-1.15,1.22-1.58,2.75-2.09,4.25-.55,1.6-1.63,2.82-2.74,4.02-.06.06-.17.1-.19.16-.37,1.59-1.72,2.46-2.67,3.62-.27.33.05.43.2.6.15.12.27.26.39.41.22.37.58.57.9.84.49.41.75.9.16,1.45-.77.14-1.15-.34-1.46-.93-.36-.86-1.2-1.24-1.83-1.83-.11-.08-.22-.17-.32-.27-.75-.61-1.41-1.35-2.3-1.77-.31-.16-.6-.36-.87-.58-2.06-1.46-3.87-3.24-5.95-4.67-1.3-1.22-2.74-2.27-4.1-3.42-3.79-3.19-7.38-6.61-11.37-9.54-2.26-1.66-4.47-3.35-6.39-5.39-.17-.19-.4-.31-.63-.42-3.83-1.68-6.74-4.59-9.8-7.3-.36-2.06-1.99-3.08-3.53-4.07-2.91-1.87-5.28-4.29-7.52-6.86-1.83-2.66-4.46-4.38-7.15-6-.79-.48-1.63-.86-2.27-1.55-.1-.1-.2-.21-.28-.32-.29-.53-.79-.87-1.22-1.27-.46-.43-.75-.91-.51-1.57.36-.4.75-.78.97-1.3.21-.51.64-.77,1.22-.66.14.01.27.18.39.09.05-.03-.13-.16-.2-.25-.52-.67-1-.51-1.4.09-.36.53-.72,1.04-1.41,1.16-.47-.06-.73-.39-.95-.76-.86-1.44-2.22-2.2-3.79-2.51-1.87-.37-2.94-1.71-4.06-3.02-.38-.44-.55-.89.47-1,1.18-.12,2.17-.98,3.38-1.34-.41-.28-.8-.1-1.16-.21-.46-.14-.75-.4-.72-.9.03-.52.38-.72.86-.73.74-.02,1.49-.02,2.23-.26-.31-.54-1.31.1-1.21-.86.06-.59,1.09-1.17,1.78-1.01.24.05.47.19.79.11-.19-.19-.41-.04-.59-.11-.34-.13-.42-.39-.39-.71.02-.26.12-.49.34-.65,1.12-.08,1.93-.55,2.28-1.68.09-.27.32-.48.64-.52,1.47.59,1.83,2.02,2.38,3.26.26.58-.19.78-.79.7-1.01-.15-1.69.38-1.58,1.34.27,2.27,1.01,4.38,2.79,5.95.78.69.95.61,1.24-.38.2-.67.58-1.26,1.33-1.05.7.2,1.02-.08,1.37-.55.37-.49.82-.83,1.51-.76.73.08.98-.16.72-.96-.49-1.55.06-2.96,1.41-3.9.23-.16.34-.35.44-.59.52-1.17.99-1.43,2.26-1.13.53.12.95.3,1.2-.42.26-.74.93-.59,1.52-.51.86.11,1.61.24,1.96-.96.21-.72,1.07-.91,1.84-.73.74.18,1.42.47,2.04.97.82.66,1.71,1.26,3.02.64-.68-.57-1.32-1.05-1.63-1.8-.27-.66-.22-1.17.59-1.35.08-.02.17-.03.25-.06,2.05-.77,2.49-.44,2.37,1.8-.01.27-.02.51.24.66.3.17.61.13.81-.11.69-.82,1.25-1,1.71.19.16.41.46.47.75.07.3-.41.56-.83.69-1.34.36-1.53.6-1.6,1.73-.52.73-.79,1.21-1.84,2.29-2.29.36-.15.45-.58.49-.98.15-1.56.26-1.67,1.74-1.92.16-.03.34-.01.63-.16-1.06-1.05-2.06-2.09-3.23-2.94-.34-.25-.73-.44-1.05-.71-.68-.58-1.33-1.17-1.97.09-.21.42-.71.48-1.12.2-.59-.42-1.61-.21-1.82-1.18-.13-.59.34-.79.76-1.02,1.27-.7,1.29-1.16.16-2.11-.43-.36-.95-.57-1.37-.92-.26-.22-.54-.48-.37-.86.17-.38.57-.42.87-.27.82.41,1.63.32,2.48.14.67-.14,1.22.16,1.75.56,1.02.77,1.93,1.68,2.69,2.68,1.75,2.29,4.15,3.4,6.86,3.99.33.07.67.08.98.26.3.09.5.34.76.49.31.21.64.39.75.79,1.2,3.19,3.46,5.58,6.44,6.92,2.22,1,3.52,2.63,4.94,4.34,1.47,1.76,3.39,2.89,5.52,3.69.25.09.5.18.51-.24Z" fill="#157fd2" stroke-width="0"/><path d="m60.49,36.44c-3.85-.2-6.72-2.12-8.98-5.11-.62-.83-1.5-1.36-2.24-2.04-.35-.33-.81-.28-1.21-.17-.87.24-1.71.51-2.5-.23-.14-.13-.42-.12-.56.09-.15.25.05.41.21.52.64.4,1.32.73,1.88,1.26,1.01.95.91,1.58-.28,2.23-.35.19-1.09.03-1.01.73.08.71.85.39,1.12.61,1.08.86,1.54.71,1.79-.64.1-.53.62-.13.83,0,1.06.67,2.26,1.25,3.08,2.17.88.98,2.17,1.54,2.9,3.19-.59-.06-1.1-.22-1.58-.15-.77.12-1.7.17-1.13,1.49.2.47-.19,1.31-.73,1.44-1.13.26-1.46,1.2-1.98,1.97-.21.31-.39.59-.74.57-.5-.02-.18-.46-.26-.7-.07-.22-.17-.42-.39-.44-.31-.02-.51.24-.44.49.3,1.11-.77,1.68-.98,2.6-.09.4-1.01.09-1.15-.57-.28-1.28-.52-1.17-1.08-.14-.27.51-.85.5-1.35.22-.49-.27-.66-.75-.35-1.18.55-.76.07-1.36-.34-1.79-.44-.46-.91,0-1.27.39-.03.03-.07.05-.1.08-.29.31-1.1-.43-1.04.43.04.62.51,1.13.95,1.6.35.36,1.43.36,1.05.93-.42.63-1.37.7-2.28.4-1.17-.38-1.81-1.56-3.12-1.75-1.12-.17-1.58-.02-1.69,1.13-.04.4-.29.5-.59.52-.66.04-1.31.22-2-.07-.38-.16-1.07-.23-.96.53.16,1.18-.7.84-1.12.7-1.74-.57-1.83-.56-2.24,1.02-.07.27-.19.5-.46.53-.45.06-1.05-.09-1.13.54-.13,1.05-.98,2.05-.21,3.16.61.88-.09,1.3-.68,1.15-1.22-.3-1.66.48-2.19,1.21-.2.28-.26.62-.74.37-1-.53-1.49-.23-1.47.83,0,.31.36.7-.06.92-.42.21-.84-.09-1.16-.32-1.77-1.27-2.71-3.08-3.13-5.16-.15-.78-.72-1.6-.06-2.39.46-.55.76-1.69,1.8-.61.12.12.32.13.45-.02.12-.13.15-.29.03-.45-.77-1.04-1.16-2.34-2.17-3.21-.01-.07-.02-.14-.03-.21.52-1.57,1.55-2.83,2.54-4.11.39-.44.94-.74,1.18-1.31.25-.38.55-.72.84-1.07,1.63-1.76,3.58-3.18,5.15-5.01.85-.99,1.8-1.88,2.83-2.67.93-.71,2.09-1.05,3.02-1.79.34-.28.46-.47.53-.95.22-1.39.56-2.82,1.95-3.62.99.23.86.86.53,1.54-.36.76-.44,1.45.44,1.99-.55-.8-.68-1.62-.15-2.45.07-.11.08-.24.07-.37-.03-2.33-.03-2.32,2.02-3.14.7-.28.7.24.76.63.12.66-.22,1.34-.02,1.83-.11-1.61.53-3.18,1.43-4.78.68.47,1.31.93,1.79,1.57.1.1.21.2.31.3.92,1.51,1.96,2.92,3.38,4.02.9.7,1.95,1.15,2.92,1.73,1.47.88,2.73,1.94,3.82,3.26.91,1.11,2.07,1.97,3.26,2.78,1.39.94,2.79,1.86,4.3,2.61.12.06.14.2.17.32Z" fill="#137acc" stroke-width="0"/><path d="m38.05,86.65c-3.59-3.6-7.6-6.73-11.42-10.07-1.52-1.33-2.98-2.75-4.52-4.07-1.35-1.16-2.78-2.19-4.32-3.1-1.61-.95-2.91-2.31-4.13-3.72-1.46-1.68-3.14-3.06-5.12-4.09-.52-.27-1.02-.61-1.26-1.2.92.03,1.77.43,2.43.95,2.52,1.99,5.28,3.59,8.01,5.24.4.24.68.62,1.03.93,1,.91,2.01,1.81,3.43,2.01.45.26.84.6,1.23.94.73.88,1.86,1.14,2.77,1.74,1.41.93,2.79,1.9,4.01,3.08,2.85,2.75,6.25,4.89,8.89,7.87,1.51,1.7,3.27,3.18,4.51,5.13.84,1.32,1.96,2.21,3.67,1.99.44-.06.85.08,1.17.38,2,1.88,4.32,3.38,6.37,5.21,1.03.92,2.21,1.7,3.36,2.49,1.85,1.25,3.33,2.71,4.33,4.8.48.99,1.19,1.82,1.13,3-.25.31-.56.21-.78.03-1.43-1.19-3.14-1.96-4.62-3.1-1.07-.82-1.65-2.12-2.91-2.79-2.26-1.21-3.87-3.19-5.63-4.99-.33-.34-.68-.64-1.09-.87-2.03-1.14-3.82-2.63-5.71-3.97-1.41-1-2.83-1.99-4.15-3.1-.25-.22-.56-.38-.7-.72Z" fill="#5889ba" stroke-width="0"/><path d="m22.06,69.81c-1.17-.01-2.08-.57-2.83-1.4-1.62-1.79-3.83-2.78-5.8-4.06-1.33-.86-2.56-1.84-3.87-2.72-.71-.48-1.66-.56-2.28-1.24-1.68-1.46-3.32-2.95-4.49-4.88-.54-.89-.94-1.8-.25-2.8.83-.19,1.64-.11,2.45.1.87.38,1.62.97,2.47,1.37,1.23.67,1.86,1.97,2.93,2.81,1.13,3.01,3.82,4.17,6.44,5.41,1.19.62,2.08,1.6,3,2.55.06.06.12.11.18.16.24.57.84.77,1.21,1.21.29.79.49,1.6.88,2.36.18.36.4.78-.05,1.14Z" fill="#5181b1" stroke-width="0"/><path d="m84.33,119.01c.1.68.64.83,1.18.98.88-1.38,1.78-2.75,2.88-3.97.96-1.32,2.05-2.44,3.86-2.4-.44,1.16-1.36,2.01-2.04,3-1.29,1.87-2.75,3.62-4.14,5.42-.24.31-.51.56-.9.66-1.19.11-2.02-.13-2.84-1.28-.75-1.07-2.21-1.67-3.51-2.14-2.01-.73-3.58-2.01-5.05-3.48-1.22-1.22-2.73-2.11-3.99-3.3-1.04-.98-2.17-1.88-2.77-3.24-.02-.42.25-.68.6-.65,1.11.09,2.42-.48,3.15.91,2.61,1,3.85,3.83,6.49,4.81.98.36,1.95.73,2.95,1.06.68.45,1.16,1.17,1.96,1.47.06.05.12.11.19.16.47.85,1.51,1.14,1.97,2Z" fill="#5886b7" stroke-width="0"/><path d="m6.59.94l.09.74c.06.41.05.84.23,1.24.56.6,1.37.51,2.06.75.49.17,1.1.12,1.39.69-.12.5-.48.33-.79.27-.61-.13-1.21-.29-1.83-.31-.35-.01-.88-.26-.99.4.04.55.49.36.59.41-.13-.03-.58.08-.58-.48.26-.36.66-.39,1.01-.32,1.07.23,2.23.14,3.18.82-.22.75-.75.21-1.34.3,1.6.11,3.01.28,4.4.4-.57-.16-1.14-.24-1.68-.44-.35-.13-.89-.18-.59-.81.48-.22.98-.06,1.47-.06,1.67.23,3.2.79,4.51,1.89-.28.6.49.81.5,1.3-.34.51-.82.29-1.26.23-2.46-.35-4.89-.9-7.4-.74-.99-.17-1.98-.7-2.96.03-.16.35-.21.72-.28,1.09-.67.27-.27,1-.64,1.47-1.13-.98-2.55-.62-3.86-.76-1.9-.2-1.92-.13-1.79-2.02C.18,4.94.35,2.85.5.76c.95-.26,1.89-.07,2.84.05,1.08.14,2.17.08,3.26.12Z" fill="#bdbfb8" stroke-width="0"/><path d="m67.08,109.11c1.18,1.3,2.18,2.88,3.59,3.83,2.28,1.53,3.73,4.06,6.29,5.14,1.74.74,3.39,1.61,5.06,2.48.26.13.7.3.71.47.11,1.63,1.49,1.34,2.45,1.68-.61.52-1.29.27-1.92.09-1.39-.41-2.68-1.05-3.8-1.96-1.77-1.44-3.46-2.99-5.23-4.42-5.09-4.11-10.24-8.16-15.3-12.31-2.65-2.17-5.14-4.52-7.73-6.76-3.9-3.38-8.38-6.02-12.13-9.59-.36-.34-.85-.57-1.01-1.1.88.73,1.76,1.46,2.64,2.19.23.19.44.45.7.54,3.05,1.07,5.09,3.66,7.88,5.17,1.24.67,2.37,1.9,3.15,3.32.37.68,1.26,1.16,2.01,1.53.42.21.79.44,1.18.69,1.77,1.16,2.83,3.13,4.8,4.09,1.11.54,2.12,1.31,3.17,1.98,1.57.5,2.73,1.49,3.5,2.95Z" fill="#6894bf" stroke-width="0"/><path d="m36.59,17.84c1.13.07,2.1.53,3,1.19,0,.09,0,.22-.05.23-1.78.19-2.32,2.03-3.7,2.76-.33.25-.66.52-.93.84-.1.12-.41.23-.08.45.84.56.31,1.1-.09,1.55-1.12,1.24-2.38,2.34-3.68,3.39-1.08-.2-.22-.74-.27-1.11-.84,1.21-1.85,2.33-3.28,3-.49.18-.98.33-1.38-.14-.42-.49-.32-1.02-.01-1.51.18-.29.24-.62.42-.91,1.27-1.71,2.98-2.97,4.52-4.41,1.15-1.08,2.18-2.24,3.15-3.46.72-.72,1.13-1.83,2.38-1.87Z" fill="#1d69b0" stroke-width="0"/><path d="m18.24,7.81c.09-.5-1.65-.33-.46-1.23.52-.33,1.01,0,1.52.06.74.12,1.41.45,2.06.8,1.47.88,3.08,1.47,4.41,2.62,2.14,1.86,2.83,4.05,2.07,6.75-.2.71-.58,1.4-.49,2.18-.25.53-.41,1.11-.7,1.63-.19.36-.37.72-.7.99-3,3.7-6.4,7.03-9.42,10.71-.59.72-1.11,1.48-1.44,2.36-.54.85-1.08,1.71-1.67,2.53-.27.37-.58.73-1.1.79.56-2.38,1.84-4.42,3.31-6.29,2.11-2.69,4.4-5.25,6.61-7.85.57-.67,1.11-1.37,1.49-2.17,1.16-1.68,2.24-3.41,2.54-5.49.81-1.12.5-2.33.27-3.53-1.13-2.41-3.36-3.31-5.64-4.15-.68-.13-1.35-.36-2.04-.43-.23-.04-.46-.08-.62-.27Z" fill="#c5c7c3" stroke-width="0"/><path d="m105.92,88.67c.39-1.51,1.9-2.01,2.8-3.05.59-.68,1.4-1.2,1.36-2.25,0-.26.17-.34.39-.41.71-.23.96-.74.89-1.46-.06-.65.94-.88.66-1.63.65.28.78,1.14,1.5,1.35.34.51.58,1.06.62,1.68-.02.17,0,.36-.1.49-1.82,2.39-3.04,5.22-5.4,7.19-.47.25-.95.22-1.42-.02-.45-.62-1.25-1-1.3-1.89Z" fill="#2c7bc7" stroke-width="0"/><path d="m79.35,52.28c.2.2.41.41.78.78-1.52-.04-2.63-.62-3.69-1.24-1.98-1.16-3.62-2.71-4.86-4.65-.66-1.02-1.6-1.49-2.75-1.94-1.88-.74-3.41-2.17-4.8-3.64-1.09-1.15-1.96-2.48-2.43-4.02-.06-.2.22-.01.35,0,2.79,2.84,5.82,5.4,9.01,7.78.4.3.71.72,1.05,1.09,1.42,1.48,2.99,2.79,4.67,3.95.89.63,1.78,1.26,2.68,1.88Z" fill="#137acc" stroke-width="0"/><path d="m92.25,113.62c-.19.15-.39.45-.58.44-1.61-.04-2.18,1.3-3.06,2.23-.51-.29-.58-.76-.5-1.28.24-.59.65-.98,1.3-1.07.68-.08.94-.66,1.32-1.1,2.49-2.93,4.64-6.13,7.22-8.98.37-.41.71-.84,1.11-1.22.97-1.16,1.88-2.37,2.74-3.62.51-.74.93-1.82,2.22-1.44.15,1.05-.83,1.56-1.15,2.39-.13.33-.55.51-.59.92-1.11,1.95-2.61,3.61-4.04,5.31-1.6,1.9-3.22,3.78-4.86,5.64-.48.54-.51,1.34-1.12,1.78Z" fill="#407dba" stroke-width="0"/><path d="m12.32,38c.85-1.16,1.69-2.33,2.54-3.49.9-1.53,2.2-2.73,3.28-4.11,1.34-1.73,2.89-3.26,4.26-4.95.25-.31.42-.75.91-.8.4.45.07.87-.11,1.25-.45.98-.98,1.91-1.54,2.83-1.29,2.19-3.13,3.95-4.7,5.92-1.17,1.48-2.54,2.81-3.53,4.43-.58.54-.79,1.68-1.98,1.18.29-.75.58-1.51.87-2.26Z" fill="#1e1f21" stroke-width="0"/><path d="m18.24,7.81c.17,0,.34.02.5.03,2.18.8,3.83,2.22,4.99,4.21.26.44.7.91.18,1.47-1.16-.74-1.83-1.97-2.91-2.8-2.74-2.1-5.91-2.62-9.22-2.64-1.82,0-3.63.17-5.45.27-.5-.44-.29-.84.08-1.23,1.02-.45,2.05-.14,3.08-.07,2.98-.43,5.83.51,8.75.76Z" fill="#aa2c35" stroke-width="0"/><path d="m35.64,21.76c.72-.59,1.67-.93,1.83-2.06.06-.43.59-.37.96-.43.39-.06.85.2,1.16-.24,1.12.56,2.05,1.33,2.75,2.38-.52-.43-1.03-.87-1.75-1.48.4,1.21-.86,1.49-.84,2.59.02.81-.42,1.74-.32,2.67.03.26-.04.57-.36.57-.36,0-.29-.33-.28-.57.03-.96.05-1.91.09-3.1-.59.5-.86.95-1.62.93-.55-.02-1.11.92-.75,1.77.14.32.3.6.1.94-.5.85-.71,1.63.38,2.22.2.1.25.4.08.55-.13.11-.4.14-.6.11-.96-.14-1.46-1.46-.84-2.43.38-.6.52-1.04-.11-1.5-.07-.31.06-.58.21-.83.44-.72.33-1.4-.09-2.07Z" fill="#2077c4" stroke-width="0"/><path d="m102.27,100.9c.31-1.21,1.4-2.01,1.72-3.22.1-1.02.83-1.73,1.37-2.5.52-.74.95-1.47,1.09-2.36.4-.81,1.24-1.26,1.67-2.05.05-.04.09-.09.14-.13,2.35-2.29,3.66-5.36,5.88-7.75.45.86.13,1.61-.29,2.38-1.04,1.9-2.65,3.37-3.88,5.14-2.48,3.56-5.12,7-7.7,10.48Z" fill="#5984b4" stroke-width="0"/><path d="m60.49,36.44c-2.5-1.39-5.01-2.73-7.15-4.69-.77-.7-1.17-1.64-1.92-2.33-1.31-1.21-2.91-1.92-4.51-2.64-.94-.42-1.79-1.1-2.34-1.9-.69-1.01-1.72-1.86-1.92-3.18,2.23,3.21,5.91,4.7,8.65,7.27,2.75,2.58,5.61,4.96,8.84,6.91.39.24.7.6,1.05.9-.23-.12-.46-.23-.69-.35Z" fill="#1d6db3" stroke-width="0"/><path d="m8.13,46.45c.61-1.04,1.73-1.75,2-3.01.58-.75,1.24-1.44,1.83-2.19.52-.39.96-.86,1.26-1.42.36-.68.96-1.04,1.56-1.42.45-.48.84-1.01,1.3-1.49.3-.32.58-.74,1.13-.52.15,1.16-.46,2-1.14,2.82-1.13,1.39-2.36,2.7-3.42,4.15-.76.75-1.42,1.63-2.38,2.17-.73.26-1.11,1.35-2.14.9Z" fill="#5a7a9c" stroke-width="0"/><path d="m26.5,16.04c-.04,2.31-1.13,4.11-2.76,5.64.54-1.46,1.53-2.78,1.42-4.45-.02-2.65-.97-4.94-2.71-6.92-.37-.42-.94-.79-.58-1.5.19,0,.37.04.53.15.88.53,1.46,1.34,2.03,2.16.25.35.48.68.93.75,1.04,1.21,1.42,2.6,1.14,4.17Z" fill="#262725" stroke-width="0"/><path d="m8.13,46.45c.84.02,1.16-.91,1.91-1.06.08,1.26-.79,2.02-1.59,2.73-1.14,1.02-2,2.29-3.14,3.29-.46.41-.4,1-.6,1.49-.73.03-1.47.14-2.17-.2.87-1.61,2.03-2.96,3.43-4.13.77-.64,1.44-1.42,2.15-2.13Z" fill="#476e9c" stroke-width="0"/><path d="m34.4,20.05c-1.85,2.45-4.23,4.37-6.47,6.44-.45.42-.62,1.14-1.34,1.27-.59.72-.97,1.64-1.94,2-.6-.41-.26-.88-.04-1.3.24-.44.62-.79.91-1.2.29-.44.43-.97.78-1.38.5-.4.95-.9,1.63-.99.29-.21.57-.42.86-.63.74-.3,1.01-1.06,1.55-1.56.35-.48.76-.87,1.38-1.01.65-.14,1.02-.68,1.46-1.12.32-.32.59-.87,1.21-.53Z" fill="#32659b" stroke-width="0"/><path d="m34.4,20.05c-.5,0-.68.44-.94.74-.6.69-1.11,1.46-2.22,1.37-.46-.04-.62.49-.92.77-.13.05-.18,0-.16-.13.73-1.06,1.79-1.88,2.09-3.26.14-.65,3.5-1.85,4.33-1.71-.98.49-1.46,1.48-2.19,2.22Z" fill="#456a97" stroke-width="0"/><path d="m19.22,6.84c-.48-.09-.96-.18-1.44-.27-1.53-.73-3.04-1.53-4.74-1.83-1.78-.4-3.52-.98-5.31-1.37-.4-.09-.83-.13-1.13-.46-.24-.43-.18-.83.07-1.23,1.25.35,2.5.7,3.75,1.05.13.62.72.51,1.11.64,2.35.78,4.74,1.45,6.97,2.56.38.19.93.26.72.91Z" fill="#323231" stroke-width="0"/><path d="m113.52,81.21c-.81-.1-1.05-.84-1.5-1.35-1.02-.85-2.19-1.43-3.36-2.05-1.55-.83-3.76-1.24-4.23-3.58-.09-.44-.49-1.1-1.14-1.27-.75-.2-.57-.69-.42-1.19.72.83,1.4,1.68,2.15,2.47,1.26,1.33,2.74,2.32,4.39,3.15,1.71.86,3.01,2.24,4.1,3.81Z" fill="#2074bc" stroke-width="0"/><path d="m21.92,8.89c0,.67.58.97.92,1.42,1.58,2.04,2.88,4.17,2.31,6.92-.24-1.3-.73-2.51-1.24-3.72-.43-2.04-1.88-3.28-3.48-4.39-.59-.4-1.22-.74-1.7-1.29.72-.09,1.36.18,2.02.39.39.21.97.09,1.15.66Z" fill="#a2abab" stroke-width="0"/><path d="m19.22,6.84c-1.04-1.05-2.45-1.36-3.76-1.85-1.57-.59-3.2-1.04-4.8-1.56-.38-.12-1.02-.18-.24-.71,3.26.9,6.5,1.84,9.46,3.55.55.32,1.06.68,1.47,1.16-.71-.2-1.42-.4-2.14-.6Z" fill="#4e5657" stroke-width="0"/><path d="m27.94,24.89c-.45.47-.9.93-1.51,1.2.19-1.91.28-3.82.1-5.74.12-.55.26-1.08.82-1.35.6,1.92.74,3.89.59,5.89Z" fill="#96222c" stroke-width="0"/><path d="m6.59.94c-.64.42-1.35.3-2.03.25-1.36-.1-2.71-.28-4.06-.43C.48.04,1,.25,1.38.28c1.13.1,2.25.18,3.37.35.71.11,1.31.03,1.72-.63.41.33.2.64.12.94Z" fill="#b1a28e" stroke-width="0"/><path d="m12.1,41.43c-.42.9-1.15,1.5-1.97,2.01.4-1.08.72-2.19,1.32-3.18.98.11,1.13-.9,1.74-1.29.3,1.11-.56,1.72-1.09,2.47Z" fill="#252e39" stroke-width="0"/><path d="m76.68,50.4c-1.82-1-3.39-2.31-4.67-3.95,1.56,1.32,3.12,2.63,4.67,3.95Z" fill="#186ab0" stroke-width="0"/><path d="m30.17,22.8s.1.09.16.13c-.48.56-.96,1.12-1.45,1.68-.01.01-.09-.01-.09-.02,0-.11.01-.22.02-.33.46-.49.91-.98,1.37-1.46Z" fill="#464968" stroke-width="0"/><path d="m80.05,70.84c1.26.99,1.46,1.63.61,2.73-2.05,2.64-4.15,5.23-6.24,7.84-.62.39-.96,1.04-1.44,1.55-1.21,1.31-1.82,1.47-3.21.39-.92-.72-1.71-.94-2.7-.33-.55-.28-1.01-.11-1.43.28-.5-.03-.52-.41-.56-.78-.02-.12-.03-.24-.04-.35-.07-.72-.2-1.42-.75-1.97-.21-.21-.41-.47-.23-.79.19-.34.51-.23.79-.15.67.18,1.32.09,2.01-.01-.1-1.11-2.08-.11-1.65-1.84-.52.69-.98,1.18-1.73,1.11-.7-.06-1.11-.56-1.51-1.06-.21-.27-.44-.52-.71-.72-.27-.21-.55-.49-.9-.35-.41.17-.15.61-.26.91-.27.59-.84.72-1.37.91-.26.04-.5.02-.69-.18-.27-.34.12-.79-.18-1.13-.42,0-.53.49-.9.55-1.12.07-2.04-.22-2.69-1.25-.45-.71-1.22-1.12-1.96-1.53-1.66-.92-1.72-1.09-1.13-3.09-.74.97-1.41,1.23-2.33.82-.65-.28-.83.35-.95.86-.01.44.37.59.63.82.15.2.21.42.14.67-.07.18-.19.32-.35.42-1.69-.3-2.64-1.58-3.63-2.79-.39-.48-1.15-.86-.67-1.7.52-.5,0-1.28.46-1.78-1.4-.38-2.86.02-4.26-.38-.4-.12-.85-.06-1.03-.55-.17-.46,0-.85.31-1.15,1.99-1.95,3.39-4.4,5.33-6.39.32-.33.57-.73,1-.94,1.01.05,1.95.38,2.87-.65.52-.58.74.46.84.94.13.59-.19,1.22.41,1.77.5.47.97.89,1.65.63.63-.24,1.23.34,1.83-.04.28-.29.5-.69,1-.61.34.27.44.91,1.02.77,1.18-.3,1.53.48,1.84,1.34-.02.13-.07.24-.14.35-.07.11-.18.18-.26.28.18.05.17-.16.29-.21.28-.75,0-1.38-.46-1.94-.22-.27-.56-.45-.28-.84.27-.38.57-.78,1.05-.88.53-.11.54.42.71.73.18.33.52.63.38,1.04-.28.84.2,1.16.86,1.38.42.2.81.33.9-.33.07-.5.39-.57.81-.52.31.08.56.22.57.59,0,.13-.09.28-.05.36.13.25-.62.29-.12.62.41.28.38-.27.63-.29.07,0,.14-.08.22-.12.36-.13.71-.2.97.19.06.27-.11.44-.27.62-.15.23-.45.59-.06.7.39.11.28-.37.32-.63-.03-.23.02-.46.02-.69.32-.48.67-.28.94.02,1.37,1.51,3.31,2.28,4.8,3.65.4.37.82.72,1.21,1.1.76.75,1.46,1.6,2.81,1.07.68-.27,1.41.05,1.38.98-.02.77.36.92,1,.96.7.04,1.25.39,1.36,1.11.11.75.61,1.05,1.34,1.45-.24-.83,0-1.3.75-1.33,1.1-.04,1.28-.57.93-1.5-.09-.22-.16-.5.14-.67Z" fill="#c4c0ba" stroke-width="0"/><path d="m63.42,64.14c-.28-.23-.58-.27-.9-.11-.44-.1-.69-.46-.99-.74.08-.34-.23-.33-.4-.43-.3-.31-.59-.26-.79.08-.22.36-.48.66-.87.84-.89-.26-1.89-.37-1.12-1.78.16-.29-.41-.97-.69-1.56-.41.41-.76.75-1.11,1.1.76.36,1.26,1.75.96,2.62-.19-.13-.25-.32-.26-.54-.58-.64-1.07-1.32-2.18-1.06-.86.2-.52-.57-.52-1.01-.19-.2-.48-.16-.7-.28-.14-.07-.26-.17-.35-.3-.11-.17-.2-.36-.32-.52-.18-.2-.42-.27-.66-.33-.35-.06-.62.06-.77.37.11-.23.29-.31.54-.23.33.21.37.54.4.88.02.19,0,.39.12.56.13.13.3.23.43.37.14.14.2.33.36.45,0,.04,0,.12-.02.12-1.35.31-3.85-.49-4.45-1.42-.21-.32.02-.54.13-.81.22-.54-.08-1.03-.24-1.61-.24.62-.58.95-1.23,1.11-.7.17-1.23.1-1.71-.41.29-.73.9-1.21,1.38-1.79,1.39-1.62,2.69-3.31,3.99-4.76.21-.29.02-.27.01-.27-1.12,1.78-2.66,3.23-3.89,4.93-2.31,2.64-4.58,5.3-6.76,8.04-.73.91-1.4,1.96-2.45,2.61l-.05-.06-.06-.05c-.11-.52.34-.73.59-1.03,3.14-3.75,6.39-7.41,9.41-11.25,1.35-1.71,2.85-3.27,4.23-4.94.35-.42.68-.88,1.29-.92.43.14.85.28,1.28.42,1.57.54,2.4,2.02,3.66,2.95.77.57,1.48,1.22,2.21,1.86,3.93,3.2,7.86,6.41,11.79,9.61,2.46,2,4.91,4.01,7.36,6.02.06.24.1.49.18.72.46,1.36.33,1.6-1.11,1.73-.67.06-1.04.1-.44.82.25.3.03.56-.32.64-.4.1-1.75-.95-1.72-1.38.09-1.15-.57-1.4-1.51-1.29-.72.08-1.12-.23-.94-.92.36-1.39-.67-1.35-1.26-1-1.58.93-2.23-.52-2.8-1.2-.66-.79-1.57-1.17-2.25-1.91-1.06-1.14-2.84-1.42-3.72-2.86-.2-.34-.47-.3-.74-.05h0Z" fill="#c1bcb6" stroke-width="0"/><path d="m38.34,68.25c3.06-3.62,6.12-7.23,9.18-10.85.2.1.28.2.02.33-.49.58-.98,1.17-1.47,1.75-1.39,1.65-2.78,3.29-4.16,4.94-.34.41-.77.76-.74,1.41.02.46-.41.51-.78.66-.54.22-1.09.64-.95,1.31.14.71.78.17,1.14.3,1.35.51,2.71.28,4.07.17.44-.04.55.24.55.51,0,.28-.35.06-.5.2-.93.36.11,1.17-.36,1.63-.8.92.4,1.08.67,1.52.78,1.28,1.93,2.24,3.34,2.81.4-.03.74-.24,1.2-.38-.4-.31-.68.15-.97,0-.04-.14-.08-.29-.12-.43q-.08-.85-.89-.75c.36-1.66.38-1.69,1.82-1.12.64.25.95,0,1.19-.53.13-.3.22-.75.67-.47.33.2.56.67.28.98-1.39,1.53.44,1.72,1.02,2.17.78.61,1.7.98,2.22,1.96.44.83,1.47.7,2.25.96.12,0,.24.01.36.05.54.18.67,1.11,1.47.79.12.04.21.1.29.19.2.57.56,1.02,1.1,1.3.19.1.37.24.57.1.15-.11.14-.3.08-.46-.1-.27-.3-.25-.51-.16-.2.08-.4.13-.6.03-.57-.72,0-1.28.26-1.89-.06-.41-.66-.81-.09-1.23.51-.38.94-.1,1.36.26.45.39.83.83,1.2,1.3.69.88,1.35.86,2.12.1.32-.31.57-1.11,1.12-.68.51.41-.54.61-.44,1.15.52.09,1.05.14,1.57.27.34.09.59.33.5.76-.09.42-.41.59-.75.5-.76-.2-1.58.35-2.36-.27.7.9,1.26,1.8,1.06,2.95-.26.09-.55.08-.76.29.25-.11.5-.22.76-.3.13.28-.05.66.27.88.03.32.05.64.36.84.68.51,1.31.31,1.98-.13-.41-.19-.92-.02-1.26-.37-.1-.25-.1-.47.16-.63.43-.26.84-.54,1.28-.78.35-.19.67-.19,1.02.12,2.06,1.79,2.02,2.23,4.44-.22.26-.26.41-.65.86-.67-.52.64-1.04,1.28-1.55,1.92-.6,1.16-1.71,1.93-2.34,3.07-1.12,1.48-2.24,2.96-3.35,4.45-.72.97-1.56,1.04-2.54.43-.11-.07-.22-.13-.32-.21-6.58-5.44-13.34-10.67-19.8-16.25-1.61-1-2.84-2.47-4.43-3.5-.53-.42-1.06-.83-1.58-1.26-.66-.54-.81-1.14-.17-1.81Z" fill="#c7c4c0" stroke-width="0"/><path d="m67.08,109.11c-1.17-.98-2.33-1.96-3.5-2.95-.16-.19-.44-.38-.45-.58-.03-.73.25-1.57-.93-1.65-.07,0-.17-.28-.18-.44-.23-2.16-1.94-3.23-3.4-4.42-1.59-1.29-3.32-2.38-4.91-3.7-1.37-1.14-2.94-2.17-4.23-3.37-1.32-1.23-2.72-1.27-4.23-1.58-.96-.2-1.46-1.21-2.01-1.97-1.01-1.38-2.19-2.59-3.38-3.82-.96-.99-1.93-2.02-2.93-2.98-1.37-1.33-2.62-2.82-4.36-3.71-1.09-.55-1.77-1.55-2.58-2.38-1.97-2.02-4.56-3.12-6.77-4.77,1.73-.57,3.08.32,4.43,1.16,2.56,1.57,4.16,4.19,6.54,5.97,1.82,1.37,3.73,2.63,5.31,4.31.45.47.78.97,1.07,1.53,2.68,2.15,5.36,4.29,8.03,6.45.34.27.7.57,1.13.51.76-.1,1.2.38,1.61.83,1.71,1.89,3.79,3.32,5.74,4.92,2.18,1.8,4.54,3.35,6.59,5.34,2.57,2.5,5.47,4.66,8.27,6.91.43.35.67.86,1.16,1.13.15.68.73,1.09,1.2,1.4,1.54,1.04,2.7,2.64,4.6,3.16.26.21.52.43.79.64.22.01.35.12.38.35-1.78,0-3.28-.83-4.69-1.78-1.24-.83-2.21-1.99-3.21-3.09-.24-.26-.49-.28-.79-.26-.36.02-.66-.03-.86-.38-.22-.38-.33-1.18-.78-1-.9.35-1.84-.46-2.66.21Z" fill="#4982bb" stroke-width="0"/><path d="m83.89,117.61c-.27-.26-.76-.16-1-.68.59-.29,1.24-.6,1.26-1.42,0-.1.15-.3.19-.29,1.38.25,1.1-.96,1.4-1.61.45-.98,1.38-1.56,2.01-2.4,1.03-1.36,1.72-2.75,1.87-4.41.04-.4.31-.71.48-.81,1.03-.66,1.18-2.08,2.52-2.55.65-.23.66-1.43,1.42-1.97.5-.36.83-.82,1.51-1.06.51-.18,1.58-.95.33-1.79-.28-.19-.24-.45-.08-.66,1.24-1.62,1.35-3.92,3.2-5.2.39-.27.47-.97.73-1.45.12-.22.35-.44.62-.26.33.21.26.58.05.77-1.35,1.24-1.55,3.12-2.55,4.55-.4.57-.19,1.29.41,1.81.54.47,1.03.74,1.62.08.18-.2.46-.18.72-.12.26.51.25.96-.26,1.31-.11.05-.23.07-.36.06-.77.02-.96.75-1.4,1.15-.34.3-.6.87-1.09.74-.63-.17-.35-.84-.49-1.58-.79,3.31-3.1,5.39-4.73,7.91-.25.39-.61.7-.81,1.13-.09.16-.2.3-.34.41-.56.23-.6.83-.88,1.26-1.21,1.59-2.55,3.06-3.81,4.6-.4.49-.85.96-1.06,1.57-.25.73-.76.96-1.47.9Z" fill="#2a81cf" stroke-width="0"/><path d="m19.83,64.95c-1.03-.89-2.06-1.78-3.27-2.42-2.3-1.48-4.78-2.76-6.23-5.25-1.12-.91-1.93-2.15-3.13-2.97-.6-.19-.87-.61-.71-1.2.16-.61.68-.44,1.11-.4,1.14.29,1.78-.31,2.1-1.28.22-.69.6-1.17,1.18-1.56.69-.48,1.29-1.06,1.86-1.68.44-.47.91-1.03,1.71-.8.04.05.07.1.11.15-.05.36-.3.71-.06,1.11.12,0,.25,0,.37-.02.35-.05.66-.48,1.03-.14.08.07.09.38,0,.46-.35.33-.79.59-1.25.29-1.14-.75-1.35.4-1.98.81.4.38.61.04.87-.03.49-.12.71.19.77.6.06.42-.19.64-.61.56-.72-.14-1.4.31-2.13.1-.41-.12-.67.05-.68.49,0,.41.26.61.65.61.34,0,.67-.04,1.01-.06.3-.02.62-.05.68.37.06.4-.24.52-.53.58-1.14.23-2.19.59-3.03,1.45-.35.36-.58-.4-1.17-.19,1.39,1.37,2.34,3.03,4.49,3.38,1.6.26,2.99,1.1,3.81,2.61.19.35.45.6.74.85.52.06.63.41.62.85-.18.7.16,1.15.67,1.58.39.33.96.53,1.01,1.16Z" fill="#137acc" stroke-width="0"/><path d="m100.17,99.45c.42-.34.35-.85.43-1.3.87-.42.94-1.41,1.38-2.12.59-.96,1.49-1.72,1.81-2.84.85-.65,1.64-1.37,2.39-2.13.28-.29.5-.67.98-.68.36.11.79-.05,1.11.26,0,0,0,0,0,0-.2.9-1.2,1.24-1.45,2.1-.19,2.07-1.78,3.35-2.82,4.93-1.25.08-1.67,1.15-2.2,1.99-.71,1.12-1.58,2.08-2.42,3.09-.72-.17-.68-.85-.4-1.13.62-.64.62-1.56,1.21-2.18Z" fill="#1c77c2" stroke-width="0"/><path d="m40.56,83.76c-2.25-2.43-4.9-4.38-7.55-6.33-1.26-.93-2.17-2.19-3.26-3.26-1.88-1.83-3.89-3.14-6.54-3.37-.39-.33-.78-.65-1.16-.98.19-.87-.55-1.43-.76-2.18-.12-.42-.19-.77-.08-1.18.08.01.19,0,.25.05,2.74,2.01,5.74,3.71,8.05,6.27,1.79,1.7,3.33,3.65,5.3,5.17,1.33,1.03,2.72,1.93,4.1,2.87,1,.69,1.58,1.68,1.64,2.94Z" fill="#3a7bbc" stroke-width="0"/><path d="m53.75,49.99c-.64.41-1.16.96-1.64,1.54-4.62,5.54-9.25,11.07-13.88,16.6-.24-.64.33-.91.62-1.27,3.14-3.75,6.3-7.49,9.46-11.23.27-.31.53-.63.77-.92-.2-.35-.47-.38-.71-.41-.75-.09-1.03-.45-.77-1.2.12-.36.18-.74.25-1.11.04-.2-.02-.45.27-.49.28-.04.34.16.38.39.15.96.38.74,1.32.58,1.71-.29,2.28-1.52,3.26-2.46.23-.22.45-.16.69-.03Z" fill="#137acc" stroke-width="0"/><path d="m83.89,117.61c1.12-.2,1.07-1.35,1.63-2,1.6-1.84,3.16-3.72,4.73-5.58,1.04.32.6.92.23,1.42-.98,1.31-2.07,2.53-2.99,3.89-.4.59-.62,1.29-1.13,1.81-.3.39-.65.72-1.03,1.04-.46.38-.81.27-1.1-.21-.11-.12-.23-.25-.34-.37Z" fill="#7f98cb" stroke-width="0"/><path d="m29.52,72.78c-2.72-2.18-5.78-3.89-8.3-6.32-.38-.46-1.09-.64-1.2-1.35,2.18,1.77,4.82,2.84,6.93,4.73,1,.89,1.88,1.81,2.58,2.94Z" fill="#137acc" stroke-width="0"/><path d="m107.15,90.38c-.65,1.19-2.05,1.71-2.66,2.97-.19.39-.48-.03-.71-.16-.66-.74.23-1.11.4-1.64.34-1.1,1.29-1.84,1.74-2.88.3.65,1.25.84,1.23,1.71Z" fill="#4082c9" stroke-width="0"/><path d="m84.22,117.98c1.02.52,1.2-.55,1.76-.92.87-.43,1.05-1.71,2.2-1.8.36.25.26.7.44,1.03-.81,1.08-1.63,2.16-2.44,3.24-.17.23-.31.5-.67.45.14-.61.03-1.06-.66-1.27-.3-.09-.59-.34-.62-.73Z" fill="#2d7dc5" stroke-width="0"/><path d="m64.84,47.87c-.74.19-1.45.03-2.11-.3-.37-.18-.64-.52-1.11-.52-.55,0-.55-.46-.5-.83.07-.47.44-.45.77-.29.51.24.94.14,1.42-.14.58-.34,1.08-.02,1.39.44.31.46.33,1.02.13,1.64Z" fill="#137acc" stroke-width="0"/><path d="m78.89,114.42c-.29.14-.62.18-.85,0-1.7-1.29-3.7-2.22-4.93-4.07-.08-.12-.01-.33-.01-.49,1.93,1.52,3.87,3.04,5.8,4.56Z" fill="#3f7ebe" stroke-width="0"/><path d="m57.56,43.22c-.54-.37-.7-.79-.55-1.28.07-.24,1.96-.48,2.1-.26.38.6.87,1.45.36,1.93-.6.57-1.34-.26-1.91-.39Z" fill="#137acc" stroke-width="0"/><path d="m37.61,48c-.03-.61-1.34-.9-.78-1.6.33-.41,1.38-.2,1.96.32.44.39.71.86.2,1.42-.47.51-.89.34-1.38-.13Z" fill="#137acc" stroke-width="0"/><path d="m18.15,62.21c-.21-.28-.41-.57-.62-.85.58-.42.98-.99,1.35-1.59.25-.39.61-.48,1.09-.4.56.09.46.5.53.84,0,.22-.11.36-.33.4-.72-.16-1,.26-1.14.87-.11.48-.22.94-.89.75Z" fill="#347fce" stroke-width="0"/><path d="m46.91,49.25c-.23-.31-.7-.44-.33-.86.23-.25,2.25-.1,2.52.2.2.22.39.59.09.77-.8.48-1.58.17-2.29-.12Z" fill="#137acc" stroke-width="0"/><path d="m17.44,45.32c-.18.32-.41.63-.52.98-.37,1.23-1.17,1.59-2.36,1.24,0,0,0,0,0,0,.34-1.17,1.23-1.83,2.23-2.38.22-.12.49-.13.65.16,0,0,0,.01,0,.01Z" fill="#137acc" stroke-width="0"/><path d="m60.9,55.22c-1.96-1.6-3.91-3.2-5.87-4.8.98.25,1.86.44,2.44,1.58.45.9,1.58,1.44,2.39,2.17.37.33.85.55,1.04,1.05Z" fill="#137acc" stroke-width="0"/><path d="m42.38,48.02c-.63.38-1.25.6-1.91.21-.26-.16-.15-.6.03-.62.61-.07,1.15-.83,1.83-.23.24.21.2.43.04.63Z" fill="#137acc" stroke-width="0"/><path d="m62.81,45.26c-.59-.17-1.05-.6-1.7-.53-.24.03-.51-.17-.43-.49.07-.29.33-.39.6-.35.78.14,1.21.69,1.53,1.37Z" fill="#137acc" stroke-width="0"/><path d="m40.09,71.32c1.71.86,2.94,2.34,4.43,3.5-1.65-.94-3-2.27-4.43-3.5Z" fill="#c4c0ba" stroke-width="0"/><path d="m59.74,46.72c-.2,0-.31.04-.36,0-.4-.33-.98-.52-1.07-1.13-.03-.19.24-.25.39-.21.63.17.98.59,1.04,1.33Z" fill="#137acc" stroke-width="0"/><path d="m51.98,48.54c.22-.24.45-.33.6-.02.13.26.47.58.08.85-.16.11-.53.11-.69,0-.33-.24-.19-.58,0-.83Z" fill="#137acc" stroke-width="0"/><path d="m45.56,84.88c.9.34,1.34.86,1.81,1.4-.84-.04-1.42-.38-1.81-1.4Z" fill="#d1cbe9" stroke-width="0"/><path d="m75.76,110.33q-.88-.19-1.52-1.08.9.2,1.52,1.08Z" fill="#559edd" stroke-width="0"/><path d="m70.53,86.4c.47-1.26,1.57-2.03,2.34-3.07-.55,1.19-1.5,2.09-2.34,3.07Z" fill="#c4c0ba" stroke-width="0"/><path d="m24.5,66.64c-.91.19-1.26-.42-1.93-1.04.96.11,1.45.5,1.93,1.04Z" fill="#c2cedc" stroke-width="0"/><path d="m51.23,89.66c-.19.25-.38.5-.71.18-.19-.19-.13-.46.08-.51.32-.08.39-.7.79-.41.37.27-.06.5-.17.74Z" fill="#a9c8e4" stroke-width="0"/><path d="m80.06,115.41c-.13-.12-.26-.23-.38-.35,1.08.26,1.65,1.22,2.49,1.79-.94-.14-1.39-.99-2.11-1.44Z" fill="#2d7dc5" stroke-width="0"/><path d="m34.91,75.42c-.64.01-.97-.23-1.1-.76q.67.13,1.1.76Z" fill="#bcd1e3" stroke-width="0"/><path d="m57.37,94.46c-.56-.23-.88-.53-1.34-1.22.89.21,1.15.58,1.34,1.22Z" fill="#dce7f8" stroke-width="0"/><path d="m84.33,119.01c-.62-.71-1.63-1.02-1.97-2,.63.7,1.66,1,1.97,2Z" fill="#2d7dc5" stroke-width="0"/><path d="m69.23,104.61c-.59-.11-.91-.5-1.16-1.19.57.29.97.58,1.28,1,.04.09.04.15-.01.17-.05.03-.09.03-.11.02Z" fill="#f4eeec" stroke-width="0"/><path d="m20.19,60.6c.11-.13.22-.26.33-.4.48-.06.79.22.56.6-.27.43-.61-.02-.89-.2Z" fill="#137acc" stroke-width="0"/><path d="m69.23,104.61c.03-.07.07-.13.12-.19.6.51,1.2,1.01,1.8,1.52-.05.06-.09.11-.14.17l-1.78-1.5Z" fill="#65bded" stroke-width="0"/><path d="m17.44,45.31c-1.39.19-2,1.37-2.88,2.22-.56-.19-.88.22-1.19.52-.94.93-1.88,1.83-2.98,2.59-.62.43-.21,1.45-1.02,2.02-.64.46-1.09.61-1.75.33-.71-.21-.75-.68-.32-1.13,1.31-1.35,1.95-3.28,3.69-4.26.34-.19.46-.58.65-.91,1.06-1.92,2.6-3.35,4.47-4.46.78.4,1.27.03,1.67-.62.52-.84.62-1.8.75-2.75.94-.98,1.74-2.11,3.03-2.7.83.17.63.73.45,1.26-.13.38-.48.75.11,1.05.1.07.15.16.16.28-.33.39-.65.78-.98,1.17-.45.28-.82.63-.99,1.16-1.14,1.28-1.9,2.83-2.88,4.22Z" fill="#4879bd" stroke-width="0"/><path d="m22.28,38.76c-.06-.05-.13-.11-.19-.16.02-.87.58-1.54,1.14-2.01,1.54-1.3,2.65-3,4.16-4.3.87-.53,1.34-1.41,1.95-2.17,1.27-.33,1.88-1.1,1.58-2.01,1.2-1.16,2.42-2.3,3.59-3.48.21-.22.69-.4.43-.9-.22-.43-.62-.23-1.05-.31.62-.59,1.17-1.13,1.73-1.67,1.07.76,1.05,1.31-.12,2.9-1.07.81-1.12,2.22-1.86,3.23-.04.06-.07.21-.03.23,1.56,1.29-.31,1.1-.66,1.32-2.53,1.58-4.88,3.33-6.79,5.68-1.12,1.38-2.75,2.26-3.89,3.64Z" fill="#3c7ac2" stroke-width="0"/><path d="m20.32,41.09c.12-.56.02-1.32.99-1.16-.02.65-.71.72-.99,1.16Z" fill="#4074b9" stroke-width="0"/><path d="m16.28,42.35c-1.61.96-3.08,2.3-3.94,3.77-.71,1.21-1.77,1.87-2.49,2.89-.8,1.13-1.62,2.23-2.54,3.27-.27.31.11.51.3.72-.29.17-.68-.37-.87.05-.23.51.03.94.46,1.26-.92-.3-1.71-.84-2.49-1.4-.53-.72-.27-1.16.31-1.81,1.69-1.88,3.87-3.35,5.02-5.71.91-.52,1.37-1.56,2.35-2.01,1.03-.78,2.11-1.48,3.32-1.96.35-.14.79-.2,1,.21.19.38-.04.62-.43.71Z" fill="#1a69b1" stroke-width="0"/><path d="m10.33,57.28c1.91,1.94,4.22,3.42,6.23,5.25-.83.29-1.37-.44-1.85-.78-1.73-1.19-4.01-1.93-4.38-4.47Z" fill="#3477b8" stroke-width="0"/><path d="m10.95,5.27c-1.36-.52-2.73-.93-4.2-.53h0c-.31-.42-.65-.79.31-.78,1.12.01,2.14.77,3.3.41.58-.38,1.03-.17,1.42.31.21.72.92.4,1.36.65.47.28,1.22-.04,1.49.68-1.26-.1-2.56,0-3.69-.74Z" fill="#c7cdcb" stroke-width="0"/><path d="m11.79,4.68c-.47-.1-.95-.2-1.42-.31-.98-.25-1.96-.49-2.93-.76-.36-.1-.91-.05-.84-.7,2.22.35,4.42.79,6.44,1.83-.43.24-.84-.04-1.25-.06Z" fill="#f7f6f5" stroke-width="0"/><path d="m10.95,5.27c1.23.25,2.46.5,3.69.74-.02.08-.04.22-.05.22-1.7-.18-3.42-.26-5.32-.82.75-.32,1.23.15,1.69-.15Z" fill="#a3a39f" stroke-width="0"/><path d="m9.49,7.04c-1.02.09-2.05.24-3.08.07-.05-.18-.02-.42.13-.43,1-.1,2.02-.23,2.94.36Z" fill="#f6eeed" stroke-width="0"/><path d="m6.75,4.74c.42.16.84.31,1.27.47-1.11.27-1.23.23-1.26-.47,0,0,0,0,0,0Z" fill="#eeebe8" stroke-width="0"/><path d="m16.28,42.35c.13-.2.41-.38.24-.64-.18-.26-.47-.15-.68-.02-.68.4-1.43.68-2.06,1.18-.38.3-.85.54-1.38.52.79-1.74,2.31-2.92,3.42-4.42.39-.13.61-.47.8-.78,1.87-3.05,4.79-5.17,7.02-7.9.24-.29.53-.55.95-.56.67-.65,1.06-1.59,2-1.97.12.28.18.55-.11.79-.41.34-.48.77-.21,1.22.36.61.81.06,1.21.08.04.62-.31,1.12-.75,1.37-1.89,1.08-2.78,3.11-4.35,4.49-.22.19-.41.42-.66.58-1.13.79-1.98,1.88-3.01,2.78-.38.16-.4.64-.73.84-.59.36-.49.75-.14,1.21.15.2.19.46.2.72-.21.25-.44.5-.64.76-.55.71-.86.37-1.12-.24Z" fill="#2471b5" stroke-width="0"/><path d="m21.71,36.29c1.28-1.72,2.33-3.64,4.23-4.81.66-.41,1.02-1.09,1.54-1.63,1.76-.65,2.44-2.6,4.07-3.44-.13.63-.71.96-.78,1.56,0,.04.02.09.04.11.03.02.08.02.12.02.69.29,1.52.57.2,1.18-.36.17-.41.48-.58.76-.28.49-.61.55-.9-.03-.08-.16.03-.8-.39-.17-.54.83-1.01,1.7-1.58,2.51-1.73,2.2-3.92,4-5.6,6.25-.29.12-.59.18-.81-.09-.25-.32.04-.54.2-.77.32-.45.69-.89.23-1.46Z" fill="#4074b9" stroke-width="0"/><path d="m26.52,20.36c.76,1.92.52,3.83-.09,5.74-.14.37-.27.75-.41,1.12-.6.36-1.02.91-1.35,1.47-1.7,2.93-4.61,4.76-6.65,7.39-.18.23-.46.37-.78.36-.96.61-1.56,1.58-2.35,2.36-.27.15-.5.15-.52-.22-.02-.36.19-.65.41-.9,1.8-2.07,3.44-4.27,5.41-6.2,2.32-2.28,4.08-4.95,4.98-8.12.16-.57.24-1.16.55-1.68.05-.14.15-.26.27-.35.13-.35.22-.71.53-.96Z" fill="#fcfdfd" stroke-width="0"/><path d="m25.99,21.32c-.03.07-.06.13-.1.19-.45.92-.75,1.93-1.43,2.73-.41.09-.72.37-1.09.55-1.34.91-2.32,2.2-3.21,3.48-1.57,2.26-3.61,4.1-5.3,6.24-.02-.65.42-1.11.75-1.55,3.11-4.04,6.84-7.56,10.03-11.54.06-.08.23-.07.35-.1Z" fill="#969997" stroke-width="0"/><path d="m26.5,16.04c-.27-1.39-.37-2.84-1.25-4.04-.34-.47-1.16-.7-.75-1.54,1.34.22,1.76,1.38,2.39,2.34.17.97.46,1.93.04,2.91-.09.21-.17.37-.42.34Z" fill="#faf9f9" stroke-width="0"/><path d="m26.88,12.8c-.84-.69-1.22-1.89-2.41-2.22-.89-.24-1.31-1.19-2.19-1.44-.12-.08-.24-.17-.36-.25-.38-.22-.77-.44-1.15-.66,2.52.55,4.55,1.83,6.02,3.97.1.15.07.4.1.6Z" fill="#bdbfb8" stroke-width="0"/><path d="m100.17,99.45c-.32.63.47,1.69-.86,1.99-.31.07-.41.88.06,1.32-1.12,1.33-2.26,2.63-3.34,3.98-1.79,2.24-3.53,4.51-5.31,6.76-.34.43-.6,1.07-1.37.75-.18-.34-.07-.64.08-.96,1.27-2.79,3.15-5.14,5.28-7.32,1.26-.49,2.2-1.29,2.62-2.62.27-.85.83-1.54,1.21-2.34.09-.19.2-.36.33-.53.37-.44.66-.97,1.31-1.05h0Z" fill="#2079c4" stroke-width="0"/><path d="m94.96,106.04c-1.31,1.84-3.1,3.3-4.17,5.33-.5.95-.96,1.92-1.44,2.89-.64.05-.8.66-1.17,1.02-.64.72-1.34,1.34-2.2,1.8,1.23-2.17,2.72-4.14,4.39-5.99.37-.41.3-.74-.12-1.05.14-.32-.16-1.02.66-.78.62.21.8-.36,1.08-.67.9-1.01,1.73-2.07,2.65-3.06.29-.32.58-.91,1.19-.4-.04.54-.43.75-.86.92Z" fill="#4982c6" stroke-width="0"/><path d="m24.08,24.4c.59-.97.96-2.08,1.81-2.89-.51,4.18-2.68,7.5-5.56,10.38-2.01,2.01-3.73,4.26-5.59,6.39-.22.25-.23.43.15.51-.92.2-1.16,1.08-1.7,1.66-.33.36-.51.9-1.09.98.36-.82.72-1.65,1.09-2.47.05-.81.75-1.16,1.16-1.72,1.83-2.47,3.96-4.7,5.89-7.09.45-.55.8-1.17,1.19-1.76.93-.73,1.24-1.86,1.78-2.83.24-.42.28-.99.86-1.16Z" fill="#98b2bf" stroke-width="0"/><path d="m24.08,24.4c-.49.92-.96,1.85-1.47,2.77-.28.5-.51,1.07-1.17,1.22.64-1.2,1.29-2.4,1.93-3.6.26-.2.09-.69.49-.77.04,0,.14.25.22.39Z" fill="#dddde1" stroke-width="0"/><path d="m12.18,7.6c-.51.03-1.02.06-1.53.09.47-.42.98-.45,1.53-.09Z" fill="#c95c65" stroke-width="0"/><path d="m106.81,92.75c.12-.95.98-1.39,1.45-2.1.09,1.1-1.01,1.37-1.45,2.1Z" fill="#2c7bc7" stroke-width="0"/><path d="m17.24,36.43c2.6-3.16,5.76-5.8,8.35-8.97.1-.12.28-.17.43-.25-.46.85-1.57,1.33-1.43,2.52-2.55,3.17-5.65,5.83-8.24,8.96-.12.14-.35.19-.53.28.88-.62.84-1.75,1.43-2.53Z" fill="#47729d" stroke-width="0"/><path d="m22.28,9.14c.85.29,1.72.56,2.19,1.44.18.51.7.84.78,1.42-.28.07-.48.3-.75-.18-.57-1.01-1.31-1.93-2.22-2.68Z" fill="#3d474c" stroke-width="0"/><path d="m48.48,65.68c.02-.21,0-.42.06-.62.18-.69.29-1.53,1.11-1.69,1.63-.32,3.45-.62,3.81,1.69.12.74.15,1.86-.58,2.48-.6.51-1.36.52-2.22.36-.67-.13-.41-.6-.69-.81-.44-.13-.14-.56-.33-.79-.22-.29-.47-.52-.85-.57-.1-.01-.2-.03-.31-.05Z" fill="#3f342f" stroke-width="0"/><path d="m57.93,69.55c-.81.57-1.07,1.35-.83,2.31-.51,0-.29-.45-.5-.63-.5-.43-1.48-.59-1.28-1.46.14-.58.7-1.07,1.07-1.6.11-.01.22,0,.32.04.52.2,1.08.35,1.23,1,.02.11.02.22-.02.33Z" fill="#786f68" stroke-width="0"/><path d="m54.7,71.39c-.21-.37-1.33-.62-.9-1.15.41-.51.98.45,1.47.75.36.21.66.52.98.79.19.17.41.36.18.62-.23.26-.46.05-.65-.1-.33-.26-.64-.54-1.08-.91Z" fill="#392f24" stroke-width="0"/><path d="m45.67,71.77c-.29-.11-.81-.13-.42-.62.47-.59,1.23-.75,1.81-.41.59.34.57,1.08.29,1.71-.12.28-.35.34-.63.26-.31-.09-.25-.27-.11-.47-.03-.74-.5-.58-.94-.47Z" fill="#c7c4c0" stroke-width="0"/><path d="m66.83,82.97c-.04.19-.08.37-.12.56-.03.67-.42.87-1.02.81-.33-.33-.92-.64-.1-1.08.12-.17.27-.33.34-.52.11-.29.22-.57.6-.5.45.09.16.5.3.73Z" fill="#bfbdb4" stroke-width="0"/><path d="m68.81,68.72c1.2.53.32,1.1,0,1.62-.48.79-.88.31-1.27-.12.41-.51.62-1.19,1.27-1.5Z" fill="#b1aca2" stroke-width="0"/><path d="m71.62,72.2c-.18.43-.39,1-.95.51-.63-.56.3-.86.4-1.34.08-.39.63-.41.92-.1.48.5-.07.69-.38.94Z" fill="#8e857e" stroke-width="0"/><path d="m69.38,71.69c-.34-.45-.19-.9.11-1.26.27-.33.67-.56,1.1-.21.42.35.27.77.02,1.13-.29.43-.71.57-1.23.34Z" fill="#786f69" stroke-width="0"/><path d="m48.58,74.56c.09-.08.19-.17.28-.25.26-.24.42-.71.91-.38.22.14.5.41.22.57-.3.17-.21,1.17-.94.5-.25.3-.49.38-.7-.04.08-.13.15-.26.23-.39Z" fill="#766e68" stroke-width="0"/><path d="m59.47,63.77c-.03-.53.48-.72.72-1.07.24-.35.73-.51.94.16-.2,0-.52-.22-.45.27.19,1.31-.43,1.13-1.21.64Z" fill="#7a716a" stroke-width="0"/><path d="m67.57,68.77c-.27.27-.65.59-.81.22-.13-.3-.53-.72-.16-1.15.32-.38.71-.29,1-.04.36.31.2.68-.03.96Z" fill="#6c645d" stroke-width="0"/><path d="m56.62,68.38c-.07-.07-.15-.14-.22-.21-.04-.57.34-.62.73-.53.72.17,1.13.74,1.38,1.36.19.46-.29.45-.57.54-.08-.1-.16-.19-.24-.29.05-.79-.45-.91-1.07-.88Z" fill="#4f4542" stroke-width="0"/><path d="m61.53,63.29c.5.01.83.26.99.74-.54.13-.56.75-.9,1.04-.93-.59-.27-1.19-.09-1.78Z" fill="#5c514c" stroke-width="0"/><path d="m47.57,73.38c.39-.23.68-.99,1.23-.46.45.43-.19.81-.34,1.21-.53.03-.83-.22-.89-.75Z" fill="#8a837d" stroke-width="0"/><path d="m49.5,68.72c.82.7-.15,1.16.19,1.66.48.13.7-.46,1.42-.56-.62.69-1.25.8-1.89,1.14-.12-.85.19-1.44.28-2.24Z" fill="#675d59" stroke-width="0"/><path d="m59.07,78.33l-.25-.05c-.17-.05-.31-.14-.41-.28.63-.05,1.15-.36,1.65-.72-.09.59-.17,1.18-.26,1.76-.81.34-.49-.47-.72-.72Z" fill="#544b47" stroke-width="0"/><path d="m51.65,72.24c.74.04,1.18-.1,1.68-.23-.3.43-.28,1.13-.87,1.22-.37.06-.35-.54-.81-.99Z" fill="#574d49" stroke-width="0"/><path d="m55.47,73.71c.55.78-.16,1.15-.53,1.62-.8-.76-.7-1.08.53-1.62Z" fill="#c7c6c1" stroke-width="0"/><path d="m48.33,68.43c.11.58-.12,1.03-.56,1.33-.13.09-.37-.18-.37-.4,0-.6.29-.92.93-.93Z" fill="#6f6460" stroke-width="0"/><path d="m56.6,74.66c.55.79.08,1.19-.59,1.49-.62-.68-.55-.85.59-1.49Z" fill="#cbc8c4" stroke-width="0"/><path d="m45.67,71.77c.29-.26.5-.85.95-.61.41.22.25.71,0,1.08-.45.11-.72-.13-.94-.47Z" fill="#c0bdb5" stroke-width="0"/><path d="m57.26,63.62c.21.12.41.24.26.54-.35.34-.69.68-1.2,1.18.04-.91.26-1.44.94-1.72Z" fill="#665c59" stroke-width="0"/><path d="m48.48,65.68c.1-.1.21-.2.31-.3.43.25.59.93,1.26.8.23.33-.27.59-.08.92-.83-.12-1.36-.55-1.49-1.41Z" fill="#645d58" stroke-width="0"/><path d="m58.4,78c.14.09.28.19.41.28-.89.38-1.11-.56-1.67-.84.18-.35.34-.87.82-.68.61.24-.18.79.13,1.16.1.03.2.05.31.08Z" fill="#c7c0b7" stroke-width="0"/><path d="m55.47,73.71c-.43.46-1.4.74-.53,1.62-.55-.03-.94-.3-.78-.87.17-.6.55-1.07,1.31-.75Z" fill="#7e7770" stroke-width="0"/><path d="m63.65,64.63c.24.56.07.97-.47,1.21-.19.08-.34.04-.48-.21-.28-.52-.27-.93.21-1.3.22.16.34.58.74.29Z" fill="#5c554f" stroke-width="0"/><path d="m56.6,74.66c-.22.49-1.27.65-.59,1.49-.63.08-.76-.32-.63-.78.17-.56.53-.95,1.22-.72Z" fill="#736c68" stroke-width="0"/><path d="m58.09,77.93c-.57-.3.09-.66-.05-.99-.51-.21-.56.41-.89.51,0,0-.05-.07-.05-.07,0,0-.07-.05-.07-.05.33-.44.47-1.38,1.31-.63.48.43-.3.78-.24,1.22Z" fill="#675e59" stroke-width="0"/><path d="m53.6,62.5c-.44.24-.48-.01-.43-.36.09-.47.21-.92.8-.99.37-.14.52.07.59.39-.52.12-.74.54-.96.96Z" fill="#574a47" stroke-width="0"/><path d="m53.32,74.14c-.71-.85-.02-1.15.63-1.47-.22.48-.85.82-.63,1.47Z" fill="#68625f" stroke-width="0"/><path d="m46.35,66.83c-.32.54.71.76.29,1.29-.06.07-.41.03-.42,0-.1-.41-.49-.84.14-1.28Z" fill="#5b5251" stroke-width="0"/><path d="m44.34,70.61c.02-.57-.72-1.3.36-1.63-.29.33-.11.67-.03,1.02.06.26.24.67-.34.62Z" fill="#5b514b" stroke-width="0"/><path d="m68.81,68.72c-.42.5-.85,1-1.27,1.5.2-.69.29-1.47,1.27-1.5Z" fill="#393026" stroke-width="0"/><path d="m63.65,64.63c-.26.19-.1.8-.54.71-.66-.14.14-.71-.2-1,.17-.07.34-.13.51-.2h0c.15.13.27.27.23.49Z" fill="#c0bcb5" stroke-width="0"/><path d="m59.35,65.17c-.22.66-.65.98-1.05,1.34.07-.59.33-1.05,1.05-1.34Z" fill="#392625" stroke-width="0"/><path d="m63.79,60.89c.93-.6,1.14.49,1.78.68-.27.31-.51-.08-.72.08-.31.34-.12.96-.67,1.18-.37.03-.72.03-.84-.43-.48-.69-.3-1.19.46-1.51Z" fill="#c4c0ba" stroke-width="0"/><path d="m47.54,57.73c0-.11-.01-.22-.02-.33,1.41-1.67,2.82-3.34,4.22-5.01.06.05.12.1.18.14-.94,1.12-1.83,2.29-2.85,3.33-.58.58-.5,1.69-1.53,1.87Z" fill="#c4c0ba" stroke-width="0"/><path d="m59.83,60.05c-.49-.32.13-1.89-1.37-1.27.58-.32,1.15-.63,1.73-.95.42.62-.13,1.04-.08,1.52-.03.26.04.55-.28.69Z" fill="#70675f" stroke-width="0"/><path d="m61.31,59.06c.59-.19.73.36,1.24.68-.92.14-1.41.96-2.29.69.12-.63.65-.95,1.05-1.37Z" fill="#6d6358" stroke-width="0"/><path d="m63.79,60.89c-.43.42-.63.91-.46,1.51-.8.08-.67-.55-.65-.96.02-.39.24-.78.38-1.17.38.08.32.62.73.61Z" fill="#534840" stroke-width="0"/><path d="m54.62,58.68c-.34-.95-.79-.37-1.26-.02.15-.64.46-1.17.98-1.3.38-.1.66.4.81.81-.02.34-.16.55-.54.52Z" fill="#5a4d4a" stroke-width="0"/><path d="m64.18,62.83c.12-.45.16-.94.67-1.18,0,.2-.04.42.04.59.09.19.59-.29.5.15-.08.36-.49.66-.75.98-.15-.18-.3-.36-.45-.54Z" fill="#4d413b" stroke-width="0"/><path d="m56.48,58.97c.48.35.21.91.54,1.36-.6.19-.93-1.58-1.45-.09.05-.24.09-.47.14-.71-.02-.56.41-.51.76-.56Z" fill="#655a56" stroke-width="0"/><path d="m56.48,58.97c-.25.19-.51.38-.76.56-.21,0-.41,0-.62-.02-.18,0-.45.19-.51-.1-.02-.09.28-.25.43-.37.09-.5.49-.54.89-.58.19.17.39.33.58.5Z" fill="#8b847d" stroke-width="0"/><path d="m52.51,61.25c-.08-.29-.16-.58-.24-.86,0-.23.12-.37.36-.39.31-.07.69-.3.73.3,0,.57,0,1.15-.85.96Z" fill="#c4c0ba" stroke-width="0"/><path d="m58.61,58.2c-.22-.04-.46,0-.51-.09-.37-.6.45-.83.45-1.35,0-.25.2-.24.33-.08.49.61-.6.87-.26,1.52Z" fill="#756d66" stroke-width="0"/><path d="m58.07,56.23c-.54.32-1.07.64-1.61.97.3-.73.87-.99,1.61-.97Z" fill="#887e79" stroke-width="0"/><path d="m61.31,59.06c-.35.46-.7.91-1.05,1.37-.35.12-.48-.03-.43-.37.09-.23.19-.46.28-.69.64.86.71-.56,1.2-.3Z" fill="#c4c0ba" stroke-width="0"/><path d="m53.96,61.15c-.23.36-.4.77-.8.99-.19-.06-.39-.11-.58-.17.11-.59.52-.9,1.03-1.11.12.1.23.19.35.29Z" fill="#c4c0ba" stroke-width="0"/><path d="m56.82,55.26c-.2.38-.34.73-.56,1.02-.1.14-.36.16-.54.23.1-.36-.31-.67-.24-.88.11-.34.27.09.44.13.44.11.4-.52.91-.5Z" fill="#4a3b36" stroke-width="0"/><path d="m53.62,60.86c-.34.37-.69.74-1.03,1.11-.29-.21-.22-.46-.08-.72.6-.04.57-.64.85-.96.17.15.34.31.26.57Z" fill="#817971" stroke-width="0"/><path d="m52.63,59.99c-.12.13-.24.26-.36.39-.58-.12-.53.56-1.16.83.43-.67.67-1.22,1.07-1.61.29-.28.27.27.44.38Z" fill="#746e69" stroke-width="0"/><path d="m55.9,58.47c-.3.19-.59.38-.89.58-.13-.12-.27-.24-.4-.37.18-.17.36-.34.54-.52.33-.1.53.13.74.31Z" fill="#c4c0ba" stroke-width="0"/><path d="m59.07,78.33c.57-.09-.05,1.02.72.72.12-.02.25-.03.37-.06.32-.08.5-.96.92-.28.24.4.6,1.02.05,1.51-.48.43-.78-.05-1.06-.31-.47-.43-1.26-.68-1-1.58Z" fill="#c4c0ba" stroke-width="0"/><path d="m65.69,84.33c.44-.14.75-.46,1.02-.81.66.16,1.45-.2,2.09.6-1.11.11-2,1.2-3.11.21Z" fill="#c4c0ba" stroke-width="0"/><path d="m55.04,77.49c-.14.5-.64.69-.63,1.26.68-.11,1.1-1.17,1.96-.53.37.27.46.72.15.71-.72-.02-1.4.15-2.1.15-.23,0-.42-.27-.39-.57.05-.56.29-.95,1.01-1.02Z" fill="#918a85" stroke-width="0"/><path d="m51.07,75.61c-.28.32-.6.49-.89.18-.23-.24-.32-.64-.1-.92.27-.33.71-.27,1.02-.06.36.25.2.57-.03.79Z" fill="#807672" stroke-width="0"/><path d="m43.74,70.7c-.36-.06-.73-.03-.99-.19-.29-.18-.26-.53.07-.7.26-.13.61-.49.86-.11.15.23.05.63.06,1Z" fill="#c4c0ba" stroke-width="0"/><path d="m61.17,82.46c.16.73-.26,1.09-.89,1.21-.42.08-.61-.27-.55-.64.11-.7.46-1.16,1.28-1.01.06.24-.27.35-.18.6.11-.07.22-.11.34-.14Z" fill="#89857e" stroke-width="0"/><path d="m63.27,82.14c.35-.5.41-1.64,1.44-.7-.33.56-1.02.39-1.44.7Z" fill="#c4c0ba" stroke-width="0"/><path d="m59.12,81.2c.58.41.72.89.36,1.25-.34.34-.83.29-1.36-.36,1,.27,1.36.02,1-.9Z" fill="#867c7a" stroke-width="0"/><path d="m61.17,82.46c-.04.07-.08.15-.13.21-.2.25-.34.58-.7.65-.06.01-.21-.15-.22-.24-.05-.45.26-.66.61-.84.11-.06.19-.16.29-.24.36.04.03.33.16.45Z" fill="#c6c3be" stroke-width="0"/><path d="m53.45,77.56c.3-.38.63-.73.34-1.32.95.79.89,1-.34,1.32Z" fill="#85807c" stroke-width="0"/><path d="m65.31,82.37c-.12.24-.55.23-.48.65.05.31-.19.36-.39.22-.2-.13-.43-.31-.51-.52-.1-.27.19-.33.39-.34.33-.02.66,0,.99,0,0,0,0-.01,0-.01Z" fill="#8f8880" stroke-width="0"/><path d="m62.32,83.47c-.2.2-.44.21-.68.08-.22-.12-.28-.33-.14-.53.2-.26.48-.36.77-.14.18.14.16.37.06.59Z" fill="#97938d" stroke-width="0"/><path d="m56.65,80.91c-.73-.8-.56-1.37.69-1.88-.55.7-1.1,1.17-.69,1.88Z" fill="#786f6c" stroke-width="0"/><path d="m62.56,83.89c-.28.51-.55.99-.14,1.56-.9-.62-.53-1.12.14-1.56Z" fill="#695e5a" stroke-width="0"/><path d="m57.52,81.38c.48-.29.96-.58,1.71-1.04-.5.84-1.11.96-1.71,1.04Z" fill="#8d8983" stroke-width="0"/><path d="m100.17,99.44c-.39.45-.77.91-1.16,1.36-1.03.74-1.89,1.68-2.59,2.68-1.33,1.92-3.15,3.37-4.62,5.15-.13.16-.35.23-.57.23.52-1.34,1.52-2.36,2.34-3.49,1.25-1.72,2.64-3.32,3.04-5.51.06-.31.31-.72.66-.64.47.11.22.55.17.85-.06.37-.22.73.03,1.22.73-.51,1.17-1.27,1.73-1.89.37-.41.67-.7.97.04Z" fill="#4083ca" stroke-width="0"/><path d="m91.23,108.86c1.2-1.56,2.87-2.73,4-4.29.93-1.28,1.99-2.41,3.01-3.59.17-.2.36-.88.78-.17-.1.13-.2.26-.31.39-.54.88-1.08,1.75-1.54,2.68-.27.56-.7,1.04-1.39,1.15-1.2.62-1.76,1.85-2.64,2.77-.55.57-1.01,1.23-1.55,1.81-.6.65-.74.3-.68-.36.11-.13.22-.26.32-.39Z" fill="#6f92cb" stroke-width="0"/><path d="m18.04,41.83c-.57-.17-.28-1.1-1.01-1.14-.03,0-.09-.27-.08-.27.72-.28.87-1.31,1.77-1.35.21,1.03-.2,1.9-.67,2.77Z" fill="#4074b9" stroke-width="0"/><path d="m27.69,32.36c.26-1.5,1.21-2.55,2.22-3.8.29.74.04,1.11-.25,1.46-.47.94-.92,1.89-1.97,2.34Z" fill="#1d69b0" stroke-width="0"/><path d="m17.87,38.46c1.21-1.99,2.8-3.61,4.78-4.82-1.17,2.02-3.09,3.31-4.78,4.82Z" fill="#427fbf" stroke-width="0"/><path d="m95.78,105.03c1.19-1.11,1.85-2.63,2.92-3.84-.81,1.59-1.3,3.37-2.68,4.63-.33.3-.69.24-1.06.21.27-.33.55-.67.82-1Z" fill="#4083ca" stroke-width="0"/><path d="m50.82,66.46c-.97-.87-.42-1.46.37-2h-.02c1.16,1.15,1.15,1.22-.37,2h.02Z" fill="#b1ada7" stroke-width="0"/><path d="m51.78,67.31c.09-.13.18-.26.27-.4.19-.29-.14-.98.58-.86.47.08.33.49.24.81-.17.63-.52.81-1.09.42v.02Z" fill="#b9b6b0" stroke-width="0"/><path d="m50.15,64.83c-.27.17-.55.34-.86.04-.23-.22-.18-.43.05-.61.26-.21.57-.43.86-.12.17.18.13.46-.05.69Z" fill="#b7b3ac" stroke-width="0"/><path d="m51.19,64.46c-.16-.26-.63-.51-.25-.81.4-.33.92-.34,1.32.15-.22.49-.89.2-1.1.66,0,0,.02,0,.02,0Z" fill="#b5b2a8" stroke-width="0"/><path d="m51.78,67.28c-.28.34-.54.54-1,.18-.51-.41-.18-.68.05-1,0,0-.02,0-.02,0,.33.28.65.56.98.84,0,0,0-.02,0-.02Z" fill="#b4b0ac" stroke-width="0"/><path d="m52.98,65.14c-.16.27-.34.22-.52.08-.25-.2-.38-.45-.18-.74.13-.19.4-.2.57-.09.3.19.2.5.14.75Z" fill="#c1bfb5" stroke-width="0"/><path d="m50.05,66.17c-.59.44-.8.3-1.26-.8.68-.14.81.58,1.26.8Z" fill="#c9c5bd" stroke-width="0"/><path d="m56.54,70.26c-.2.23-.44.2-.66.03-.18-.14-.24-.37-.08-.55.19-.21.45-.26.67-.07.18.15.15.37.07.6Z" fill="#bcbab4" stroke-width="0"/><path d="m56.62,68.38c.8-.27,1.17.03,1.07.88-.03-.69-.84-.43-1.07-.88Z" fill="#aba49e" stroke-width="0"/><path d="m70.49,70.29c-.1.66-.32.95-.85,1.11-.02-.56.29-.8.85-1.11Z" fill="#cac7bf" stroke-width="0"/></g></svg>