<?xml version="1.0" encoding="UTF-8"?><svg id="Capa_2" xmlns="http://www.w3.org/2000/svg" xmlns:xlink="http://www.w3.org/1999/xlink" viewBox="0 0 63.11 111.03"><defs><linearGradient id="Degradado_sin_nombre_110" x1="27.36" y1="45.96" x2="28.49" y2="59.74" gradientUnits="userSpaceOnUse"><stop offset="0" stop-color="#f8ecbc"/><stop offset="1" stop-color="#f2c97e"/></linearGradient><linearGradient id="Degradado_sin_nombre_108" x1="39.59" y1="30.66" x2="39.41" y2="41.76" gradientUnits="userSpaceOnUse"><stop offset="0" stop-color="#fbf6e1"/><stop offset="1" stop-color="#f6ecbb"/></linearGradient><linearGradient id="Degradado_sin_nombre_107" x1="7.16" y1="82.46" x2="16.4" y2="95.59" gradientUnits="userSpaceOnUse"><stop offset="0" stop-color="#f6ede4"/><stop offset="1" stop-color="#c9b9ab"/></linearGradient><linearGradient id="Degradado_sin_nombre_106" x1="18.66" y1="83.85" x2="29.65" y2="102.55" gradientUnits="userSpaceOnUse"><stop offset="0" stop-color="#e4d6cd"/><stop offset="1" stop-color="#978a81"/></linearGradient></defs><g id="Capa_1-2"><path d="m62.6,4.12l-.34.77.17,76c-.77,1.21.25,3.05-.51,4.87-5.29,4.42-10.25,9.22-15.37,13.83-1.23,1.1-2.37,2.33-3.59,3.42-.13.12-.38.22-.51.34-1.31,1.17-2.58,2.46-3.93,3.59-.4.33-.81.71-1.2,1.02-1.21.98-2.7,1.73-3.76,2.9l-3.5.17c-5.77-1.13-19.8-1.65-23.82-2.56-.65-.15-.92-.21-1.54-.51,6.9.28,13.85,1.62,20.75,1.71,4.81.06,5.08-.19,8.88-3.07,3.41-2.58,23.38-21.34,24.68-24.08,1.07,0,1.63-1.73,2.56-2.48V4.38l-2.9-4.01c1.18.93,3.27,2.41,3.93,3.76Z" fill="#353c42" stroke-width="0"/><path d="m58.67.36l2.9,4.01v75.66c-.93.75-1.49,2.47-2.56,2.48.26-.55.31-1.43.68-1.96-.37-10.34.48-72.42-.17-76.17-.09-.51-1.3-2.6-1.71-2.99.45-.64.23-1.64.85-1.02Z" fill="#f3f0ed" stroke-width="0"/><path d="m63.11,10.27v74.12l-1.2,1.37c.76-1.81-.26-3.66.51-4.87l-.17-76,.34-.77c.16.32.29.66.51.94v5.21Z" fill="#0b0b0a" stroke-width="0"/><path d="m54.91.02c.87.08,2.28.77,2.9,1.37.41.39,1.62,2.48,1.71,2.99.65,3.75-.2,65.83.17,76.17-.37.54-.42,1.42-.68,1.96-1.3,2.74-21.27,21.5-24.68,24.08-3.8,2.88-4.08,3.14-8.88,3.07-6.9-.09-13.85-1.43-20.75-1.71-.39-.2-1.88-1.36-2.22-1.71-.11-.11-1.04-1.45-1.37-1.88-.23-.85-.91-1.97-1.02-2.82-.34-2.5.38-20.31.51-25.02.25-8.63.74-17.25,1.02-25.87.18-5.53-.11-24.87,1.02-28.35.56-1.72,7.31-10.1,8.8-10.84,4.42-1.18,8.83-2.37,13.24-3.59C33.99,5.32,43.41,3.17,52.61.19c.76-.12,1.53-.25,2.31-.17Z" fill="#0b0b0a" stroke-width="0"/><path d="m59.1,9.59q.13,35.48.26,70.96c-1.33,4.32-1.37,1.04-1.54-3.42-.74-19.39.44-46.08.17-66.26l1.11-1.28Z" fill="#212220" stroke-width="0"/><path d="m53.72,8.9c.12.29.66.78.85,1.28-.11,2.97.73,6.81-2.13,8.8-.93.65-17.7,4.99-18.96,5.12-.52.05-.4-.17-.43-.17-.25-1.71-.24-6.03,0-7.51.04-.27.11-.59.17-.85.19-.79,1.11-2.32,1.79-2.73.76-.46,16.36-4.44,17.25-4.44.37,0,1.03.48,1.45.51Z" fill="#f3f0ed" stroke-width="0"/><path d="m52.52,6.85c-5.61,1.89-11.69,2.48-17.33,4.44-1.11,1.69-3.06,1.67-1.96,4.27-.06.26-.13.59-.17.85-.9-.64-1.88-1.3-2.39-2.22.17-.63.51-1.79.85-2.31,2-3.01,15.96-5.17,19.9-6.58.57.39.78,1.11,1.11,1.54Z" fill="#212220" stroke-width="0"/><path d="m53.72,8.9c-.42-.03-1.08-.51-1.45-.51-.89,0-16.49,3.98-17.25,4.44-.68.42-1.6,1.94-1.79,2.73-1.1-2.6.86-2.58,1.96-4.27,5.65-1.96,11.73-2.55,17.33-4.44.17.23.99,1.04,1.02,1.11.02.04-.22.02.17.94Z" fill="#212220" stroke-width="0"/><path d="m33.05,16.42c-.24,1.48-.25,5.8,0,7.51-.32,0-.33.37-1.2-.17.74-1-.83-5.96-1.54-7.51.08-.73.15-1.34.34-2.05.51.93,1.49,1.58,2.39,2.22Z" fill="#4b5961" stroke-width="0"/><path d="m31.86,23.76c-2.04-1.28-1.76-5.38-1.54-7.51.71,1.55,2.27,6.51,1.54,7.51Z" fill="#616969" stroke-width="0"/><path d="m29.55,44.08c7.11-.26,3.77,7.95,4.53,13.06-1.31,5.4-11.46,7.07-12.3,1.54-.08-.52-.08-9.09,0-9.56.55-3.4,4.77-4.93,7.77-5.04Z" fill="url(#Degradado_sin_nombre_110)" stroke-width="0"/><path d="m45.52,56.89c.67-.41.14-2.38,0-4.27,0-.11,0-.23,0-.34-.03-.43-.14-.59-.17-.85-.01-.13.11-.61-.17-2.22-.02-.12.26-.24.17-.6-.38-.59-8.35,1.4-9.73,1.11.04-1.16-.3-4.28.6-4.95.59-.44,10.84-1.8,12.64-2.05q.04,6.62.09,13.24c-.18.45-2.84.81-3.42.94Z" fill="#f6efc3" stroke-width="0"/><path d="m19.9,58.77c-.01-.18.33-2.14.17-3.59l-.09-.34c-2.53.47-5.25.62-7.77,1.2-.62-3.6,1.45-2.33,5.38-3.42,5.63-1.55-1.52-.64-6.23.68.03-1.64-.16-3.33.17-4.95,1.59-.37,7.92-2.17,8.71-.6.25.5.51,10.07-.34,11.02Z" fill="#f3d99b" stroke-width="0"/><path d="m45.52,52.28c0,.11,0,.23,0,.34-1.29-.17-.59,2.78-.51,3.84.01.16-.78,0,.17.43-11.35,2.47-9.4,2.01-9.56-3.76.61-.13.18.69.43.85.4.27,8.2-2.02,9.48-1.71Z" fill="#f3d99b" stroke-width="0"/><path d="m11.53,48.35c-.33,1.62-.14,3.31-.17,4.95-.02,1.02.03,2.05,0,3.07-.04,1.58-.32,3.19-.17,4.78-.9.08-1.99.78-2.73-.09v-11.95c.19-.45,2.44-.62,3.07-.77Z" fill="#f3d99b" stroke-width="0"/><path d="m45.18,49.21c.29,1.61.16,2.09.17,2.22q-4.87.77-9.73,1.54c-.02-.85-.02-1.71,0-2.56.52-.12.25.48.43.51.68.12,7.58-1.73,9.14-1.71Z" fill="#f3d99b" stroke-width="0"/><path d="m20.07,55.18l-7.43,1.37c-.73.54.21,3.65-.43,4.61-.33.04-.69-.03-1.02,0-.15-1.6.13-3.2.17-4.78.72-.1.81-.33.85-.34,2.52-.57,5.24-.73,7.77-1.2l.09.34Z" fill="#e4b365" stroke-width="0"/><path d="m45.18,49.21c-1.56-.02-8.45,1.83-9.14,1.71-.17-.03.09-.63-.43-.51,0-.23,0-.46,0-.68,1.38.29,9.36-1.7,9.73-1.11.09.36-.19.48-.17.6Z" fill="#f3d99b" stroke-width="0"/><path d="m45.35,51.43c.03.27.14.43.17.85-1.28-.31-9.08,1.97-9.48,1.71-.25-.16.18-.99-.43-.85,0-.06,0-.11,0-.17q4.87-.77,9.73-1.54Z" fill="#e4b365" stroke-width="0"/><path d="m45.52,52.62c.14,1.89.67,3.86,0,4.27-.1.02-.24-.02-.34,0-.95-.44-.16-.27-.17-.43-.07-1.06-.78-4.02.51-3.84Z" fill="#f3d99b" stroke-width="0"/><path d="m28.53,31.1c.21.05.29.06.43.26q-.13,5.76-.26,11.53c-4,.59-5.46.66-7.86,4.1-1.97-3.36-7.09-.35-10.25-.34-3.99.02-1.99-8.2,2.22-11.27,2.53-1.85,14.91-4.44,15.71-4.27Z" fill="#f6efc3" stroke-width="0"/><path d="m18.45,38.28c.5-.04,1.61-.1,1.62.6.02,1.09-3.52.71-4.18.77-.22.02-.94,1.05-1.28.43-.52-.95,3.16-1.73,3.84-1.79Z" fill="#f3d99b" stroke-width="0"/><path d="m12.64,42.38c-.17.91,3.52.12,1.2,1.54-.13.08-1.2-.65-1.62,1.96-2.43,1.33-.05-2.55.43-3.5Z" fill="#f3d99b" stroke-width="0"/><path d="m40.31,29.06c6.17-.06,9.48,5.28,8.62,11.02-1.93,1.06-11.5,2.34-12.04,2.65-.32.18-1.24,2.21-1.54,2.73-2.45-3.65-5.13-2.41-5.38-2.99v-11.44c.23-.47,9.81-1.96,10.33-1.96Z" fill="url(#Degradado_sin_nombre_108)" stroke-width="0"/><path d="m42.44,34.52c-1.02.75-5.87.81-5.81,2.31.1,2.26,5.83-.67,7-.6.03.05.54.21.68.94-1.78.61-6.63,2.79-7.86.85-2.22-3.51,2.45-3.21,5.55-4.18.04.01.27.55.43.68Z" fill="#f6efc3" stroke-width="0"/><path d="m42.44,34.52c.85.71.74.86,1.2,1.71-1.18-.07-6.9,2.86-7,.6-.07-1.49,4.79-1.56,5.81-2.31Z" fill="#f6efc3" stroke-width="0"/><path d="m44.49,69.87c2.57-2.68-.57-.03-1.45.51-1.41.87-3.81,1.7-2.82,1.71-3.44,1.1-6.99,1.36-10.59,1.62v-10.25c3-.65,4.16-1.95,5.38-4.7,1.69,2.93,9.23-.15,13.75.26-.08,3.95-.64,8.51-4.27,10.84Z" fill="#e4b365" stroke-width="0"/><path d="m44.49,69.87c-1.34,1.39-2.53,1.67-4.27,2.22-.99,0,1.41-.83,2.82-1.71.88-.55,4.02-3.19,1.45-.51Z" fill="#da8639" stroke-width="0"/><path d="m43.98,64.75l-1.37,2.9c-9.51.38-5.52-1.17,1.37-2.9Z" fill="#e4b365" stroke-width="0"/><path d="m43.98,64.75c-6.89,1.73-10.87,3.28-1.37,2.9l-.09.34h-5.64c-1.83-1.71,6.88-3.63,7.09-3.24Z" fill="#8a5011" stroke-width="0"/><path d="m20.07,55.18c.16,1.45-.18,3.41-.17,3.59.15,1.94,1.94,4.76,3.93,5.12.33,1.29-4.25-.22-8.11,0-1.75.1-3.45.78-5.12.68-.44,1.05-.89,2.42-2.13,2.73-.11-.66-.45-3.19.09-3.59,1.28-.51,10.75-1.47,11.02-1.96,1.51-2.79-4.31-.94-7.34-.6.64-.96-.3-4.07.43-4.61l7.43-1.37Z" fill="#e4b365" stroke-width="0"/><path d="m8.46,67.31c1.25-.31,1.69-1.68,2.13-2.73,1.67.1,3.37-.58,5.12-.68,3.86-.22,8.44,1.29,8.11,0,1.44.26,4-.44,4.1-.26l-.09,10.16c-6.52,1.4-17.89,2.33-19.38-6.49Z" fill="#e4b365" stroke-width="0"/><path d="m18.88,68.85c.08.1.84.6.6.85-4.96,1.08-6.94.89-.68-.17.35-.25.15-.27.09-.68Z" fill="#8a5011" stroke-width="0"/><path d="m18.88,68.85c-1.44-1.82-1.98-1.11-5.38-.51l-.09-.26c1.77-.17,5.06-1.79,5.47.77Z" fill="#8a5011" stroke-width="0"/><path d="m12.22,56.04s-.13.24-.85.34c.03-1.02-.02-2.05,0-3.07,4.72-1.32,11.87-2.23,6.23-.68-3.93,1.08-6-.19-5.38,3.42Z" fill="#e4b365" stroke-width="0"/><path d="m18.02,85.58c-.41.66-1.1,2.19-1.2,2.31-.7.89-3.68,2.85-4.78,3.93l3.42,3.42c-1.31,1-6.34,9.01-6.83,9.31-1.01.62-3.24-1.07-3.76-1.96-1.26-2.17-.46-6.58-.68-9.22.36-.82,5.4.61,4.78-1.2-.2-.58-3.94-.03-4.61-.34.15-5.31-1.18-9.79,4.35-12.55h12.64c.31.17-3.06,5.89-3.33,6.32Z" fill="url(#Degradado_sin_nombre_107)" stroke-width="0"/><path d="m16.31,105.39c-2.26-.17-4.59-.17-6.83-.51,1.62-3.19,4.25-5.82,6.15-8.88,1.59.49,4.54-.49,6.66-.68-2.11,3.26-3.91,6.78-5.98,10.08Z" fill="#b4a79f" stroke-width="0"/><path d="m18.36,86.44c-.33.54-.73,1.06-.85,1.71-.41.97-.77,1.1-1.37,1.71-.64.65-3.05,2.28-3.07,2.48l2.65,2.82c.57.19,3.69-1.5,4.7-1.71,2.8-.58-3.59,1.45-4.78,2.56-1.9,3.06-4.53,5.69-6.15,8.88-.06,0,.01.55-.85-.34.49-.3,5.52-8.31,6.83-9.31l-3.42-3.42c1.1-1.07,4.08-3.04,4.78-3.93.09-.12.78-1.64,1.2-2.31.4.5-.8,1.21.34.85Z" fill="#211811" stroke-width="0"/><path d="m17,105.39c.72-1.79,6.61-10.83,6.66-11.61.02-.24.03-.45-.09-.68-.18-.35-5.35-4.18-6.06-4.95.12-.64.52-1.17.85-1.71.55-.9,3.79-7.04,4.18-7.17,9.99-.46,11,3.07,10.5,12.21-.28.39-5.74-.62-4.44,1.2.25.34,4-.26,4.27.34-.23,4.09,1.18,9.58-2.99,12.21-2.79,1.76-9.41.42-12.89.17Z" fill="url(#Degradado_sin_nombre_106)" stroke-width="0"/><path d="m23.66,93.78c-.05.79-5.94,9.82-6.66,11.61-.03,0-.01.05-.68,0,2.07-3.3,3.86-6.82,5.98-10.08.2-.3,1.05-1.45,1.37-1.54Z" fill="#211811" stroke-width="0"/><path d="m23.66,93.78c-.31.09-1.17,1.23-1.37,1.54-2.12.19-5.07,1.17-6.66.68,1.19-1.11,7.59-3.15,4.78-2.56l-4.27-3.59c.6-.61.96-.74,1.37-1.71.71.77,5.89,4.6,6.06,4.95.12.23.1.44.09.68Z" fill="#a6a7a6" stroke-width="0"/><path d="m20.41,93.44c-1.01.21-4.12,1.9-4.7,1.71l-2.65-2.82c.03-.2,2.44-1.82,3.07-2.48l4.27,3.59Z" fill="#d4c6bb" stroke-width="0"/></g></svg>