<?xml version="1.0" encoding="UTF-8"?><svg id="Capa_2" xmlns="http://www.w3.org/2000/svg" xmlns:xlink="http://www.w3.org/1999/xlink" viewBox="0 0 76.14 93.11"><defs><linearGradient id="Degradado_sin_nombre_83" x1="1.04" y1="37.54" x2="68.88" y2="67.93" gradientTransform="translate(17.92 -10.26) rotate(19.82)" gradientUnits="userSpaceOnUse"><stop offset="0" stop-color="#eeecec"/><stop offset=".5" stop-color="#b5b5b5"/><stop offset="1" stop-color="#9a9899"/></linearGradient><linearGradient id="Degradado_sin_nombre_84" x1="55.46" y1="20.55" x2="66.9" y2="31.19" gradientTransform="translate(17.92 -10.26) rotate(19.82)" gradientUnits="userSpaceOnUse"><stop offset="0" stop-color="#5f5d60"/><stop offset="1" stop-color="#343537"/></linearGradient><linearGradient id="Degradado_sin_nombre_86" x1="24.31" y1="22.53" x2="48.81" y2="30.94" gradientTransform="translate(17.92 -10.26) rotate(19.82)" gradientUnits="userSpaceOnUse"><stop offset="0" stop-color="#8f8e8d"/><stop offset="1" stop-color="#757575"/></linearGradient><linearGradient id="Degradado_sin_nombre_89" x1="39.83" y1="37.2" x2="40.82" y2="42.6" gradientTransform="translate(17.92 -10.26) rotate(19.82)" gradientUnits="userSpaceOnUse"><stop offset="0" stop-color="#f3d1a3"/><stop offset="1" stop-color="#e2aa6b"/></linearGradient><linearGradient id="Degradado_sin_nombre_88" x1="35.85" y1="44.23" x2="45.39" y2="56.78" gradientTransform="translate(17.92 -10.26) rotate(19.82)" gradientUnits="userSpaceOnUse"><stop offset="0" stop-color="#e3934e"/><stop offset="1" stop-color="#bb702f"/></linearGradient><linearGradient id="Degradado_sin_nombre_90" x1="39.49" y1="42.73" x2="41.93" y2="49.63" gradientTransform="translate(17.92 -10.26) rotate(19.82)" gradientUnits="userSpaceOnUse"><stop offset="0" stop-color="#f2b174"/><stop offset="1" stop-color="#d38643"/></linearGradient><linearGradient id="Degradado_sin_nombre_91" x1="30.53" y1="55.76" x2="32.85" y2="60.1" gradientTransform="translate(17.92 -10.26) rotate(19.82)" gradientUnits="userSpaceOnUse"><stop offset="0" stop-color="#d4843e"/><stop offset="1" stop-color="#b96b2d"/></linearGradient><linearGradient id="Degradado_sin_nombre_87" x1="52.89" y1="44.47" x2="65.46" y2="49.02" gradientTransform="translate(17.92 -10.26) rotate(19.82)" gradientUnits="userSpaceOnUse"><stop offset="0" stop-color="#b4733f"/><stop offset="1" stop-color="#482513"/></linearGradient><linearGradient id="Degradado_sin_nombre_85" x1="52.14" y1="67.6" x2="61.16" y2="71.2" gradientTransform="translate(17.92 -10.26) rotate(19.82)" gradientUnits="userSpaceOnUse"><stop offset="0" stop-color="#67240d"/><stop offset="1" stop-color="#431c10"/></linearGradient></defs><g id="Capa_13"><path d="m75.96,23.06c.02.48.19.7.18.74-.11.71-3.98,10.99-4.8,13.31-5.99,17.04-12.18,34.02-18.12,51.08-.25.74-.73,1.34-1.16,1.98-.12.17-.18.3-.32.48-.26.34-.52.75-.83,1.05-.04.04-.79.53-1,.69-.45.33-.43.42-.46.43-.13.08-.69.2-.85.29-1.02-.69-2.65.47-3.78-.31,1.25-.2,3.45-1.45,4.42-2.3l1.68-.29c-.33-.53.86-.59.91-.65.32-.39.05-.97.07-1.02,8.19-21.53,15.73-43.32,23.44-65.03l.49-.12-.61-1.64.3-.64c.17.63.4,1.29.42,1.95Z" fill="#32302f" stroke-width="0"/><path d="m40.76,5.28c-.33-.03-.79.38-1.08.51-1.25.54-.94.66-1,.69-1.88.9-9.33,4.13-10.06,5.5q-.33-.34-.65-.68c.08-.17-.05-.53.23-1.04,1.44-2.63,10.4-5.76,10.66-6.33.04-.08.05-.15.04-.21-.04-.27-.27-.4-.36-.57-.21-.39.25-1.25.62-1.28.35-.03.86.68,1.61,3.42Z" fill="#32302f" stroke-width="0"/><path d="m75.23,21.75c-7.17,19.96-14.47,39.88-21.71,59.81-1.73.71-11.59,5.35-12.44,5.24l-28.56-10.44c-.34-1.03-3.37-5.81-3.37-6.23,0-.22.21-.19.34-.1.03.03.09.02.13.05,1.62,2.24,3.04,6.27,4.73,5.15,4.68,1.95,9.49,3.58,14.26,5.29.75.27,1.5.55,2.25.81,3.61,1.27,7.19,2.61,10.79,3.89.55-.05.75-.31.79-.31,1.56-.33,7.61-3.35,9.88-4.15l.12-.33c.35-.92.64-1.87,1-2.78.67.72-1.58,2.7.13,2.96q5.61-15.56,11.22-31.12l-1.08-.32c2.69-7.53,6.56-17.35,8.83-24.5.09-.27.21-.53.29-.79.89-3.01.17-1.69-.05-3.61-.11-.97.29-2.07.12-3.25,1.48.97,1.77,3.18,2.33,4.73Z" fill="#d9d8d8" stroke-width="0"/><path d="m72.9,17.02c.17,1.17-.23,2.28-.12,3.25-.9-.99-.95-1.11-2.1-1.65-2.81-1.33-9.53-3.2-13.05-4.7-.59-.1-1.47-.24-2.02-.43-.22-.08-.44-.16-.66-.24-3.13-1.1-6.36-2.1-9.45-3.26-1.84-.69-4.03-1.42-5.73-2.37-.04-.02-.09-.02-.13-.05.06-.62,1.14-1.86.04-1.78.29-.12.75-.54,1.08-.51,4.95,2.12,29.94,10.3,32.13,11.73Z" fill="#f9f8f8" stroke-width="0"/><path d="m39.15,1.86c-1.4,1.64,0,1.43-.29,2.06-.26.57-9.22,3.7-10.66,6.33-.28.51-.15.87-.23,1.04-3.02,6.69-8.07,21.89-10.87,29.75-3.05,8.55-6.18,17.08-9.24,25.63,0,.29.22.57.23.61.12.65.54,1.14.89,1.67.06.09.4.99.51,1.08-.13-.08-.34-.12-.34.1,0,.42,3.03,5.2,3.37,6.23q14.28,5.22,28.56,10.44c.85.11,10.71-4.54,12.44-5.24-1.21,3.34-1.43,6.46-4.27,8.94-.97.84-3.17,2.1-4.42,2.3-.4.06-.77.18-1.18.17q-20.33-7.63-40.67-15.26c-1.04-2.73-2.66-5.35-2.98-8.33.11-.07.35-.14.36-.17,1.14-3.58,2.57-7.12,3.84-10.66C10.56,40.86,17.18,23.27,23.46,5.55c1.2-2.09,7.47-4.24,9.71-5.55.91.15,1.96.37,3.1.73,1.11.35,2.07.74,2.89,1.13Z" fill="url(#Degradado_sin_nombre_83)" stroke-width="0"/><path d="m49.25,90.5c2.84-2.48,3.06-5.6,4.27-8.94,7.24-19.94,14.54-39.85,21.71-59.81l.61,1.64-.49.12c-7.71,21.71-15.25,43.49-23.44,65.03-.02.05.25.63-.07,1.02-.05.06-1.23.12-.91.65l-1.68.29Z" fill="#454344" stroke-width="0"/><path d="m28.62,11.98c-.85,1.58-9.22,25.13-10.87,29.75l-.65-.68c2.81-7.86,7.86-23.06,10.87-29.75l.65.68Z" fill="#87858d" stroke-width="0"/><path d="m39.64,7.57c-.24-.15-.28.34-.95-1.09.05-.03-.26-.15,1-.69,1.1-.08.02,1.16-.04,1.78Z" fill="#687075" stroke-width="0"/><path d="m53.44,77.64c1.99-5.05,3.68-10.26,5.54-15.36.67-1.85,1.33-3.71,2.01-5.56.9-2.47,1.79-4.94,2.67-7.42.02-.04.03-.09.05-.13l1.08.32q-5.61,15.56-11.22,31.12c-1.7-.27.54-2.25-.13-2.96Z" fill="#d9d8d8" stroke-width="0"/><path d="m11.19,69.89c.61.73,1.95,4.22,3.3,5.38-.05-.01-.09-.04-.13-.05-1.69,1.12-3.1-2.91-4.73-5.15,1.14.82,1.03,0,1.07-.06.08-.13.22-.12.23-.22.1.05.24.07.26.1Z" fill="#a5a5a5" stroke-width="0"/><path d="m10.69,70.02c-.04.06.07.88-1.07.06-.04-.03-.1-.02-.13-.05-.11-.09-.45-.99-.51-1.08l1.71,1.07Z" fill="#a5a5a5" stroke-width="0"/><path d="m17.75,41.73c-.24.66-.14.8-.15.84-2.84,7.95-5.86,15.85-8.46,23.89l-1.04.82s-.24-.32-.23-.61c3.06-8.55,6.19-17.07,9.24-25.63l.65.68Z" fill="#5d5a5d" stroke-width="0"/><path d="m10.24,68.36c.08.41.25.51.25.54.06.27.21.2.22.23.05.18.22.5.21.67,0,.1-.14.08-.23.22l-1.71-1.07c-.35-.53-.77-1.02-.89-1.67l1.04-.82,1.11,1.9Z" fill="#807771" stroke-width="0"/><path d="m72.53,24.67c-2.27,7.15-6.14,16.98-8.83,24.5-.02.04-.03.09-.05.13-.19-.08-.22.2-.32.48-1.61-4.33-2.72-8.81-3.73-13.32-.49-2.19.07-5.05-3.4-6.76q7.23-3.45,14.46-6.91c.49.72,1.04,1.61,1.87,1.87Z" fill="url(#Degradado_sin_nombre_84)" stroke-width="0"/><path d="m70.68,18.61q-8.39,3.97-16.78,7.94c.45,1.81.79,1.34.83,1.42.02.05.25.92.24.99,0,.07-.07.18-.1.26-1.66-.7-15.38-5.67-16.22-5.85-1.57-.33-3.96.44-5.11,1.52-2.29,2.14-4.73,12.03-6.34,15.52-1.66.33-3.35.44-5.03.66.05-.61-.37-.53-.36-.65.02-.89,5.38-15.31,6.02-16.69.03-.06-.16-.41-.15-.43.02-.04.03-.09.05-.13l.36-.17c5.09-2.24,10.31-4.37,15.05-7.29.59-.37.73-.75.91-.87.82-.54,1.69-1,2.55-1.47l.51.03c3.86.96,7.32,3.88,8.34,1.36.15-.36.08-.9.16-1.29.54.19,1.43.33,2.02.43,3.51,1.5,10.24,3.37,13.05,4.7Z" fill="url(#Degradado_sin_nombre_86)" stroke-width="0"/><path d="m45.5,9.98c-.55.44-3.53,1.4-3.76,1.71-.32.42-.11.74-.13.78-.18.36,0,.52-.08.64-.18.27-5.14,2.36-5.92,2.73-.9.42-1.8.85-2.7,1.27-.87.4-1.78.75-2.65,1.14.41-1.93,2.06-4.66,1.75-6.1,2.36-1.51,5.77-2.68,7.77-4.53,1.7.95,3.9,1.68,5.73,2.37Z" fill="#a5a5a5" stroke-width="0"/><path d="m22.17,41.08c-.41.05-1.07.42-1.59.25q3.12-8.86,6.24-17.73c.26-.13.21-.21.23-.22l.63-.07s.17.37.15.43c-.63,1.38-5.99,15.8-6.02,16.69,0,.12.42.05.36.65Z" fill="#5d5a5d" stroke-width="0"/><path d="m30.25,18.25c-.61.27-1.19.69-1.83.91l2.29-6.36c.44-.2.88-.4,1.29-.66.31,1.44-1.34,4.17-1.75,6.1Z" fill="#5c6162" stroke-width="0"/><path d="m39.64,7.57s.09.03.13.05c-2,1.85-5.4,3.02-7.77,4.53-.41.26-.85.46-1.29.66l-2.29,6.36c.64-.22,1.22-.64,1.83-.91.87-.39,1.79-.74,2.65-1.14l.24.16c-1.2.96-3.58,1.79-4,3.2-1.13.46-1.98.9-2.87,1.73-1.77,1.65-2.25,2.75.55,1.39q-3.12,8.86-6.24,17.73c.52.17,1.17-.2,1.59-.25,1.67-.21,3.37-.32,5.03-.66,1.61-3.49,4.05-13.38,6.34-15.52,1.16-1.08,3.54-1.86,5.11-1.52.84.18,14.57,5.15,16.22,5.85.42.18.92.28,1.32.48,3.46,1.71,2.91,4.57,3.4,6.76-3.1,8.53-6.13,17.1-9.24,25.63-.34.92-.61,2.78-1,3.61-.02.03-.12-.08-.5.57-.79,1.33-2.68,3.1-4.22,3.42-.78.16-2.27-.04-3.07-.21-3.9-1.68-14.6-4.89-17.02-6.13-2.93-1.51-2.82-3.72-3.38-4.96.06-.65.09-1.22.22-1.86.72-3.39,4.22-10.79,5.42-15.03l-.13-.27c-.97.2-1.95.32-2.93.44-1.2.14-1.23.27-1.3.28-.21.03-.41.05-.63.07-.1.01-.2.02-.31.04-.34.04-.72.02-1.07.06-.31.04-.63.07-.94.11-.21.03-.42.05-.63.07-.44.06-.9.03-1.3.28.01-.04-.08-.18.15-.84,1.65-4.62,10.03-28.17,10.87-29.75.73-1.37,8.19-4.6,10.06-5.5.68,1.44.71.94.95,1.09Z" fill="#20201f" stroke-width="0"/><path d="m34.09,28.17c.58.02,5.68,2.18,7.15,2.58l-2.06,5.92c-.27.28-7.04-2.23-7.37-2.58-.75-.82,1.41-5.95,2.28-5.91Z" fill="#e9d4aa" stroke-width="0"/><path d="m42.16,31.08l7.55,2.72-2.06,5.92-7.69-2.55,2.2-6.09Z" fill="#e9d4aa" stroke-width="0"/><path d="m53.9,45.64c-.56-.08.23-.94.05-1.18-2.44-.36-4.71-1.88-7.07-2.4-.03,0-.48.23-.67.21-1.06-.13-2.59-.84.04.31.38.38.17.49.19.52-1.12-.85-7.35-3.21-8.33-2.85-.22.08-.89.73-1,.91-1.79,3.04.89,4.68-7.73,1.1l2.67-7.19,22.51,8.12c.29.27-.42,1.7-.66,2.46Z" fill="url(#Degradado_sin_nombre_89)" stroke-width="0"/><path d="m53.9,45.64c-.2.63-1.6,4.8-1.97,4.83-1.11-.55-5.22-1.63-5.78-2.23-1.04-1.13,1.53-3.42.28-5.14-.02-.02.19-.14-.19-.52-2.63-1.15-1.1-.45-.04-.31.2.02.64-.21.67-.21,2.36.52,4.63,2.04,7.07,2.4.18.24-.61,1.1-.05,1.18Z" fill="#fa9d44" stroke-width="0"/><path d="m51.47,52.39c-.42,1.68-1.61,4.08-2.12,5.89-7.56-2.2-15.05-5.35-22.59-7.92q1.11-2.97,2.21-5.94c8.56,2.88,5.33,2.01,4.73,4.92-.06.29.13,1.74.79,2.16.33.21,6.86,2.68,7.24,2.76,3.71.79,2.4-3.36,3.53-3.97.51-.28,4.9,1.96,6.21,2.09Z" fill="url(#Degradado_sin_nombre_88)" stroke-width="0"/><path d="m51.47,52.39c-1.31-.13-5.69-2.36-6.21-2.09-1.13.61.19,4.76-3.53,3.97-.38-.08-6.91-2.55-7.24-2.76-.66-.42-.85-1.86-.79-2.16.6-2.91,3.82-2.04-4.73-4.92q-1.11,2.97-2.21,5.94l-.19-.29,2.66-6.75,5.69,2.05c.89,1.6-1.37,3.49-.43,4.93.55.84,7.41,3.34,8.43,3.19,1.75-.26,1.29-3.54,3.26-4.06l5.43,1.96c.24.35-.05.65-.14,1Z" fill="#fa9d44" stroke-width="0"/><path d="m40.84,26.86l5.83,2.1-.86,2.61-4.2-1.44-1.04-3.14.27-.13Z" fill="#ede2c8" stroke-width="0"/><path d="m47.86,29.39l5.29,2.13-2.67,1.81-3.71-1.34,1.09-2.6Z" fill="#e9d4aa" stroke-width="0"/><path d="m54.04,31.77c1.53-.03,3.47,2.52,3.24,4.09q-2.89-1.01-5.78-2.01c.38-.23,2.38-2.07,2.54-2.08Z" fill="#e9d4aa" stroke-width="0"/><path d="m38.54,26.18c2.19.44,1.25,1.47,1.96,3.48l-.27.13q-2.8-1.05-5.6-2.1c.76-.77,2.87-1.72,3.91-1.51Z" fill="#e9d4aa" stroke-width="0"/><path d="m40.93,63.56l5.69,2.28c-1.16.86-3.63,1.85-4.87.86-.16-.12-.67-2.53-1.08-3.01l.27-.13Z" fill="#a25721" stroke-width="0"/><path d="m45.78,44.5c-.15,1.59-1.1,2.07-.53,4.37-2.06.77-1.25,3.95-3.47,3.61-.31-.05-5.57-1.94-5.83-2.1-1.6-1.01.43-2.25,0-5.17,1.53-.98,1.44-2.42,1.93-3.27,2.58.25,5.31,1.79,7.91,2.55Z" fill="url(#Degradado_sin_nombre_90)" stroke-width="0"/><path d="m45.78,44.5c-2.6-.76-5.33-2.3-7.91-2.55,1.2-2.1,5.72,1.2,7.65,1.41.64.65.29.81.26,1.14Z" fill="#f9d5ad" stroke-width="0"/><path d="m41.2,57.22c-.12.57-1.75,5.07-2.06,5.09l-7.28-2.63c-.11-.13.1-.4.12-.55l1.87-4.56,7.35,2.65Z" fill="#a25721" stroke-width="0"/><path d="m41.2,57.22l-7.35-2.65-1.87,4.56c.17-1.02,1.54-4.01,1.98-5.27l7.42,2.67c.1.15-.14.5-.17.69Z" fill="#e19357" stroke-width="0"/><path d="m32.67,54.29c-.14.59-1.69,4.94-2.01,4.96-1.43-.66-6.18-2.03-6.75-2.43-1.16-.81.78-5.27,1.36-5.64-.04.08.07.32.1.34,1.14.64,5.4,1.73,7.3,2.78Z" fill="url(#Degradado_sin_nombre_91)" stroke-width="0"/><path d="m32.67,54.29c-1.9-1.05-6.16-2.14-7.3-2.78-.04-.02-.14-.26-.1-.34.96-.61,6.12,2,7.63,2.3.1.15-.17.62-.22.82Z" fill="#fa9d44" stroke-width="0"/><path d="m28.52,60.43l-4.27-1.84c-.04-.19-.32-.99,0-1.05l5.43,1.96.13.27c-.37.2-.96.43-1.29.66Z" fill="#ce7a39" stroke-width="0"/><path d="m28.52,60.43c-.3.22-1.26,1.11-1.52,1.1-.88-.02-2.43-1.46-2.76-2.94l4.27,1.84Z" fill="#b4652b" stroke-width="0"/><path d="m42.12,57.55q3.8,1.29,7.6,2.59c.23,1.03-1.14,4.62-2.51,5.08l-6.89-2.48c.52-1.4,1.17-4.01,1.8-5.19Z" fill="#a25721" stroke-width="0"/><path d="m49.72,60.14q-3.8-1.29-7.6-2.59c.09-.16.13-.59.3-.64,1.37.78,6.99,1.9,7.29,3.23Z" fill="#ce7a39" stroke-width="0"/><path d="m34.34,62.53c-.08.3-.38,1.36-.72,1.39-.73-.36-5.44-1.73-5.42-2.18.34-.28.88-.46.92-.49,1.23-.78,3.3.84,5.22,1.28Z" fill="#a25721" stroke-width="0"/><path d="m34.34,62.53c-1.93-.44-3.99-2.06-5.22-1.28,2.52-1.75,2.54-.7,5.41.15.25.35-.07.71-.18,1.13Z" fill="#e19357" stroke-width="0"/><path d="m39.82,64.35c.29.59.37,1.24.69,1.82l-.27.13-5.17-1.86c-.25-.24.24-1.38.37-1.66l4.37,1.58Z" fill="#a25721" stroke-width="0"/><path d="m39.82,64.35l-4.37-1.58c.09-.2.23-.86.4-.9,2.22.97,2.94.41,3.97,2.48Z" fill="#e19357" stroke-width="0"/><path d="m57.92,37.81c-1.08-1.76-.66-.71-.87-.09-.28.86-1.73,4.33-1.4,4.51,1.39-.68,1.11-2.76,2.08-3.89-1.59,6.88-3.53,3.48-9.15,1.94q.99-3.05,1.97-6.1c1.44.74,7.55,1.76,7.37,3.63Z" fill="#eac18a" stroke-width="0"/><path d="m57.92,37.81c-.02.15-.15.35-.19.53-.97,1.13-.69,3.21-2.08,3.89-.33-.17,1.12-3.65,1.4-4.51.2-.62-.21-1.68.87.09Z" fill="#eac18a" stroke-width="0"/><path d="m63.33,49.78c-.85,2.28-1.75,4.58-2.35,6.93-.67,1.85-1.33,3.71-2.01,5.56q-1.17,2.83-2.34,5.67l-5.47-2.05.1.34c-.63-.21-1.25-.39-1.9-.54.39-.82.66-2.68,1-3.61,3.11-8.53,6.14-17.09,9.24-25.63,1.01,4.5,2.12,8.98,3.73,13.32Z" fill="url(#Degradado_sin_nombre_87)" stroke-width="0"/><path d="m60.98,56.72c.6-2.36,1.5-4.66,2.35-6.93.11-.29.13-.57.32-.48-.89,2.47-1.78,4.95-2.67,7.42Z" fill="#462b20" stroke-width="0"/><path d="m72.78,20.26c.22,1.92.93.6.05,3.61l-2.09-2.7c-.21-.08-.78.26-1.1.35-3.27.92-11.01,4.98-14.9,6.45-.04-.08-.38.38-.83-1.42q8.39-3.97,16.78-7.94c1.15.54,1.2.67,2.1,1.65Z" fill="#1c1009" stroke-width="0"/><path d="m72.82,23.87c-.08.27-.2.53-.29.79-.83-.27-1.38-1.15-1.87-1.87-.03-.04.16-.09-.47-.77-.03-.03-.11-.41-.57-.5.32-.09.89-.43,1.1-.35l2.09,2.7Z" fill="#cb5207" stroke-width="0"/><path d="m70.67,22.8q-7.23,3.45-14.46,6.91c-.4-.2-.9-.3-1.32-.48.02-.09.09-.19.1-.26.13.11.2.3.42.3.45,0,6.93-3.49,8.15-3.72.04-1.71.95-1,1.05-1.04.86-.37.51-.46.64-.52,1.6-.7,3.36-1.25,4.97-1.95.63.67.45.73.47.77Z" fill="#fa9d44" stroke-width="0"/><path d="m70.19,22.03c-1.61.7-3.37,1.25-4.97,1.95-.13.06.22.15-.64.52-.1.04-1.01-.66-1.05,1.04-1.22.23-7.7,3.72-8.15,3.72-.22,0-.29-.18-.42-.3,0-.07-.22-.94-.24-.99,3.88-1.47,11.63-5.53,14.9-6.45.46.09.54.48.57.5Z" fill="#fa9d44" stroke-width="0"/><path d="m55.62,13.48c-.08.39-.02.93-.16,1.29-.95,1.9-5.56-.81-7.93-1.66,1.66-1.06-4.25.61-4.23.94,0,.09.46.12.76.8-.18.12-.32.5-.91.87q-7.57,3.56-15.14,7.11c-.05-.79.64-1.05.85-1.94,1.91-.94,13.2-5.75,13.54-6.42.19-.38-1.67-1.52,4.79-2.69,3.19.83,8.84,4.14,7.78,1.46.23.08.44.16.66.24Z" fill="#fa9d44" stroke-width="0"/><path d="m54.95,13.24c1.06,2.68-4.59-.63-7.78-1.46-6.45,1.17-4.59,2.31-4.79,2.69-.34.67-11.63,5.48-13.54,6.42-.86.43-1.78.73-2.57,1.32.89-.83,1.74-1.27,2.87-1.73.41-1.41,2.8-2.24,4-3.2l-.24-.16c.9-.42,1.81-.85,2.7-1.27.14.56,1.16-.48,1.82-.69.16-.05,2.93-.58,3.26-.32,1.12-.16,2.2-1.85.93-2.36.02-.04-.19-.35.13-.78.23-.31,3.21-1.27,3.76-1.71,3.09,1.16,6.33,2.16,9.45,3.26Z" fill="#1c1009" stroke-width="0"/><path d="m47.52,13.11c-.22.14-.36,0-.41.3l-.51-.03c-.86.48-1.73.94-2.55,1.47-.3-.68-.75-.71-.76-.8-.02-.34,5.9-2.01,4.23-.94Z" fill="#fdd289" stroke-width="0"/><path d="m47.11,13.41c.05-.31.18-.16.41-.3,2.37.85,6.98,3.56,7.93,1.66-1.02,2.52-4.48-.4-8.34-1.36Z" fill="#e9d4aa" stroke-width="0"/><path d="m28,22.83s-.08.14.08.18l-.36.17c.18-.7-.57.15-.67.21-.01,0,.03.09-.23.22-2.8,1.36-2.31.26-.55-1.39.79-.58,1.71-.89,2.57-1.32-.21.89-.9,1.15-.85,1.94Z" fill="#7f2008" stroke-width="0"/><path d="m43.14,15.72c-4.74,2.93-9.96,5.05-15.05,7.29-.16-.04-.08-.14-.08-.18q7.57-3.56,15.14-7.11Z" fill="#e9d4aa" stroke-width="0"/><path d="m27.73,23.18s-.02.09-.05.13l-.63.07c.1-.06.85-.9.67-.21Z" fill="#cf956b" stroke-width="0"/><path d="m35.61,15.85c.78-.37,5.74-2.46,5.92-2.73.09-.13-.1-.28.08-.64,1.27.51.19,2.2-.93,2.36-.33-.26-3.1.27-3.26.32-.66.21-1.68,1.25-1.82.69Z" fill="#20201f" stroke-width="0"/><path d="m47.73,70.65c-2.6,1.94-5.96,2.53-8.76,4.17-.56-.09-1.04-.58-1.59-.57-.37,0-6.59,2.7-6.71,3.04-.04.1.81,1.26.97,1.47-.19.1-.41.25-.59.39-1.77-1.25-2.5-.67-4.18.59.34.04,1.69.64,1.79.64l-.05.13c-4.77-1.71-9.58-3.34-14.26-5.29.05.01.09.04.13.05.9.22,2.27.85,3.31,1.19,1.78.59,3.5,1.37,5.32,1.84-.75-.35.59-1.48.59-2.48,1.93-1.26,3.88-2.45,6-3.37q1.76-2.17,3.51-4.35c3.02,1.09,6.05,2.18,9.07,3.27,1-.04,1.78-.35,2.71-.67.43-.15,1.62-.62,1.93-.8.46.08.74.7.78.73Z" fill="#a5370b" stroke-width="0"/><path d="m21.17,58.38c.56,1.24.44,3.45,3.38,4.96,2.42,1.24,13.12,4.45,17.02,6.13-2.59-.55-5.01-1.78-7.53-2.56q1.83.73,3.66,1.47l-.1.26c-.98-.36-7.73-3.15-8.16-3.09-.27.04-.49.57-.8.76-.66-.23-1.3-.55-1.99-.72-.29-.07-.57-.23-.86-.31q-5.57,2.48-11.14,4.96c-.05-2.05,1.13-9.57,1.69-11.74.51-1.99,2.97-8.38,2.89-8.84-.02-.14-.99.19.28-2.44.06-.12.04.88.77-1.3.12.06.34.06.37.21.32,1.48-2.7,10.14.22,11.23-.05,1.11.29.96.31,1.01Z" fill="#e47008" stroke-width="0"/><path d="m21.53,42.05c-.57,1.24-.82,2.6-1.25,3.89-.73,2.17-.71,1.18-.77,1.3-1.27,2.63-.31,2.3-.28,2.44.08.46-2.37,6.84-2.89,8.84-.56,2.17-1.74,9.69-1.69,11.74.02.61.11,1.28.71,1.75-.84.63.26,1.96,1.2,2.08-.44.73.9.22.66,1.06-.21.76-2.18,0,.57,1.33-1.04-.34-2.41-.98-3.31-1.19-1.35-1.16-2.69-4.65-3.3-5.38.08.03.38-.21.38-.24.98-2.68,1.68-5.49,2.65-8.17,0-.02.4-.28.41-.3.42-1.19,3.39-8.97,3.26-9.45-.05-.17-.47-.21-.64-.3,1.11-3.09,2.25-6.18,3.21-9.32.35-.05.73-.02,1.07-.06Z" fill="#cb5207" stroke-width="0"/><path d="m21.84,42.01c1.55,1.31.34,3.58,2.29,5.69-.45,1.67-2.9,8.04-2.97,8.66-.01.11.15.13.24.16-.14.65-.17,1.22-.22,1.86-.02-.05-.36.1-.31-1.01-2.92-1.09.1-9.75-.22-11.23-.03-.15-.26-.15-.37-.21.43-1.29.68-2.64,1.25-3.89.11-.01.21-.02.31-.04Z" fill="#fa9d44" stroke-width="0"/><path d="m10.24,68.36l-1.11-1.9c2.6-8.04,5.62-15.93,8.46-23.89.4-.25.85-.22,1.3-.28.5.76-.37,1.45-.42,1.57-1.07,2.66-8.26,22.5-8.41,23.75.34.53.18.7.18.74Z" fill="#481005" stroke-width="0"/><path d="m44.64,69.68c-.3.15.06.76.38,1.03-.93.32-1.71.63-2.71.67-3.02-1.09-6.05-2.18-9.07-3.27-1.55-.56-3.03-1.26-4.59-1.8.31-.19.53-.72.8-.76.43-.06,7.19,2.74,8.16,3.09l.1-.26q-1.83-.73-3.66-1.47c2.52.78,4.94,2.01,7.53,2.56.8.17,2.29.37,3.07.21Z" fill="#cb5207" stroke-width="0"/><path d="m10.5,68.9s-.17-.13-.25-.54c0-.04.15-.21-.18-.74.15-1.25,7.34-21.1,8.41-23.75.05-.12.92-.82.42-1.57.21-.03.42-.05.63-.07-.06.15.16.35.15.43-.17,1.01-3.8,10.07-4.62,12.4q-2.27,6.93-4.54,13.85Z" fill="#681708" stroke-width="0"/><path d="m17.25,51.43c-2.12,5.92-4.33,11.81-6.53,17.7,0-.03-.15.04-.22-.23q2.27-6.93,4.54-13.85c.82-2.33,4.45-11.39,4.62-12.4.01-.07-.2-.28-.15-.43.31-.04.63-.07.94-.11-.96,3.14-2.1,6.23-3.21,9.32Z" fill="#7f2008" stroke-width="0"/><path d="m51.27,66.23c1.71.56,3.39,1.26,5.1,1.84l-.03.29-2.56.87c-.35-.06-.79-.13-1.15-.12,0,0,.04.06-.18.08q-1.5-.62-3-1.23c.35-.68-.18-1.19-.58-1.71.38-.64.49-.53.5-.57.65.14,1.27.33,1.9.54Z" fill="#cb5207" stroke-width="0"/><path d="m22.46,41.93c.07,0,.1-.14,1.3-.28.1,1.08,1.2-.26,2.42.35-2.19,6.64-1.88,5.14-3.72-.07Z" fill="#f8b14e" stroke-width="0"/><path d="m21.4,56.51c-.09-.03-.25-.05-.24-.16.07-.62,2.52-6.99,2.97-8.66-1.94-2.11-.74-4.37-2.29-5.69.22-.03.41-.05.63-.07,1.84,5.21,1.53,6.71,3.72.07-1.22-.61-2.31.73-2.42-.35.98-.12,1.96-.24,2.93-.44l.13.27c-1.2,4.24-4.7,11.64-5.42,15.03Z" fill="#fa9d44" stroke-width="0"/><path d="m49.44,67.97c-.04.07-.97.95-1.14,1.09-.06.05-1.19.76-1.36.86-.31.18-1.51.65-1.93.8-.32-.27-.68-.88-.38-1.03,1.54-.31,3.43-2.09,4.22-3.42.4.52.93,1.02.58,1.71Z" fill="#e47008" stroke-width="0"/><path d="m28.64,66.31c1.56.55,3.04,1.24,4.59,1.8q-1.76,2.17-3.51,4.35c-2.12.92-4.07,2.11-6,3.37,0,1-1.34,2.13-.59,2.48-1.82-.48-3.54-1.26-5.32-1.84-2.75-1.33-.78-.57-.57-1.33.23-.85-1.1-.34-.66-1.06l12.18-5.56-2.44-1.11c.21-.09,1.22-.42,1.24-.53.01-.08-.77-1.08-.88-1.29.68.16,1.32.48,1.99.72Z" fill="#a5370b" stroke-width="0"/><path d="m53.44,77.64c-.36.92-.65,1.86-1,2.78-.83.02,1.44-2.21.12-2.2-.63,0-10.81,5.3-11.27,5.74-1,.94.35.98,1.16.94-.04,0-.24.26-.79.31-3.6-1.28-7.19-2.62-10.79-3.89.51-.14.98-.49,1.44-.68,1.55-.62,5.77-2.58,6.1-2.59.69-.03,1.27.43,1.95.4.62-.02,9.95-4.56,11.24-5.23,2.5-1.3,3.47-1.04,4.4-3.5.16-.43.42-.91.34-1.37l.03-.29c-1.71-.58-3.38-1.27-5.1-1.84l-.1-.34,5.47,2.05q1.17-2.83,2.34-5.67c-1.86,5.1-3.55,10.31-5.54,15.36Z" fill="url(#Degradado_sin_nombre_85)" stroke-width="0"/><path d="m52.44,80.42l-.12.33c-2.26.8-8.32,3.82-9.88,4.15-.81.04-2.15,0-1.16-.94.46-.43,10.64-5.73,11.27-5.74,1.32-.01-.95,2.22-.12,2.2Z" fill="#1c1009" stroke-width="0"/><path d="m51.79,80.34l.04.09-.05.13-.09.04-.13-.05-.04-.09.09-.04.09-.04.09-.04Z" fill="#290a03" stroke-width="0"/><path d="m11.19,69.89s-.16-.05-.26-.1c.02-.18-.16-.49-.21-.67,2.2-5.89,4.41-11.78,6.53-17.7.16.09.59.13.64.3.13.48-2.83,8.26-3.26,9.45,0,.02-.4.28-.41.3-.96,2.69-1.67,5.5-2.65,8.17,0,.02-.3.26-.38.24Z" fill="#a5370b" stroke-width="0"/><path d="m26.65,65.59c.11.21.9,1.21.88,1.29-.02.11-1.03.44-1.24.53-1.63.68-10.24,4.07-10.93,4.59-.61-.47-.7-1.14-.71-1.75q5.57-2.48,11.14-4.96c.29.08.57.24.86.31Z" fill="#7f2008" stroke-width="0"/><path d="m16.56,74.08c-.94-.12-2.03-1.45-1.2-2.08.69-.52,9.3-3.91,10.93-4.59l2.44,1.11-12.18,5.56Z" fill="#f18c03" stroke-width="0"/><path d="m32.3,80.65c-.46.19-.93.54-1.44.68-.75-.27-1.5-.54-2.25-.81l.05-.13c.14,0,2.25-.93,2.61-1.01.48.39.76.72,1.04,1.27Z" fill="#cb5207" stroke-width="0"/><path d="m51.59,73.23c-1.28.67-10.62,5.2-11.24,5.23-.68.03-1.26-.44-1.95-.4-.33.02-4.54,1.97-6.1,2.59-.27-.56-.56-.88-1.04-1.27-.29-.24-.2-.22-.22-.23.18-.14.39-.28.59-.39.66-.36,5.68-2.74,6.01-2.77.66-.06,1.88.42,2.57.33.51-.06,7.91-4.05,9.19-4.54-.03-.08-.11-.15-.06-.25,1.09.23,1.69-1.01,1.43-1.88.6-.04,1.08-.4,1.66-.45.22-.02.17-.08.18-.08,1.05.45.59.78-.1,1.53-1.33,1.44-3.04.64-2.89,1.8.02.17,2.07.29,1.96.78Z" fill="#e47008" stroke-width="0"/><path d="m51.59,73.23c.1-.49-1.94-.62-1.96-.78-.15-1.16,1.56-.36,2.89-1.8.7-.76,1.15-1.09.1-1.53.37-.02.8.05,1.15.12.43.08,1.38.91,2.21.5-.93,2.46-1.9,2.2-4.4,3.5Z" fill="#a5370b" stroke-width="0"/><path d="m56.33,68.36c.07.46-.18.94-.34,1.37-.84.41-1.78-.42-2.21-.5l2.56-.87Z" fill="#a5370b" stroke-width="0"/><path d="m49.36,71.53c-.05.1.03.17.06.25-1.28.49-8.69,4.48-9.19,4.54-.7.09-1.92-.39-2.57-.33-.33.03-5.35,2.41-6.01,2.77-.15-.21-1-1.37-.97-1.47.12-.35,6.34-3.04,6.71-3.04.55,0,1.03.48,1.59.57,2.8-1.64,6.16-2.23,8.76-4.17.34.28,1.22.8,1.63.89Z" fill="#681708" stroke-width="0"/><path d="m31.05,79.15s-.07,0,.22.23c-.36.08-2.47,1.01-2.61,1.01-.09,0-1.44-.6-1.79-.64,1.67-1.26,2.41-1.84,4.18-.59Z" fill="#481005" stroke-width="0"/><path d="m50.02,69.68c-.3.62-.62,1.77-.67,1.85-.41-.09-1.28-.61-1.63-.89-.04-.03-.33-.65-.78-.73.17-.1,1.29-.81,1.36-.86-.28.43,1.37.6,1.72.62Z" fill="#a5370b" stroke-width="0"/><path d="m52.44,69.2c-.58.05-1.06.41-1.66.45-.28.02-.47.04-.76.03-.35-.02-2-.2-1.72-.62.17-.14,1.1-1.02,1.14-1.09q1.5.62,3,1.23Z" fill="#481005" stroke-width="0"/><path d="m49.36,71.53c.05-.09.37-1.24.67-1.85.29.02.48,0,.76-.03.26.87-.33,2.11-1.43,1.88Z" fill="#e47008" stroke-width="0"/></g></svg>