<?xml version="1.0" encoding="UTF-8"?><svg id="Capa_2" xmlns="http://www.w3.org/2000/svg" xmlns:xlink="http://www.w3.org/1999/xlink" viewBox="0 0 89.18 102.94"><defs><linearGradient id="Degradado_sin_nombre_48" x1="22.27" y1="21.07" x2="67.48" y2="79.92" gradientUnits="userSpaceOnUse"><stop offset="0" stop-color="#f9f5f2"/><stop offset="1" stop-color="#c6bbb5"/></linearGradient><linearGradient id="Degradado_sin_nombre_52" x1="37.91" y1="47.85" x2="42.98" y2="68.55" gradientUnits="userSpaceOnUse"><stop offset="0" stop-color="#fadbab"/><stop offset="1" stop-color="#bd7c2a"/></linearGradient><linearGradient id="Degradado_sin_nombre_53" x1="53.15" y1="44.44" x2="56.11" y2="52.07" gradientUnits="userSpaceOnUse"><stop offset="0" stop-color="#f7dcb0"/><stop offset="1" stop-color="#ebb676"/></linearGradient><linearGradient id="Degradado_sin_nombre_54" x1="43.35" y1="37.48" x2="46.63" y2="44.77" gradientUnits="userSpaceOnUse"><stop offset="0" stop-color="#f6f2e9"/><stop offset="1" stop-color="#f3d9a7"/></linearGradient><linearGradient id="Degradado_sin_nombre_55" x1="24.13" y1="64.2" x2="28" y2="70.98" gradientUnits="userSpaceOnUse"><stop offset="0" stop-color="#e3a761"/><stop offset="1" stop-color="#c8822c"/></linearGradient></defs><g id="Capa_1-2"><path d="m74.34,59.94c-.87,1.17-1.62,2.45-2.47,3.62-3.42,4.67-6.72,9.38-10.09,14.08-1.5,2.11-9.86,12.99-10.28,14.18-.17.5-.04.79.19,1.24-.5.51-1.07.94-1.52,1.52-.44.05-.4-1.17-.38-1.24.49-1.93,20.96-31.6,22.45-32.92,1.03-.9.98-.15,2.09-.48Z" fill="#e8e2df" stroke-width="0"/><path d="m88.23,32.54c.21.66.3,1.47.95,1.9-1.32,2.34-5.69,7.93-5.9,10.09l-3.04-2.47c.64-1.92,2.19-3.47,3.23-5.14,1.96-.68,2.96-3.38,4.57-4.76.04.16.14.22.19.38Z" fill="#645f58" stroke-width="0"/><path d="m83.29,45.1c-.05,2.04.92,5.43.57,7.61-.06-.01-.13.01-.19,0-.49-.12-1.25-.33-1.71-.38-.77-.09-1.33-.42-1.52-.38.02-2.69-.4-5.32-.38-7.99l3.23,1.14Z" fill="#a79c92" stroke-width="0"/><path d="m83.29,44.53c0,.19,0,.38,0,.57l-3.23-1.14c0-.52-.28-.84-.19-1.43.21-.4.37-.45.38-.48l3.04,2.47Z" fill="#807f7b" stroke-width="0"/><path d="m87.85,30.83c.08.4.08.93.19,1.33-1.6,1.37-2.61,4.08-4.57,4.76,1.08-1.74,2.01-3.48,3.23-5.14.66-.89.25-1.26,1.14-.95Z" fill="#807f7b" stroke-width="0"/><path d="m71.3,67.93s-.63-.08-.29.38c.28-.21.26-.37.29-.38,2.18-1.26,1.3-3.26,2.47-2.66-.03.05-.06.71-.38,1.24-.94,1.55-2.11,1.95-2.09,2.09.09,1.13.95-.42.95.48-5.57,7.98-10.99,16.13-16.74,23.98-1.46,1.99-2.83,4.19-4.38,6.09-.57.7-1.49,1.92-2.09,2.47-.51.47-1.04.95-1.62,1.33-2.22-.4-4.66.16-6.56-1.14.27-.05.5-.13.76-.19,4.39-1.03,6.15-3.46,8.56-7.04.45-.58,1.02-1.02,1.52-1.52.06-.06.27.02,1.33-.95.95-.87,1.78-1.85,2.85-2.57.16-.71-.56-.43-.57-.48-.06-.29.07-1.15.19-1.43.23-.53,6.26-7.67,7.04-9.13-.07-.16-.9.09-.76-.86,3.36-4.71,6.67-9.41,10.09-14.08,1.49.32-.09,3.15-.57,4.38Z" fill="#15140f" stroke-width="0"/><path d="m78.34,58.23c-1.39,2.08-2.24,3.81-4,5.61-.03.47-.33,1.04-.57,1.43-1.18-.59-.3,1.41-2.47,2.66.48-1.22,2.06-4.05.57-4.38.86-1.17,1.6-2.44,2.47-3.62,1.99-2.69,3.89-5.46,6.09-7.99,0,.22.39.4.38.48-.06.87-1.62,4.97-2.47,5.8Z" fill="#7a736d" stroke-width="0"/><path d="m83.67,52.71c-3.62,5.58-7.61,10.91-11.42,16.36,0-.89-.86.66-.95-.48-.01-.15,1.15-.54,2.09-2.09.32-.52.35-1.18.38-1.24.24-.39.54-.96.57-1.43,1.76-1.81,2.6-3.54,4-5.61,1.98-.94,4.03-3.6,3.62-5.9.46.05,1.23.26,1.71.38Z" fill="#3c372d" stroke-width="0"/><path d="m55.31,89.05c-.82.33-3.32,2.88-2.28,3.04-1.06.97-1.27.89-1.33.95-.23-.44-.36-.74-.19-1.24.41-1.18,8.77-12.07,10.28-14.18-.14.94.7.7.76.86-.78,1.46-6.81,8.6-7.04,9.13-.12.27-.26,1.14-.19,1.43Z" fill="#7a736d" stroke-width="0"/><path d="m55.31,89.05s.73-.23.57.48c-1.08.72-1.9,1.7-2.85,2.57-1.04-.17,1.46-2.72,2.28-3.04Z" fill="#8e8d89" stroke-width="0"/><path d="m71.3,67.93s0,.17-.29.38c-.35-.46.28-.36.29-.38Z" fill="#807f7b" stroke-width="0"/><path d="m81.95,52.33c.42,2.29-1.63,4.96-3.62,5.9.86-.83,2.42-4.93,2.47-5.8,0-.07-.38-.26-.38-.48.19-.04.75.29,1.52.38Z" fill="#645f58" stroke-width="0"/><path d="m59.31,6.28c9.26,6.54,17.97,13.91,27.31,20.36l.1,5.14c-1.23,1.66-2.15,3.4-3.23,5.14-1.04,1.67-2.6,3.22-3.23,5.14,0,.03-.17.08-.38.48-.09.59.19.91.19,1.43-.02,2.67.41,5.31.38,7.99-2.19,2.53-4.1,5.3-6.09,7.99-1.11.33-1.06-.43-2.09.48-1.5,1.31-21.96,30.99-22.45,32.92-.02.06-.06,1.29.38,1.24-2.41,3.58-4.18,6.01-8.56,7.04-.76-.66-1.71.03-2.57-.19-.29-.08-4.65-2.87-5.14-3.23-.72-.54-2.32-2.51-3.23-3.23-1.03-.82-1.82-1.07-1.9-1.14-.77-.63-2.34-2.83-3.43-2.66-.84-1.73-4.41-3.15-4.57-4.76-2.19.23-2.58-3.74-4.19-2.28-.15-1.44-2.41-1.65-3.33-2.95,1.3-.45-.47.12-.1-.86-4.14-2.51-7.55-6.28-11.89-8.37-.75-1.38-.59-3.1-.86-3.04-.74,1.27-.4.01.29-1.24,1.53-2.79,8.53-12.81,11.04-16.46,1.26-1.84,2.54-3.68,3.81-5.52.36-.52,2.32-2.77,3.62-4.66,2.48-3.63,4.8-7.41,7.14-11.13-2.7.6-1.92,2.59-2.09,2.66-.2.09-.44-.41-.86-.1-.62.46-7.21,11.3-8.37,13.03-.61.91-3.22,5.09-3.43,5.33-.82.94-1.04.64-.57-.57,1.34-3.46,11.24-16.07,11.61-17.03.21-.55-.88-.24.38-2.09.38-.25.36.62.48.67.38.15,4.23-6.05,4.66-6.66,1.02-1.46,2.03-2.91,3.04-4.38,3.19-4.62,8.1-12.43,11.23-16.36C44.05,2.27,45.48-.03,48.56,0c2.67.03,8.35,4.58,10.75,6.28Z" fill="url(#Degradado_sin_nombre_48)" stroke-width="0"/><path d="m41.61,101.61c-.26.06-.5.14-.76.19-1.15.21-2.45.33-3.62.38.29-.77-.04-.59-.38-.95-1.47-1.55-4.34-3.5-6.09-4.95-3.79-3.13-28.58-22.67-29.49-24.36,4.34,2.09,7.75,5.87,11.89,8.37-.38.98,1.4.41.1.86.92,1.3,3.18,1.51,3.33,2.95,1.61-1.45,1.99,2.51,4.19,2.28.16,1.61,3.72,3.03,4.57,4.76,1.09-.17,2.65,2.04,3.43,2.66.09.07.87.32,1.9,1.14.92.73,2.52,2.7,3.23,3.23.49.37,4.84,3.16,5.14,3.23.86.22,1.81-.47,2.57.19Z" fill="#bbac9e" stroke-width="0"/><path d="m38.38,91.15c3.31,1.63,6.89.82,9.32-1.81,1.25-1.35,19.38-27.06,21.31-30.06.72-1.12,2.62-3.79,2.85-4.85,1.18-.02,1.19-.19,1.14.86-.06,1.32-11.57,17.74-13.32,20.17-2.09,2.9-11.38,15.88-13.42,17.03-2.99,1.69-7.95,1.09-7.9-1.33Z" fill="#e8e2df" stroke-width="0"/><path d="m15.54,45.67l-.57-.19c1.16-1.73,7.75-12.57,8.37-13.03.42-.31.66.18.86.1.17-.07-.6-2.06,2.09-2.66-2.34,3.72-4.66,7.5-7.14,11.13-1.29,1.9-3.25,4.14-3.62,4.66Z" fill="#c5c3be" stroke-width="0"/><path d="m39.04,10.85c.26-.04.3.04.29.29-.08,1.11-11.51,15.83-12.65,18.36-.15-.42-.25-.79-.1-1.24.2-.58,6.12-7.73,7.42-9.89,1.32-2.19.29-1.1.19-1.52,1.63-1.13,2.63-4.15,3.43-4.95.07-.07,1.34-1.03,1.43-1.05Z" fill="#807f7b" stroke-width="0"/><path d="m77.2,35.2c2.25.71,4.27-.84,5.14-2.85,1.61.22-.9,3.86-1.81,4.19-1.3.47-3.57.47-3.33-1.33Z" fill="#e8e2df" stroke-width="0"/><path d="m15.54,45.67c-1.27,1.84-2.54,3.68-3.81,5.52l-.19-.38c.21-.24,2.82-4.42,3.43-5.33l.57.19Z" fill="#7a736d" stroke-width="0"/><path d="m56.07,7.61c9,6.17,17.28,13.45,26.16,19.79,1.09,1.44.76,3.39.1,4.95-.87,2.02-2.89,3.56-5.14,2.85-1.63-.51-23.56-18.44-27.02-20.93l-.38-.48c.46-.33.62-.81.95-1.24-.07.59.02.64.29.95.37.43,7.95,5.44,9.32,6.47,2.48,1.86,18,14.44,19.41,14.46,1.17.02,1.73-1.79,2.38-2.57-.71-1.61.64-1.43-1.05-3.33-2.03-2.28-21.99-16.66-26.54-20.74,1.02-1.03.33.1,1.52-.19Z" fill="#15140f" stroke-width="0"/><path d="m56.07,7.61c-1.19.3-.5-.84-1.52.19-.21.22-3.33,4.14-3.81,4.76-.33.43-.49.9-.95,1.24l.38.48c-.65-.13-2.28-1.9-2.28-2.38,0-.41,4.1-6.76,4.66-6.76,1.24.73,2.34,1.66,3.52,2.47Z" fill="#15140f" stroke-width="0"/><path d="m50.75,12.56c.48-.62,3.59-4.54,3.81-4.76,4.55,4.08,24.52,18.46,26.54,20.74,1.69,1.9.33,1.72,1.05,3.33-.65.78-1.21,2.59-2.38,2.57-1.41-.02-16.93-12.6-19.41-14.46-1.38-1.03-8.96-6.04-9.32-6.47-.27-.31-.36-.36-.29-.95Z" fill="#242424" stroke-width="0"/><path d="m71.87,54.42c-.23,1.06-2.14,3.73-2.85,4.85-1.93,3.01-20.06,28.72-21.31,30.06-2.44,2.62-6.02,3.44-9.32,1.81-.25-.12-4.31-3.25-4.38-3.52-.06-.22,1.46-1.75,1.71-1.81,2.02-.49,4.53,4.47,8.66,1.9,1.43-.89,5.51-7.84,7.52-9.61,3.87-6.19,11.59-15.47,14.84-21.22,1.02-1.8,2.32-3.42,2.09-5.61-.33-3.25-4.11-3.27-4-5.61.01-.28.37-1.55.86-1.52.3.02,4.38,3.34,4.66,3.71,1.29,1.68,1.97,4.49,1.52,6.56Z" fill="#15140f" stroke-width="0"/><path d="m64.83,45.67c-.11,2.35,3.66,2.36,4,5.61.23,2.2-1.08,3.81-2.09,5.61-4.33,4.95-7.76,10.58-11.61,15.89-.4.55-.92.71-.95.76-.08.11-.86,1.84-1.33,2.47-.73.97-1.09.9-1.14.95-.07.08.67,1.25-.95.29,5.65-7.73,10.88-15.78,16.55-23.5,1.22-5.9-4.04-4.18-3.43-8.09h.95Z" fill="#e8b772" stroke-width="0"/><path d="m35.71,85.82l-.19-.76c2.67-1.2,4.55,3.86,8.28,1.52.49-.31,6.04-8.08,6.95-9.32,1.62.97.88-.2.95-.29.05-.06.41.02,1.14-.95.48-.64,1.25-2.36,1.33-2.47.04-.05.56-.21.95-.76,3.85-5.31,7.28-10.93,11.61-15.89-3.25,5.75-10.97,15.03-14.84,21.22-2.01,1.77-6.09,8.72-7.52,9.61-4.13,2.57-6.64-2.39-8.66-1.9Z" fill="#cd924a" stroke-width="0"/><path d="m47.51,30.45c.37.26.61.51.95.76-1.81,1.38-3.44,1.92-5.42.57-4.28,3.15-5.8-1.65-9.04,2-.33.37-4.44,6.74-5.52,8.28.09-1.2,1.68-2.38-.57-1.9,1.2-1.68,4.7-7.06,5.14-7.52,3.36-3.54,5.84-.8,7.33-1.05.29-.05,1.61-1.09,1.9-1.14,1.45-.24,3.05,1.8,5.23,0Z" fill="#efddcc" stroke-width="0"/><path d="m28.48,42.05c-4.51,6.42-8.9,12.91-13.7,19.12-.33.67-.18.86,0,1.43-.84-.36-.49.24-.95.76-.03-.14-.98-.94-.38-2.76,4.96-6.72,9.62-13.65,14.46-20.46,2.25-.48.66.7.57,1.9Z" fill="#f7e3bf" stroke-width="0"/><path d="m47.51,30.45c-2.18,1.8-3.78-.24-5.23,0-.29.05-1.61,1.09-1.9,1.14-1.49.24-3.96-2.49-7.33,1.05-.43.46-3.94,5.83-5.14,7.52-4.84,6.8-9.5,13.73-14.46,20.46-.6,1.82.35,2.62.38,2.76.17.74.83,1.37.57,3.71,3.62,2.47,1.96,4.51,3.9,5.23-.21-2.63-.05-4.04-2.57-5.42.38-3.31-.78-3.75-.95-4.28-.18-.57-.33-.76,0-1.43,4.8-6.22,9.19-12.7,13.7-19.12,1.08-1.53,5.19-7.91,5.52-8.28,3.23-3.65,4.76,1.15,9.04-2,1.99,1.35,3.62.8,5.42-.57,2.03,1.49,15.22,11.25,15.89,11.99.97,1.08-.31,1.41-.48,2.47-.62,3.91,4.64,2.18,3.43,8.09-5.67,7.72-10.91,15.77-16.55,23.5-.91,1.25-6.45,9.02-6.95,9.32-3.73,2.34-5.61-2.72-8.28-1.52-1.08.49-1.95,1.95-2.38,1.9q-10.51-8.32-21.03-16.65l-1.33-10.85q10.61-15.18,21.22-30.35c3.9-1.03,7.98-.97,11.99-1.33.53.11,2.87,2.2,3.52,2.66Z" fill="#15140f" stroke-width="0"/><path d="m52.27,61.27c-.04.31-.48.4-.19.95-1.89-1.79-2.37,2.92.38,2.85-.87.56-1.56-.47-1.71-.1.64.55.38.88.38,1.43-1.93-4.33-4.18,1.31,0,.76-.57.46-1.86-.02-2.09.29.54.57,1.75,1.09,1.14,1.43-3.38-3.42-4.12,2-6.95,3.04-5.2-3.79-10.44-7.57-15.51-11.51-.75-6.01,2.64-8.3,2.47-9.42-.04-.26-.35-.14-.57-.48.05-.18.56-.06.57-.1.62,1.06,2.31-1.54,1.9-2.28.03-.01-.11-.31.29-.57.11.16.29.27.48.19,1.47-.62,2.9-1.29,4.28-2.09.8-.08,2.33,1.08,3.04,1.52,3.08,1.93,9.99,7.26,13.22,9.8-.36,1.4-.93,2.85-1.14,4.28Z" fill="url(#Degradado_sin_nombre_52)" stroke-width="0"/><path d="m54.27,40.91c1.18.62,7.84,5.62,7.9,6.37l-6.56,8.66q-4.04-2.81-8.09-5.61l6.76-9.42Z" fill="url(#Degradado_sin_nombre_53)" stroke-width="0"/><path d="m44.37,34.25c1.24-.35,6.97,4.54,8.28,5.61-8.44,10.47-4.45,11-14.65,4-.18-.75,5.32-8.53,6.37-9.61Z" fill="url(#Degradado_sin_nombre_54)" stroke-width="0"/><path d="m24.77,60.7c.79-.24,7.44,4.71,8.47,5.61l-6.56,9.42c-10.63-6.81-8.03-5.73-1.9-15.03Z" fill="url(#Degradado_sin_nombre_55)" stroke-width="0"/><path d="m14.78,62.6c.17.53,1.34.97.95,4.28,2.52,1.38,2.36,2.79,2.57,5.42-1.94-.72-.28-2.76-3.9-5.23.26-2.34-.4-2.97-.57-3.71.46-.52.11-1.12.95-.76Z" fill="#f3d49d" stroke-width="0"/><path d="m28.29,77.45l6.85-9.51q3.9,2.81,7.8,5.61c-6.13,8.98-5.44,12.01-14.65,3.9Z" fill="#c0721e" stroke-width="0"/><path d="m35.14,67.93l-6.85,9.51-.38-.29c.98-1.2,1.78-2.54,2.66-3.81.98-1.41,4.19-5.9,4.57-5.42Z" fill="#e8b772" stroke-width="0"/><path d="m58.17,58.23c.13.31.76,1.64.76,1.81.02.96-9.95,14.98-11.13,15.51-4.88,2.19-5.57-4,2.38-6.66.61-.33-.6-.86-1.14-1.43.24-.31,1.53.17,2.09-.29.41-.33,0-.58,0-.76,0-.55.26-.87-.38-1.43.15-.38.84.66,1.71.1.87-.56-.08-1.91-.38-2.85-.29-.55.15-.65.19-.95l1.52,1.05c-.06-1.37-.41-2.21.19-3.52,1.49,1.35,3.79-2.45,4.19-.57Z" fill="#c0721e" stroke-width="0"/><path d="m58.17,58.23c-.4-1.88-2.69,1.92-4.19.57.63-1.37,2.19-1.45,3.33-2.28.65.27.77,1.5.86,1.71Z" fill="#cd924a" stroke-width="0"/><path d="m52.08,62.22c.31.95,1.25,2.29.38,2.85-2.75.06-2.27-4.65-.38-2.85Z" fill="#15140f" stroke-width="0"/><path d="m51.13,66.41c0,.19.41.43,0,.76-4.18.55-1.93-5.09,0-.76Z" fill="#15140f" stroke-width="0"/><path d="m36.67,43.77c-.11.99-4.67,2.4-4.76,2.76-.03.12,1.01.71.95,1.24-.18.08-.37-.03-.48-.19-.4.27-.26.56-.29.57-.34.12-.52-.54-1.14.1-.35.36-.56,1.72-.76,2.19-.02.04-.52-.09-.57.1.22.34.53.22.57.48-.65-.01-.6-.3-1.14.19.97-2.82-1.75,1.49-1.9,1.62-1.79,1.56-1.1-.98-2.85-.48,1.73-2.68,3.55-5.1,5.52-7.61.7-.74.85.2,1.05.19.95-.05,4.37-1.8,5.8-1.14Z" fill="#f7e3bf" stroke-width="0"/><path d="m29.05,51.19c-.6,1.76-3.34,2.64-2.95,7.61-1.72,1.16-4.04-1.82-4.09-2.95-.03-.7,1.84-2.83,2.28-3.52,1.75-.51,1.06,2.04,2.85.48.15-.13,2.87-4.44,1.9-1.62Z" fill="#f3d49d" stroke-width="0"/><path d="m36.67,43.77c-1.43-.66-4.86,1.09-5.8,1.14-.2.01-.34-.93-1.05-.19.39-.5,2.23-3.5,2.57-3.62,1.3.25,4.47,1.02,4.28,2.66Z" fill="#f4edde" stroke-width="0"/><path d="m32.1,48.14c.41.74-1.28,3.34-1.9,2.28.2-.47.41-1.83.76-2.19.62-.63.8.03,1.14-.1Z" fill="#15140f" stroke-width="0"/></g></svg>