<?xml version="1.0" encoding="UTF-8"?>
<svg id="Capa_2" data-name="Capa 2" xmlns="http://www.w3.org/2000/svg" viewBox="0 0 81.57 84.02">
  <defs>
    <style>
      .cls-1 {
        fill: #757774;
      }

      .cls-1, .cls-2, .cls-3, .cls-4, .cls-5, .cls-6, .cls-7, .cls-8, .cls-9, .cls-10, .cls-11, .cls-12, .cls-13, .cls-14, .cls-15, .cls-16, .cls-17, .cls-18, .cls-19, .cls-20, .cls-21, .cls-22, .cls-23, .cls-24, .cls-25, .cls-26, .cls-27, .cls-28, .cls-29, .cls-30, .cls-31, .cls-32, .cls-33, .cls-34, .cls-35, .cls-36, .cls-37, .cls-38, .cls-39, .cls-40, .cls-41, .cls-42, .cls-43, .cls-44, .cls-45, .cls-46, .cls-47, .cls-48, .cls-49, .cls-50, .cls-51, .cls-52, .cls-53, .cls-54, .cls-55, .cls-56, .cls-57, .cls-58, .cls-59, .cls-60, .cls-61, .cls-62, .cls-63, .cls-64, .cls-65, .cls-66, .cls-67, .cls-68, .cls-69, .cls-70, .cls-71 {
        stroke-width: 0px;
      }

      .cls-2 {
        fill: #2f3030;
      }

      .cls-3 {
        fill: #1b1c19;
      }

      .cls-4 {
        fill: #30302f;
      }

      .cls-5 {
        fill: #737678;
      }

      .cls-6 {
        fill: #acaead;
      }

      .cls-7 {
        fill: #141413;
      }

      .cls-8 {
        fill: #292925;
      }

      .cls-9 {
        fill: #232421;
      }

      .cls-10 {
        fill: #171716;
      }

      .cls-11 {
        fill: #0c0c0b;
      }

      .cls-12 {
        fill: #222422;
      }

      .cls-13 {
        fill: #373736;
      }

      .cls-14 {
        fill: #66676a;
      }

      .cls-15 {
        fill: #0b0c0e;
      }

      .cls-16 {
        fill: #0a0a0c;
      }

      .cls-17 {
        fill: #949594;
      }

      .cls-18 {
        fill: #0d0e0e;
      }

      .cls-19 {
        fill: #737272;
      }

      .cls-20 {
        fill: #1a1a1a;
      }

      .cls-21 {
        fill: #abacab;
      }

      .cls-22 {
        fill: #999997;
      }

      .cls-23 {
        fill: #1b1c1b;
      }

      .cls-24 {
        fill: #b4b6b5;
      }

      .cls-25 {
        fill: #111211;
      }

      .cls-26 {
        fill: #5b5b59;
      }

      .cls-27 {
        fill: #8d8e8e;
      }

      .cls-28 {
        fill: #c9c9c8;
      }

      .cls-29 {
        fill: #343434;
      }

      .cls-30 {
        fill: #080907;
      }

      .cls-31 {
        fill: #b3b4b3;
      }

      .cls-32 {
        fill: #b8b9b0;
      }

      .cls-33 {
        fill: #353533;
      }

      .cls-34 {
        fill: #7b7b77;
      }

      .cls-35 {
        fill: #282927;
      }

      .cls-36 {
        fill: #bebebe;
      }

      .cls-37 {
        fill: #4f4f4b;
      }

      .cls-38 {
        fill: #2d2c38;
      }

      .cls-39 {
        fill: #c5c7c4;
      }

      .cls-40 {
        fill: #b7b7b5;
      }

      .cls-41 {
        fill: #141513;
      }

      .cls-42 {
        fill: #3a3a38;
      }

      .cls-43 {
        fill: #282928;
      }

      .cls-44 {
        fill: #434443;
      }

      .cls-45 {
        fill: #4a4a4f;
      }

      .cls-46 {
        fill: #90928b;
      }

      .cls-47 {
        fill: #1f1f21;
      }

      .cls-48 {
        fill: #4f4f4f;
      }

      .cls-49 {
        fill: #1c1d1c;
      }

      .cls-50 {
        fill: #101010;
      }

      .cls-51 {
        fill: #adaeaf;
      }

      .cls-52 {
        fill: #0e0e10;
      }

      .cls-53 {
        fill: #5d5e60;
      }

      .cls-54 {
        fill: #181816;
      }

      .cls-55 {
        fill: #0a0a08;
      }

      .cls-56 {
        fill: #363835;
      }

      .cls-57 {
        fill: #2e2e2c;
      }

      .cls-58 {
        fill: #1d1d1d;
      }

      .cls-59 {
        fill: #11110f;
      }

      .cls-60 {
        fill: #575858;
      }

      .cls-61 {
        fill: #1d1d1c;
      }

      .cls-62 {
        fill: #212121;
      }

      .cls-63 {
        fill: #1d1d1b;
      }

      .cls-64 {
        fill: #5d5e58;
      }

      .cls-65 {
        fill: #383838;
      }

      .cls-66 {
        fill: #070707;
      }

      .cls-67 {
        fill: #8e8e8d;
      }

      .cls-68 {
        fill: #333331;
      }

      .cls-69 {
        fill: #d8d8d8;
      }

      .cls-70 {
        fill: #aaaba9;
      }

      .cls-71 {
        fill: #3c3c3a;
      }
    </style>
  </defs>
  <g id="Capa_2-2" data-name="Capa 2">
    <g>
      <path class="cls-55" d="M10.9,83.62c-1.2,0-2.5,0-3.7-.4-.3-.1-.6-.2-.9-.3,0-.2.2-.2.3-.2s.3.1.4.1c1,.4,2.1.5,3.1.5,3.5.1,7,.2,10.5.2.7,0,1.5.1,2.2-.1.3-.1.6,0,.9.1,1.2.1,2.4.1,3.7.1h7.5c1.1,0,2.1-.2,3.2-.6.2-.1.4-.3.6,0-1,.6-2.1.8-3.2.9-.2,0-.4-.1-.6.1h-.5c-.7-.1-1.3,0-2,0h-4.6c-3.6,0-7.3-.1-10.9-.1-1.5,0-3-.1-4.5-.1-.5-.3-1-.2-1.5-.2Z"/>
      <path class="cls-3" d="M30.8,83.82h3.2c.1,0,.2,0,.3.1-1.1,0-2.3,0-3.5-.1q0,.1,0,0h0Z"/>
      <path class="cls-37" d="M30.8,83.82q0,.1,0,0c-.7.1-1.4.1-2.1.1v-.1h2.1Z"/>
      <path class="cls-22" d="M28.7,83.82q0,.1,0,0c-.3.1-.7.1-1,.1v-.1h1Z"/>
      <path class="cls-3" d="M38.7,82.92c-.2-.2-.4,0-.5.1-.9.4-1.9.6-2.9.6-1.4.1-2.8.1-4.2,0-.7,0-1.4.1-2.1.1-1.6-.1-3.2.1-4.9-.1-.6-.1-1.2-.3-1.8,0-.3.2-.7,0-1.1,0-1.5-.1-3,0-4.6-.1-1.7-.1-3.4,0-5.1-.1-1.3-.1-2.6,0-3.8-.3-.3-.1-.7-.2-1-.3-.2,0-.3-.1-.4.1-2.3-1.1-3.7-2.9-4.1-5.4,0-.2-.1-.4-.1-.7,0-.1-.1-.2,0-.3.1,0,.2.1.2.2.1.6.3,1.2.5,1.8.1.3.2.5.4.8,0-.2-.1-.3-.1-.4-.2-.3-.1-.5.2-.7.1-.1.3-.1.3-.3.1-.5.4-.9.3-1.4v-.2c.4-.7.3-1.5.6-2.2,0-.1.1-.2.2-.3.2-.2.2-.4.1-.7-.1-.2-.1-.5-.1-.8.1-.4.1-.9-.2-1.3-.2-.1-.2-.2-.2-.4.1-.5.1-1.1.2-1.6,0-.2.2-.3.4-.3s.4.1.5.3c.1.4.4.5.7.6s.5,0,.6-.2c.2-.4.1-.8.2-1.2.1-.2.1-.4.3-.3.2,0,.3.2.3.4v1.9c0,.7.1,1.2.4,1.8.3.5.9.7,1.3.6.3,0,.4.2.6.3.3.3.6.6,1.1.5.2,0,.4,0,.5.1,1.1.7,2.4.5,3.6.4h6.8c.2,0,.4,0,.6.1.1.1,0,.2-.1.2-.1.1-.3.1-.4.1-2.3-.1-4.6.1-6.9.1-1,0-1.9.1-2.9.1-.2,0-.4,0-.6.1.5.2,1,.2,1.4.2,2.2,0,4.5.1,6.7,0,4.5-.2,8.9-.1,13.4-.1,2,0,3.6-.6,4.6-2.3-.2.5-.8.6-1.2.8-1.2.7-2.4,1-3.8.8-.5-.1-1,.1-1.5,0-.3,0-.5,0-.7-.3.1-.2.3-.2.5-.2h.8c1,.1,2,.1,3,0,.2-.1.4-.2.6-.4,0,0,.1,0,.1-.1.4-.3.9-.5,1.1-1v-.1c0-.1.1-.2.1-.2.4-.5.5-1.2.7-1.7,0-.1.1-.1.2-.1.2-.4.2-.9.2-1.3v-.7c0-.2.1-.4.3-.5.4-.2.5-.5.4-.9s-.1-.7-.1-1.1v-.8c0-.2,0-.5.1-.7,0-.1.1-.3.3-.4.2,0,.3.1.4.2.3.4.7.5,1.1.7,0-.1-.1-.1-.1-.2-.3-.3-.3-.5,0-.7s.4-.4.3-.7v-.5c0-.2,0-.4-.2-.5-.1-.1-.3-.1-.2-.3,0-.2.2-.2.3-.3h.3c.2,0,.3-.2.2-.3-.2-.3-.2-.5,0-.8.1-.2.1-.3-.2-.3-.3.1-.4-.1-.3-.4.1-.3.3-.5.6-.7.5-.2.5-.3.4-.8-.1-.4-.1-.8-.4-1.1-.1-.1-.1-.3,0-.4,0-.3.1-.6.5-.5.3,0,.3.3.3.6,0,.1.1,0,0,0h0c-.1-.6,0-1.2.1-1.7.1-.6.1-1.2.1-1.9v-1.3c-.1-2,0-4,0-6,0-.9.1-1.9.1-2.8,0-2.2.1-4.3.1-6.5,0-.9,0-1.8.1-2.7,0-.2,0-.3.1-.5s.2-.3.3-.1c.1.6,0,1.2.1,1.8v1.8c0,1.6.1,3.2-.1,4.8-.1.9,0,1.7,0,2.6-.1,5.2-.1,10.4-.1,15.6v3.8c0-.8,0-1.8.1-2.8.1-2.1,0-4.1,0-6.2.1-2.3,0-4.5.1-6.8.1-2.1,0-4.1.1-6.2.1-1.9.1-3.8.1-5.7,0-.2,0-.3.1-.5.2-.1.2.1.2.2v9.2c-.1.6,0,1.3,0,1.9v9.6c0,5.2-.1,10.3-.2,15.5,0,2.1,0,4.2-.3,6.2-.3,1.7-1,3.1-2.3,4.3-.5.2-1,.6-1.7.8Z"/>
      <path class="cls-7" d="M13.8,4.72c1.8.1,3.2-.9,4.8-1.6.3-.1.7-.2.8-.7,0-.2.2-.3.4-.2.6.4,1.2.1,1.9.1.6,0,1.2-.2,1.7-.6.1.1.2.1.4.1,0,.2.2.2.3.2.1.1.3.1.4.2,1,.3,2,.4,3,.8.7.3,1.4.7,2.2.9.5.2,1.1.3,1.7.3,2,.1,4,0,6,.1,1.9.1,3.8.1,5.6.2.4,0,.9.1,1.3.1.8,0,1.1.5,1.1,1.3v.3c.1,1.8.1,3.6.1,5.3,0,.4,0,.9-.1,1.3,0,.2-.1.5-.4.5s-.5,0-.8.1c-.1,0-.2,0-.2-.1-.1-.1,0-.2.1-.3.1-.1.3-.2.5-.3.1,0,.3,0,.3-.2s-.2-.1-.4-.1c-.6,0-1.2-.1-1.8,0-.9.1-1.8.1-2.7.1-1.5.1-3,.1-4.5.3h-.6c-1.9-.1-3.8.1-5.8.1s-3.9.1-5.9.1c-4.9.1-9.7,0-14.6.1-1.1,0-2.1-.1-3.2-.1-.2,0-.3,0-.4-.1,0-.3.2-.2.4-.2,1.4,0,2.8-.1,4.2.1.6.1,1.1-.1,1.7-.1h2c.3,0,.4-.1.4-.4,0-.5.1-.9.5-1.2.3-.3.4-.2.6.1q0,.1.1.2c.1.2.2.4.4.3.2-.1.1-.3,0-.5,0-.3-.1-.5-.1-.8q-.1-.5.4-.7c-.4-.5-.1-1.1-.3-1.7-.1-.2-.1-.3-.3-.4-.4-.1-.6-.4-.5-.8.1-.7.2-.8.7-.9.5-.1.8.1,1,.6.1.2,0,.5.3.5s.7.1,1-.2c.6-.5.7-.5,1.4-.1.1.1.2.1.3.1.1-.1.1-.2.1-.3,0-.2-.2-.1-.3-.2-.6-.1-1.2-.1-1.7-.4-.1-.1-.3-.1-.4-.1s-.3,0-.3-.1c-.3-.5-.9-.1-1.3-.2-.4-.2-.9-.2-1.3-.2-.8,0-1.6-.2-2.4-.2-.1,0-.3,0-.2-.2h0c.7-.1,1.3,0,2,0,.1-.1.3,0,.4-.2Z"/>
      <path class="cls-35" d="M2.2,60.92c0-1.3,0-2.6.1-3.9.1-.3.1-.7,0-1-.1-2.2,0-4.3.1-6.5.1-.4.1-.9,0-1.3,0-1.9,0-3.7.1-5.6.1-4.5.1-9,.1-13.5v-14.7c.1-.4-.1-.4-.4-.4,0-.1.1-.2.2-.2.2,0,.3,0,.5.1.3.3.2.9.4,1.5.2-.3.1-.6.1-.8,0-.1,0-.2.1-.2s.2,0,.2.1c.2.5.7.5,1.2.5.4,0,.9,0,1.3-.1.3,0,.7-.1.9-.3.1-.1.3-.1.4,0,.1.3.3.3.6.3.1,0,.2,0,.2.1.1.1.3.1.3.3s-.2.2-.3.2c-.9.2-1.8.2-2.8.1-.5,0-1.1-.1-1.5.2.1.2.2.1.3.2.1,0,.2,0,.2.2,0,.1-.1.2-.2.2h-.2c-.1,0-.2,0-.2.1s.1.2.2.3c.6.5,1,1,1.7,1.3.9.4,1.8.9,2.7,1.1.3.1.6.2.9.1.1,0,.3.1.3.2.2.5.6.6,1.1.5.2-.1.4,0,.6,0,.6.2,1.2.4,1.8.5.1,0,.2,0,.2.2,0,.1-.1.1-.2.2-.4.2-.8.2-1.2.2-2-.1-3.4.9-4.4,2.5-.1.1-.2.3-.2.4.4-.8,1-1.5,1.7-2,.8-.6,1.7-.6,2.6-.2.2.1.2.3,0,.4-.2.2-.4.2-.6.2-.2.1-.5,0-.6.3v.1c-.4.3-.8.4-1.1.7-.7.6-1,1.4-1.2,2.2-.1,1.1.1,2.2.1,3.2v.8c0,1.4.1,2.7.1,4.1,0,.2.1.5.1.7v8.9c0,.2,0,.5.1.7.1.5,0,1.1,0,1.6v6.7c0,.2,0,.4-.1.6-.3-.1-.2-.4-.2-.6v-3.5c0,.7-.1,1.5-.1,2.4,0,.2,0,.4-.1.6-.1.2-.2.3-.4.3s-.4-.1-.4-.4c0-.2-.1-.4-.1-.6,0-1.3-.1-2.6-.2-3.8,0-.5.1-1.1,0-1.6v.9c.1.8,0,1.7-.2,2.5-.1.4-.1.9-.1,1.3,0,.2-.1.5-.3.6-.2.2-.4.4-.4.7,0,.2-.1.4-.3.3-.2,0-.3-.2-.3-.4,0-.3-.1-.6-.2-.9-.1-.3-.3-.5-.6-.5-.2,0-.3-.2-.4-.4-.1-.3-.3-.5-.5-.7q-.1,0-.1.1c0,2.6-.2,5.1-.3,7.7v3.9c-.1,1,0,1.9.2,2.9.1.7,0,1.4,0,2.1,0,.2,0,.4.1.6v.4c-.3,1.2-.3,2.4-.2,3.6.1.7.1,1.4.3,2.1.1.4-.1.7-.1,1.1,0,.7-.1,1.5-.3,2.2,0,.2-.1.4-.3.4s-.3-.2-.3-.4c-.1-.2-.1-.5-.1-.7-.1-1.4-.1-2.7-.1-4.1s-.1-2.8,0-4.2c.1-.9,0-1.9,0-2.8s0-1.8.2-2.6c0-.2.1-.3.1-.5-.1-.6-.1-1.1.2-1.7.1-.2.1-.5-.1-.7-.1-.1-.2-.3-.1-.4.3-.6-.1-1.1-.1-1.7.1-.6.1-1.2,0-1.8v-.2c0-.2,0-.4.3-.4.2,0,.1.2.1.4v.2c0-.3,0-.6-.2-.8-.2-.1-.1-.4,0-.6.1-.3.1-.5,0-.8-.1-.2-.1-.5-.1-.7v-3.8c.1-1.4.1-2.9,0-4.3,0,.7-.1,1.3,0,2,.1,1.1,0,2.3-.1,3.4v.5c.1,1.6,0,3.2,0,4.7.1,2.2-.1,4.3-.1,6.5,0,1.7-.1,3.4-.1,5,0,1.7-.2,3.4-.1,5.1,0,.5,0,.9.1,1.4,0,.2.2.6-.3.6v.1c.1.5,0,1,0,1.5,0,.2.1.5-.1.6,0-.1-.1-.1-.1-.2,0-1.7-.1-3.4,0-5.1.1.5,0,1,.1,1.4v-6.2c0-.9,0-1.9.1-2.8.1.1,0,.2.1.4-.1-.6,0-1.1-.1-1.7Z"/>
      <path class="cls-9" d="M2.1,74.52v-1.7c.4.2.3-.1.3-.3-.2-1.3-.1-2.6-.1-3.8v-5.2c0-1.5.1-2.9.1-4.4,0-1,.1-2,.1-3v-1.7c0-.9-.1-1.9.1-2.8,0-.3-.1-.5-.1-.8,0-1.2,0-2.3.2-3.5v-1.4c-.1-.8,0-1.6,0-2.5,0-.1,0-.2.1-.2s.2.1.2.2v2.3c0,.4-.1.7,0,1.1.1.3-.1.6-.1.9v4.3c0,.2,0,.3.1.5.1.3.1.5,0,.8s-.3.6.1.7v1.3c-.3-.3,0-.8-.2-1.1-.2.1-.1.2-.1.4.1.8,0,1.6,0,2.4,0,.1,0,.3.1.4.3.3.3.5,0,.8-.1.1-.1.3,0,.4.4.4.3.8,0,1.2-.1.3-.1.5-.1.8.1.4.1.8-.1,1.2-.1.3-.1.6-.1,1v4c0,.8-.1,1.5-.1,2.3,0,1.6.1,3.2.1,4.8,0,.6.1,1.2.1,1.7,0,.3.1.7.3.7s.2-.4.2-.6c.1-.7.1-1.4.2-2.1.3-1.2-.2-2.2-.3-3.3,0-.7.1-1.4.1-2.1,0-.1.1-.3,0-.4,0-.1-.1-.2,0-.3.5-.9,0-1.9.1-2.9.1-.7-.1-1.5-.2-2.2-.1-.7-.1-1.4,0-2,.1-.3-.1-.7-.1-1,.3-1.9.3-3.8.4-5.8,0-1.1,0-2.2.2-3.2.1-.3,0-.7-.1-1,0-.2,0-.3.2-.4.2,0,.1.2.2.3.2.3.4.7.6,1,.1.1.2.2.3.1.1-.1.3-.1.4,0,.3.4.6.8.5,1.3,0,.2-.1.3.1.4.1,0,.1.1.2,0,.1-.1.1-.3.1-.4-.1-.3.1-.4.3-.5.4-.4.5-.7.4-1.2-.1-.2-.1-.3.1-.4.1-.1.1-.2.1-.3,0-1.1.1-2.3.1-3.4,0-.1,0-.4.2-.3.2,0,.2.2.2.4-.1,1.6,0,3.1.1,4.7,0,.4.1.9.1,1.3,0,.3.2.3.3.3.2.1.2-.1.3-.2.2-.4.1-.8.1-1.2,0-.9.2-1.7.1-2.6h.2v4.9c.2.3.1.7.1,1,0,.4-.1.7,0,1.1,0,.5-.2,1-.1,1.5,0,.2.1.4-.2.5-.2.1-.4-.1-.5-.2s-.2-.3-.3-.2c-.2.1-.1.3-.1.5,0,.3.1.6.1.9.1-.1.1-.2.1-.3.1-.4.2-.5.7-.4.3,0,.3.3.3.5,0,.8.2.9-.9,1.3-.2.1-.2.2-.2.4v6.3c0,.7,0,1.3.1,2,0,.2,0,.4.2.4.2.1.2-.2.3-.3q.1-.1.2-.1c.2.4.1.8.1,1.3,0,.7-.1,1.3.2,2,.1.3.2.6.4.8.1.1.2.3.1.5-.2.3-.4.2-.7.1-.9-.4-1.3-1.7-1.2-2.5.1-.7,0-1.4,0-2,0-.1,0-.3-.2-.2-.1,0-.1.2-.1.3-.1.5,0,1-.3,1.4-.1.1-.1.2-.3.2-.3,0-1-.4-1.1-.7-.1-.2-.2-.3-.4-.3s-.3.2-.3.4c0,.4,0,.8-.2,1.2-.1.2,0,.5.1.6.4.4.3.9.3,1.4,0,.3,0,.5.1.7.2.2.1.5,0,.7-.4.5-.6,1.1-.5,1.8,0,.2-.1.2-.2.3-.1.1-.3.2-.2.4.2.6-.3,1-.2,1.6,0,.2-.2.4-.4.4-.3.1-.4.3-.2.5-.1,0,0,.1,0,.2.1.1.2.2.1.3-.2.1-.3-.1-.3-.2-.5-.9-.6-1.8-.8-2.7-.1,0,0,.1-.1.2-.1-.1-.1-.3-.1-.5v-1.8Z"/>
      <path class="cls-49" d="M2.3,13.82q-.1,0-.2.1c-.3.1-.7,0-1,0-.4-.1-.8-.7-.7-1,.2-.5,0-1-.1-1.6,0-.3-.1-.5-.1-.8,0-1.5,0-2.9.2-4.4,0-.2-.1-.4,0-.5.1-.2.4-.2.6-.3,3.4-.2,6.8-.4,10.2-.5h.2l.1.1c.9-.1,1.9.3,2.8.1.3,0,.6.1.9.2.4.1.7.1,1.1,0,.1,0,.3-.1.3.1-.1.4.2.3.4.3.3,0,.5,0,.7.2.1.1.2.1.4.1.3,0,.5,0,.7.2.1.1.2.1.3.1s.4-.2.4.1c0,.2.1.5-.2.7-.2.1-.3,0-.5-.1-.6-.5-.8-.5-1.3.1-.2.2-.4.1-.6.2-.6,0-.9,0-1-.6s-.6-.8-1.2-.5c-.3.2-.3.6-.3,1,0,.3.1.5.5.5.2,0,.4.1.4.4,0,.2,0,.4.1.5s.1.2.1.3c-.2.3-.1.5.1.7.1.1.2.2.1.3-.1.1-.2,0-.3,0-.3-.1-.4.1-.3.3.2.4.2.9.3,1.4,0,.1,0,.2-.1.3-.1.1-.2,0-.3,0-.2-.1-.4-.3-.5-.6,0-.3-.2-.4-.4-.1-.3.4-.6.8-.4,1.4.1.2,0,.2-.1.3-.1,0-.2.1-.4.1-1.2,0-2.4.1-3.6.1-1.6,0-3.2,0-4.7-.1-.2.2-.4.1-.6.1-.9,0-1.9,0-2.8-.1.2,0,.5,0,.7.1.3.1.4.2.5.5,0,.2-.2.3-.4.3Z"/>
      <path class="cls-63" d="M45.2,37.52c.1-1.4.2-2.8.4-4.1.1.6.1,1.1,0,1.7,0,.3-.1.7-.1.9-.1-.4.1-.9.2-1.5v-.5c0-.5,0-1,.2-1.5s.1-1.1,0-1.6c0-.4,0-.7.5-.8-.3-.1-.5-.1-.4-.4,0-.3.3-.3.5-.4-.2-.1-.3-.4-.2-.6.1-.3.3-.3.5-.2.3.1.7,0,1,0,.4,0,.6.1.6.5,0,.2,0,.5-.1.7s0,.3.2.3c.9,0,1.2.4,1.2,1.2,0,1.1-.2,2.3-.4,3.4-.1.6-.2,1.2,0,1.9,0,.5,0,1.1-.2,1.6q-.2-.1-.1-.7c0,.6-.1,1.1-.2,1.7,0,.1,0,.2-.1.3-.1,0-.2-.1-.3-.2-.1-.3-.4-.5-.5-.8s-.2-.2-.4-.1c-.2.2-.3.5-.3.8.1.3.4.5.7.6s.7-.1.9.3c.2.3-.1.6-.2.9v.3c0,.2,0,.4-.3.3-.2,0-.3-.2-.3-.4,0-.5-.1-.7-.6-.7-.2,0-.3,0-.4.1-.1.1-.1.3,0,.4.2.3.3.6.3,1,0,.2.1.3.3.3.1,0,.2-.1.3-.1.1-.1.1-.4.4-.4s.2.3.3.5c0,.6-.1,1.2-.4,1.8-.3.7-.5,1.4-.4,2.2,0,.6-.1,1.2-.2,1.7-.4,2-.9,3.9-1.4,5.9-.2.6-.3,1.2-.4,1.8,0,.2,0,.4-.2.6-.2-.1-.1-.2-.1-.3-.1.3,0,.7,0,1.1,0,.2,0,.4-.2.4s-.4-.2-.4-.4c-.2-.9-.4-1.7-.2-2.6.1-.8,0-1.6.2-2.4.1-.5.2-1.1.3-1.6v-.7c0-.5-.1-.9.4-1.3.2-.1.3-.4.2-.5-.3-.3-.2-.7-.2-1.1v-1.1c0-.2,0-.5.1-.7.1-.1.1-.2.1-.3-.1-.4,0-.7.1-1,.2-.6,0-1.2-.2-1.7,0-.1-.1-.2-.1-.2,0-.1,0-.2-.1,0-.1.1-.2-.1-.2-.2,0-.2.1-.5.1-.7,0-.1.1-.1.2-.1.6.2.8,0,1.1-.7v-.1c.1-.4-.1-.8-.4-1-.2-.2-.3-.4-.2-.7,0-.3.2-.6-.2-.7-.1,0-.1-.1-.1-.2-.4-.1-.4.1-.6.1Z"/>
      <path class="cls-30" d="M66.5,36.62c1,1.7,2.2,3.1,3.5,4.5s2.7,2.8,3.9,4.3c1.4,1.6,2.3,3.4,3.2,5.4.3.8.7,1.6,1,2.4,0,0,.1.1,0,.1-.4.1-.3.5-.2.7q0,.1.1.2c.8,2,1.4,4.1,1.9,6.2.3,1.1.5,2.3.6,3.5.1.6.2,1.3.2,1.9.1,1.2-.1,2.3-.4,3.4,0,.1-.1.3-.2.3-.2,0-.2-.2-.2-.3,0-.3.1-.5.1-.8.1-1,.1-1.9,0-2.9-.2-1.1-.5-2.3-.7-3.4-.1-.3-.2-.6-.4-.9-.3-.4-.3-.9-.4-1.4-.1-.2-.1-.4-.2-.6-.4-.9-.7-1.9-1-2.9-.2-.6-.6-1.2-.7-1.9-.1-.3-.2-.6-.4-.9-.1-.1-.2-.2-.2-.3-.3-1.2-1-2-1.6-3-.3,0-.5,0-.7,0,.2.4.4.7.7,1,.2.2.2.4,0,.6-1.1-1.7-2.2-3.4-3.5-5,0,0-.1-.1-.1-.2,0-.2.1-.2.2-.1.1,0,.2.2.3.3.2.3.4.5.7.3-.1-.2-.3-.3-.4-.4-.2-.1-.3-.2-.3-.5s-.2-.5-.3-.7c-1.1-1.6-2.2-3.1-3.3-4.6-.7-1-1.5-1.9-2.1-2.9-.4-.7-.7-1.4-.8-2.3,0-.2,0-.4.2-.4s.2.2.3.4c.1.4.3.8.7,1,.3.2.5.4.8.6-.1-.3-.2-.5-.4-.7q-.1,0,.1,0Z"/>
      <path class="cls-61" d="M54.8,41.22c-.4,1-.7,2.1-1.1,3.1-1,3.2-2.4,6.2-3.7,9.2-.5,1-1,2.1-1.3,3.2-.3,1.2-.3,2.3.2,3.5,1.9,4.1,4,8.1,6.4,12,1,1.6,2.2,3.2,3.6,4.5.5.4,1,.8,1.5,1.2.1.2.2.4-.1.5-.1,0-.2,0-.2-.1-.3-.3-.7-.5-1.1-.5-.8-.2-1.4-.8-2-1.2-.6-.4-1-1-1.6-1.3-.1-.1-.3-.2-.4-.3-.2-.2-.3-.5-.4-.8-.1-.6-.5-1-.8-1.4-.2-.2-.3-.4-.4-.6-.2-.4-.4-.8-.8-1-.2-.1-.4-.3-.4-.6-.2-.8-.6-1.4-1-2.1-1.4-2.6-2.5-5.4-2.9-8.4-.1-.6-.3-1.3-.4-1.9-.2-1.6.1-3.2.5-4.7.5-2,1.4-3.8,2.1-5.8.5-1.4,1.1-2.7,1.5-4.1.1-.3.2-.6.4-.8.3.1.5.2.4.6,0,.1,0,.2.1.2.3.3.2.6,0,.9.6-.1.7-.2.8-.9.1-.3.2-.7.3-.9s.1-.4.1-.6c0-.3-.1-.4-.4-.3-.2,0-.5.1-.5-.2s.3-.3.6-.3h.1c.3.2.5.2.6-.2,0-.1.1-.1.2-.1.2,0,.2.1.1.2Z"/>
      <path class="cls-11" d="M2.3,13.82c.2-.1.4-.2.3-.5-.1-.2-.3-.4-.6-.4h-.5c-.1,0-.3,0-.5-.3,1.4.1,2.7.1,4,.1.1.1.2.1.3.1,1.9,0,3.7.1,5.6.1h10.7c1.4,0,2.9,0,4.3-.1.8,0,1.6.1,2.3,0,.9-.1,1.7,0,2.6-.1,1.4-.1,2.8,0,4.1-.1,1.9-.1,3.8-.2,5.6-.3,1.4-.1,2.7-.2,4.1-.1.2,0,.3,0,.3.2s-.1.4-.3.4c-.4,0-.5.2-.8.4.3.3.7-.2,1,.1-.2.2-.5.1-.8.2-.3,0-.3.2-.3.4-.1.8,0,1.7-.1,2.6,0,.2.1.5-.1.5-.3,0-.2-.3-.2-.5v-2.6c0-.2-.1-.3-.3-.3-1.1.1-2.1.1-3.1.2-1.1,0-2.2.1-3.2.1h-.4c-1.1,0-2.1.1-3.2.1h-.6c-.1,0-.2-.1-.3,0-.6.2-1.2,0-1.8.1-1.6,0-3.3.1-4.9.2h-13.2c-2,0-3.9,0-5.9-.2-1-.1-2,0-3.1,0-.2,0-.5,0-.7-.1,0-.1-.2-.1-.3-.2Z"/>
      <path class="cls-25" d="M48.5,4.32c.7.7,1.6,1.1,2.3,1.7,1.7,1.5,3.4,3,4.9,4.7,0,.2,0,.1-.1.1-.2-.1-.3-.3-.5-.4.2.2.3.4.5.5.2.2.3.4-.1.5-.6-.3-.9-.8-1.4-1.2-.4-.3-.8-.7-1.3-1-.3.1-.5-.1-.6-.3-.4-.7-1-1.2-1.6-1.7q-.1-.1-.2-.2c-.1-.1-.2-.1-.3-.1-.1.1-.1.2-.1.3.1.2.2.5-.2.6-.7-.5-1.3-1-2-1.5-.2-.1-.3-.4-.7-.2-.1.1-.3-.1-.5-.2-.2-.1-.4-.3-.7-.3-.2,0-.3-.1-.5-.2-.7-.5-1.5-.7-2.2-1.2-.4-.3-.8-.2-1.1,0s-.7.3-1.1.3c-.5,0-.9-.2-1.3-.5-.3-.2-.7-.3-1-.2h-.3c-.7-.3-1.4-.3-2.1-.5-.7-.5-1.6-.5-2.4-.7-.1,0-.2,0-.3-.1-.1,0-.2-.1-.2-.2s.1-.1.2-.1c.2-.1.5.1.6-.2.2-.3.1-.6.1-.8q0-.8-.8-.8h-1.6c-.2,0-.4.1-.4-.2.2-.1.5-.2.7-.2,1.2-.1,2.4.2,3.5.5.9.2,1.9.4,2.9.4.3,0,.7-.1.5.5.3-.3.6-.3.9-.2.3.1.5,0,.8,0,1.1-.1,2,.5,3,.8.1.1.2,0,.2.2-.2.5-.2.6.3.8.6.3,1.2.7,1.8,1,.5.3,1.1.5,1.5.9.2,0,.3-.2.4-.3.3-.2.3-.4.5-.3Z"/>
      <path class="cls-54" d="M49.2,36.52c-.2-.1-.1-.3-.1-.4,0-.7.1-1.5.2-2.2.1-1,.3-1.9.2-2.9,0-.2,0-.5-.4-.4,0,0-.1,0-.1-.1-.2-.3-.4-.3-.7-.2-.1,0-.2,0-.3-.1s0-.2.1-.3c.2-.3.1-.6.2-1,0-.2-.1-.3-.4-.2-.4.1-.8.1-1.2,0-.2-.1-.4,0-.4.3,0,.2,0,.4.3.3.1,0,.2,0,.2.1s-.1.1-.2.1-.3.1-.4.1c-.2,0-.2.1-.2.3s.1.2.2.1c.2,0,.3.1.3.2,0,.2-.2.1-.3.1-.3.1-.4.2-.3.6.1.5.1,1.1,0,1.6,0,.3-.3.6-.3,1v.6c.1.3,0,.6,0,.9-.1.4-.2.7-.1,1.1,0,.2-.1.3-.2.5-.1-1.1.3-2.1.2-3.1.1-2.1.4-4.3.5-6.4.2-2.3.4-4.7.7-7,.1-.8.2-1.7.4-2.5,1.2-.6,1.8-.3,1.8,1.1,0,.5,0,1-.1,1.4v.3c0,.7,0,1.4-.2,2.1-.2.5-.1.6.4.8.3.2.6.4,1,.5.2.1.2.2.2.4,0,.4,0,.8-.1,1.2-.1.3,0,.7,0,1,0,1-.2,1.9-.3,2.9,0,.5-.1.9,0,1.4-.1,1.5-.2,2.9-.4,4.4,0,.3-.1.7-.1,1,.1.1.1.3-.1.4Z"/>
      <path class="cls-43" d="M54.8,41.22v-.2c-.2.1-.2.4-.3.6-.3-.1-.6-.5-1-.3-.1,0-.2,0-.2.2s.2.1.3.1.2-.1.3,0c.2,0,.3,0,.4.4.1.5-.2.8-.3,1.2-.2.4-.2.9-.4,1.3-.2.3-.6.1-.8.4,0,0-.1-.2,0-.3.2-.3.3-.7-.1-.9,0,0-.1-.2,0-.2.5-.3-.2-.4-.1-.6-.1-.2,0-.4.1-.6.5-1.3,1-2.5,1.5-3.8.7-2.1,1.2-4.1,1.2-6.3,0-2-.2-3.9-.4-5.9-.1-1.2-.2-2.3-.2-3.5,0-1.7-.1-3.5-.3-5.2v-.4c.4-.1.5.2.5.4.3,1.1.8,2.2.8,3.4,0-.1,0-.2.1-.3.2.9.2,1.8.2,2.7.2,3.5.3,7.1.3,10.6,0,1.9-.4,3.7-.9,5.6-.2.4-.4,1.1-.7,1.6Z"/>
      <path class="cls-59" d="M55.9,20.52v.5c-.2-.4-.1-.8-.2-1.2-.2-.8-.6-1.6-.8-2.5-.1-.2-.2-.3-.4-.4-.3,0-.3-.3-.5-.5-.5-.8-1.2-1.5-2-1.9-.4-.2-.5-.2-.6.3-.3,1.8-.3,3.6-.5,5.4-.2,1.4-.2,2.8-.4,4.1-.1,1.3-.2,2.5-.3,3.8-.1.7-.2,1.4-.2,2.1,0,.1,0,.2-.1.3-.1-.1-.1-.2-.1-.3,0-1,.1-2,.3-2.9.1-.5.1-1,.1-1.4,0-.6.3-1.1.2-1.7,0-.1,0-.3-.1-.3-.4-.1-.7-.5-1.1-.6-.5-.1-.5-.4-.5-.7,0-.2,0-.5.2-.7.2-.3.2-.6.2-.9-.1-.7.1-1.4.2-2.1.1-.4,0-.9-.1-1.3-.1-.5-.9-.5-1.4-.1-.3.2-.2,0-.2-.1.3-1.7,1-3.1,2.7-3.8.7-.3,1.3-.6,2-.8.7-.2,1.3,0,1.7.6.3.4.5.9.6,1.4.3,1,.6,2,.9,3,0,.8.3,1.7.4,2.7Z"/>
      <path class="cls-10" d="M55.5,11.42c.3-.1.2-.4,0-.4-.4-.1-.3-.6-.7-.7.2-.1.3.1.4.2.2.1.2.4.5.3,1.5,1.5,2.7,3.2,3.9,5,1.4,2.3,2.5,4.8,3.5,7.3,1.1,2.6,1.7,5.3,2,8,.2,1.6.3,3.2,1,4.7.1.3.3.6.4.9-.1,0-.2.1-.1.2.2.2.3.6.5.8q.1.1,0,.2c-.1.1-.2.1-.2,0-.4-.6-1.2-.8-1.5-1.5,0-.1-.1-.1-.1-.2.1-.2.1-.3-.1-.4-.2,0-.1.2-.1.3-.2-.1-.2-.3-.3-.5-.3-1.2-.4-2.4-.5-3.6-.1-1-.3-2-.5-3-.4-2.4-1.2-4.6-2-6.9-.9-2.3-1.9-4.6-3.2-6.7-.8-1.2-1.7-2.4-2.7-3.5-.1-.2-.3-.3-.2-.5Z"/>
      <path class="cls-47" d="M74.4,51.82c.2-.2.1-.4-.1-.6-.3-.3-.6-.7-.8-1.2.1-.1.2,0,.3,0,.2-.1.5-.1.6.3.1.4.6.6.8,1,.3.6.6,1.2.9,1.8.3.7.6,1.4.9,2.1.3.7.6,1.4.8,2.1.1.4.2.7.4,1,.1.2.2.4.2.7.4,1.6.8,3.1,1,4.7.1,1.8.1,3.7-.2,5.5-.1.7-.4,1.3-.7,1.9-.1.4-.2.8-.5,1.2-.1.2-.2.3-.4.1-.1-.1-.2,0-.3.1l-.6.6c-.2.3-.3.3-.5,0,.3-.5.5-1,.8-1.5.8-1.6,1.3-3.3,1.6-5.1.4-2.1.1-4.1-.5-6.1-.9-3-1.9-6-3.5-8.7q-.1.2-.2.1Z"/>
      <path class="cls-41" d="M79.9,69.22c0,.1,0,.2.1.2s.1-.1.1-.1c.2-1.2.5-2.4.4-3.6,0-.8-.2-1.6-.3-2.4-.1-1-.3-2.1-.6-3.1-.2-.8-.4-1.7-.6-2.5-.1-.5-.4-1-.5-1.5-.2-.8-.6-1.6-.8-2.3-.1-.4,0-.6.4-.8.1.1.1.2.1.3.1.5.2,1,.5,1.4.2.3.3.6.4.9,0,.2,0,.4.2.5.5,1.1.9,2.3,1.2,3.5.3,1.3.7,2.6.9,3.9.3,1.6.2,3.3-.3,4.9-.6,1.7-1.3,3.3-2.3,4.8-.1.1-.2.3-.3.4-.2.2-.2,0-.3-.1.2-.6.5-1,.7-1.6.3-.8.5-1.5.7-2.3.1-.2.1-.4.3-.5Z"/>
      <path class="cls-10" d="M76.1,73.42c.2-.2.3-.1.3.2.2-.5.6-.7.9-1.1.2-.3.3.1.4.2.4-.4.4-1,.6-1.5.4-1.1.7-2.2.8-3.4.1-1,.1-2,.1-3.1,0-1-.1-2.1-.4-3.1-.1-.3-.2-.7-.2-1,0-.5-.4-1-.3-1.5.3.3.3.7.4,1.1.1.3.1.6.3.9.2.8.4,1.6.4,2.4.1,1.2.2,2.5.1,3.7-.1,2.7-1.2,5-2.3,7.3q-.2.4-.2.6c.3.1.2.2.1.4-.3.4-.6.9-.9,1.2-.2.2-.4.5-.5.7-.1.1-.1.2-.2.2.2,0,.2-.2.3-.2s.3-.1.2.2c-.8.9-1.8,1.6-2.8,2.1-.2,0-.3.1-.5-.1-.1-.2-.3-.1-.4-.1s-.2.1-.3.1-.2,0-.3-.2c0-.1.1-.2.2-.2.2-.1.4-.1.6-.2s.4-.2.4-.5c1-1.5,2.1-3.4,3.2-5.1Z"/>
      <path class="cls-54" d="M45.2,37.52c.1-.1.1-.3.1-.4s0-.3.1-.3c.2,0,.1.1.1.2h0c0,.3.1.4.4.2.1.3-.1.5-.1.8-.1.5.1.7.5.7.2,0,.4,0,.4.2.1.2-.1.3-.2.4-.3.3-.2.7-.4,1-.3.3-.7.5-1.1.3,0,.3-.1.6-.1.9.3-.1.1-.5.4-.5-.3.4.1.6.2.9.2.7.3,1.4,0,2.1,0,.1-.1.2,0,.3.2.3.1.5-.1.8-.1,0,0,.2,0,.3.1.5.1,1.1,0,1.5s.2.5.3.8c.1.2,0,.6-.2.6-.6.2-.5.7-.5,1.2,0,.3.2.6-.1.9-.1.1,0,.2,0,.3.1.2.1.3-.1.5-.3.4-.1.9-.2,1.4-.2.8,0,1.5-.2,2.3-.2.7.2,1.3.3,2,0,.1.2.2.3.3.3-.5,0-1.1.3-1.6v.4c.1.1.1.2.1.3-.1.3-.1.6,0,.9v.1c-.1.2,0,.4,0,.5,0,.2,0,.3-.2.4s-.2-.1-.3-.2c0-.1-.1-.2-.2-.3-.4-1-.6-2.1-.5-3.2-.1-1.2-.1-2.4,0-3.7-.1-.3,0-.6,0-1,.1-.3,0-.7.1-1v-1c.1-.4,0-.8.1-1.2v-.2c.1-.3,0-.7.1-1-.1-1,.1-1.9.2-2.9.1-1.5.3-3.3.5-5Z"/>
      <path class="cls-52" d="M72.7,78.72c.2.3-.1.4-.3.6-.3.1-.6.1-.8.3.2.2.3.1.4,0,.2,0,.6-.3.6.2,0,.2.3-.1.3.1-1.5,1.4-3.3,2.1-5.4,2-4.4-.2-7.9-2.1-10.9-5.1-.6-.6-1.1-1.1-1.6-1.8,0-.1,0-.2.1-.2.1.1.3.1.4.3.5.3.8.8,1.2,1.2,2.5,2.7,5.5,4.4,9.2,5,1.4.2,2.8,0,4.2-.7-1.4,0-2.6-.1-3.9-.4-1.8-.4-3.6-1-5.3-1.6-.2-.1-.4-.1-.4-.3.1-.1.2-.2,0-.4-.1,0,.1,0,.1-.1,2.7,1.6,5.6,2,8.7,1.7.8-.1,1.5-.1,2.3-.3.3,0,.8-.1,1.1-.5Z"/>
      <path class="cls-20" d="M71.4,46.42c-.1.3.1.3.3.4s.4.3.5.4c.1.1.1.2,0,.3s-.2,0-.2-.1c0,0,0-.1-.1-.1-.6.3-.5-.4-.8-.5-.1-.1-.1-.2-.3-.1-1-1.1-2.1-2.2-3.1-3.3-.5-.5-1-1.1-1.6-1.5-1.6-1.5-2.7-3.4-3.2-5.5-.4-1.7-.6-3.5-.9-5.3-.4-2.3-1.1-4.5-1.8-6.7-.1-.3-.2-.6-.2-.9.4,0,.3.4.4.6.1.1,0,.3.2.2.3.3.4.8.5,1.2.9,2.6,1.5,5.2,1.8,7.9.3,2.5,1.2,4.7,2.8,6.7,1.2,1.5,2.5,2.9,3.9,4.3.6.5,1.2,1,1.6,1.6.1.1.2.2.2.4Z"/>
      <path class="cls-12" d="M43.6,13.72v3.2c.1-.1.1-.2.1-.3v-2.2c0-.1-.1-.3.1-.4,0,2.5-.1,5.1-.1,7.6-.1,4.4-.1,8.8-.2,13.2v.4h-.1q0-.1-.1-.2c-.1-.1-.1-.3-.1-.5,0-2.6.1-5.1.1-7.7v-2.3c0-1,0-2,.1-3v-.1c0-.1-.1,0,0,0h0c0,.8-.1,1.6-.1,2.5,0,1.8-.2,3.6-.1,5.3,0,.2.1.5-.2.6-.2-.6-.2-1.3-.2-1.9.1-1.6.1-3.2.1-4.8,0-1.3.2-2.5.3-3.8,0-.9.2-1.8.1-2.8v-.6c0-.3,0-.6-.1-.9,0-.5-.1-1,.1-1.5-.1.1.1.1.3.2Z"/>
      <path class="cls-71" d="M36.5,3.22c-1.2-.2-2.4-.2-3.6-.6-.4-.1-.8-.3-1.2-.5-.1-.1-.3-.2-.2-.3,0-.6-.4-.5-.7-.5h-.5c0-.3.2-.2.4-.2h.8c.1-.3-.3-.2-.2-.4.5.1.4-.4.6-.6.1.2.3,0,.5,0h2.2c.1,0,.3.1.3.3-.1.4,0,.8,0,1.2-.1.5-.2.7-.7.6-.1,0-.2,0-.4.1.6.1,1.3.3,1.9.4.2.2.5.4.8.5Z"/>
      <path class="cls-18" d="M55.1,74.82c0,.1,0,.2-.1.2-1.3-1.3-2.3-2.9-3.1-4.5-1.9-3.5-4.1-6.9-6-10.4-.4-.8-.9-1.5-1.1-2.4.2,0,.2.1.3.2,0,.1,0,.3.2.2.1,0,.1-.2.1-.3,0-.2-.2-.4,0-.5.2.2.2.4.3.6.6,2.3,1.8,4.4,3,6.4,1.2,1.8,2.3,3.7,3.4,5.6.1.2.2.4.3.7.2.5.7.6,1,1,.4.8,1.1,1.5,1.5,2.3,0,.3-.1.7.2.9Z"/>
      <path class="cls-16" d="M31.1.72c.1.1.2.1.3.1.2,0,.2.2.2.3,0,.2-.1.1-.2.1-.4,0-.8-.1-1.1.1-1.1.3-2.3.7-3.5.7-.8,0-1.6,0-2.4.2-.1,0-.2-.1-.3-.2.4-.4.9-.4,1.3-.4.5-.1,1.1,0,1.6,0,.8-.1,1.5-.2,2.3-.5.2-.1.4-.1.6-.1-1.6.1-3.3.2-4.9.6-.4.1-.8.3-1.2.3-.2.4-.3.1-.4-.1,1.1-.5,2.2-.8,3.4-.9,1.4-.2,2.8-.3,4.3-.2Z"/>
      <path class="cls-58" d="M49.9,7.82c.2-.1.3-.3.1-.5-.1-.2-.1-.4.1-.5.2-.1.3,0,.4.1.5.6,1.2,1.1,1.7,1.8.1.2.3.5.7.4.6.9,1.3,1.7,1.9,2.6.1.1.2.3.2.5,0,.1,0,.2-.1.3-.3-.3-.6-.6-.8-.9-1.2-1.5-2.7-2.7-4.2-3.8Z"/>
      <path class="cls-50" d="M54.8,12.52c0-.1,0-.2.1-.3.2,0,.3.2.4.3.5.6.9,1.3,1.3,2,1.3,2.6,2.5,5.2,3.5,7.9.2.6.4,1.2.5,1.8,0,.1,0,.2-.1.2s-.1-.1-.1-.2c-.1-.3,0-.6-.3-.8-.4-1.1-.8-2.3-1.3-3.4-1.1-2.6-2.3-5.2-4-7.5Z"/>
      <path class="cls-44" d="M.4,5.62c.3.3.1.6.1.9-.1.9-.1,1.9-.1,2.8,0,.5-.1,1,0,1.4.1.6.1,1.2.3,1.7,0,.1.1.2,0,.3-.3.5-.2.9.3,1.3-.6,0-.9-.3-.9-1,0-1.5-.1-3-.1-4.4,0-.8,0-1.6.1-2.5.2-.2.1-.4.3-.5Z"/>
      <path class="cls-8" d="M75.8,77.82c-.2-.2-.2,0-.3.1-.3.2-.4.1-.5-.2.3.1.4-.1.5-.3.3-.4.6-.8,1-1.2.2-.2.3-.5.5-.7.1-.1,0-.1-.1-.2,0-.2.1-.3.2-.4.3-.4.6-.7.9-1.1.1-.1.1-.2.3-.2,0,.1.1.2.2.1-.8,1.4-1.6,2.8-2.7,4.1Z"/>
      <path class="cls-64" d="M44.1,2.12q-.1-.1-.2-.2c.5-.2.9.1,1.3.3.8.4,1.6.9,2.5,1.3.2.1.4.2.6.3.2.1.3.2.1.4-.2.1-.3,0-.5-.1-.8-.4-1.7-.8-2.5-1.2-.2-.1-.3-.2-.5,0-.3.2-.5,0-.7-.2-.1-.1-.1-.2,0-.3.2-.3-.1-.2-.1-.3Z"/>
      <path class="cls-9" d="M2.1,65.02c.1.1.1.2.1.3v5.9q0,.1-.1.2v-6.4Z"/>
      <path class="cls-57" d="M43.3,35.22h0c.1,1.9.1,3.8,0,5.7v-5.7Z"/>
      <path class="cls-39" d="M48.3,4.12c.2-.2,0-.2-.1-.3-.2-.1-.4-.1-.5-.3.8.2.8.3.8.8-.2,0-.2.2-.3.3s-.1.4-.4.3c-.2-.2-.2-.3.1-.4.1-.1.2-.3.4-.4Z"/>
      <path class="cls-63" d="M44.2,50.92v3.7c-.1-1.3-.1-2.5,0-3.7Z"/>
      <path class="cls-30" d="M78.8,54.82s0,.1-.1.1c-.2-.1-.5-1.2-.5-1.5.2.4.4.9.6,1.4Z"/>
      <path class="cls-57" d="M43.2,46.82c0-.8-.1-1.6.1-2.4,0,.7,0,1.5-.1,2.4Z"/>
      <path class="cls-49" d="M13.8,4.72c-.1.1-.2.1-.4.1h-2c.8-.1,1.6-.1,2.4-.1Z"/>
      <path class="cls-9" d="M2.2,60.92c.2.6,0,1.2,0,1.8v-1.8Z"/>
      <path class="cls-3" d="M2.1,74.52c.1.6.1,1.2,0,1.8v-1.8Z"/>
      <path class="cls-3" d="M10.9,83.62c.5,0,.9-.1,1.4.1-.4-.1-.9-.1-1.4-.1Z"/>
      <path class="cls-9" d="M2.3,48.22c.1.4.1.9,0,1.3v-1.3Z"/>
      <path class="cls-30" d="M79.3,56.22c-.3-.1-.3-.3-.2-.5.1.2.2.3.2.5Z"/>
      <path class="cls-63" d="M44.4,46.72c0,.4.1.8-.1,1.2,0-.4,0-.8.1-1.2Z"/>
      <path class="cls-9" d="M2.2,56.02c.1.3.2.7,0,1v-1Z"/>
      <path class="cls-63" d="M44.3,48.92c0,.4.1.7-.1,1,0-.3,0-.7.1-1Z"/>
      <path class="cls-63" d="M44.5,45.62c0,.3.1.7-.1,1,0-.4-.1-.7.1-1Z"/>
      <path class="cls-49" d="M43.1,16.72c.2.5.1,1,.1,1.4,0,.7-.1,1.4-.2,2.1-.3,2.2-.1,4.3-.2,6.5,0,1.1-.1,2.2,0,3.3.2.2.1.5.1.7-.1.5,0,1-.1,1.5,0,.2,0,.4-.1.6-.3.1-.2.3-.2.5,0,.5-.1.9-.1,1.4.1,1.6-.1,3.2,0,4.8,0,.7-.1,1.5-.1,2.2,0,.5.1.9.1,1.4,0,.7,0,1.5-.1,2.2,0,.2,0,.4.1.7v6c0,1.6-.2,3.2-.3,4.7,0-.2,0-.4-.1-.6,0-.1-.1-.2-.2-.2s-.3,0-.3.1c-.1.3-.2.7,0,.9.2.2.2.4.2.6q0,.5.3.8c-.3.5-1,.5-1.3,1-.1.1-.2.3,0,.4.1.1.2,0,.3-.1.3-.2.3,0,.4.2,0,.1,0,.3-.1.4-.1.2-.3.4,0,.6.2.2,0,.6-.3.6h-.3c-.1,0-.3,0-.3.2,0,.1.1.2.2.2.4,0,.4.2.3.5-.1.3,0,.6,0,1,0,.2,0,.4-.3.4-.2,0-.3.2-.4.4,0,.2.2.2.3.3.1.1.3.1.2.2-.1.2-.2.2-.4.1-.5-.2-1-.5-1.3-1.1-.2.5-.3.8-.2,1.2.1.2,0,.4,0,.5,0,.5-.1.9.1,1.4.1.3-.1.6-.2.9l-.1.1c-.6-.2-.4.3-.4.5,0,.5-.1,1.1-.1,1.6,0,.2-.1.3-.3.4-.1-.1-.1-.3-.1-.4v-2.5c0-.1,0-.3.2-.3s.1.2.2.4c-.1-.8-.1-1.6.1-2.4v-.5c0-.2-.1-.3,0-.5.3-.8.3-1.7.2-2.6v-.4c.3-.8.2-1.6.2-2.4,0-.5,0-.9.1-1.4.1-.2.1-.4,0-.6v-.5c0-.1.1-.3.2-.3.2,0,.2.1.3.3.1.2.1.4.1.6s.1.3.3.3c.2-.1.2-.2.1-.4-.2-.4-.1-.7.3-.9.2-.1.2-.2,0-.3-.7-.6-.5-1.7.1-2.2.1-.1.3-.3.3-.5,0-.5.2-.9.2-1.4,0-.3,0-.4-.3-.4-.1,0-.3,0-.3-.2s.2-.2.3-.3c.2-.1.6-.1.5-.5s-.4-.8-.7-.8-.5,0-.6-.4c-.1-.2-.2-.2-.4-.2-.4.1-.5-.2-.4-.5.1-.4.1-.8-.1-1.2-.1-.2-.1-.5.1-.7.2-.2.2-.5,0-.7s-.2-.5-.2-.7c.1-.7.1-1.4.4-2.1.1-.2,0-.4-.1-.5-.3-.3-.3-.6-.3-.9,0-.5,0-1,.1-1.5.1-.2,0-.4,0-.6-.1-.5-.1-.9,0-1.4s.1-1.1,0-1.6c-.2-.6-.1-.7.5-.9.2-.1.3-.3.3-.6q-.2-.8.5-1.3c.4-.3.8-.5,1.2-.2.1-.1,0-.2,0-.3-.2-.3-.3-.5-.1-.8s.4-.5.8-.4c.4.1.5,0,.6-.5v-3c.1-.3.1-.5-.4-.5-.3.1-.5-.2-.6-.5s.1-.4.3-.4h.7c-.1-.1-.3-.1-.4-.2-.2-.1-.4-.1-.4-.3s.1-.4.3-.5c.5-.1.5-.5.6-.9s.1-.7,0-1.1c-.1-1.1.3-2.1,0-3.1-.1-.6.1-1.2.1-1.8,0-.2,0-.4-.2-.4-.2-.1-.3.1-.4.2-.4.3-.8.5-1.2.8-.6.5-1.1,1.1-1.4,1.7-.2.3-.3.7-.2,1.1s-.2.7-.3,1.1c-.1.3-.2.6-.1.9,0,.1,0,.3-.1.3s-.2-.1-.2-.2c-.2-.7-.8-.8-1.4-.8-.4,0-.7-.1-1-.3-1-.4-1.9-.7-3-.7h-7.5c-.2,0-.4,0-.4-.2.2-.1.4-.1.6-.1,1,.1,1.9-.1,2.9,0,.9.1,1.8,0,2.6,0h2.6c.8-.1,1.5,0,2.2.3.1,0,.2,0,.3.1.1,0,.2,0,.3-.1s0-.2-.1-.3c0-.1-.1-.2-.2-.2-.8-.5-1.6-1-2.6-.9h-.6c-.7,0-1.4-.1-2,0-2.7.2-5.3.3-8,.2-.9,0-1.8.1-2.6.1-1.1,0-2.1.1-3.2,0h-2.9c-.1,0-.2,0-.3.1.1.2.3.2.5.1.7-.2,1.2.2,1.9.3.1,0,.2.1.1.2-.2.1.1.3,0,.4-.2.1-.4.1-.6.1h-4.1c-.3.1-.7.3-1,.2-.1,0-.2,0-.2-.1-.1-.1,0-.1.1-.2.2-.1.5-.2.7-.2s.4-.1.5-.1.2-.1.2-.2-.1-.1-.2-.1c-.3,0-.5-.1-.7-.2-.6-.2-1.2.1-1.6.3-.9.5-1.5,1.3-1.9,2.2,0,.1-.1.2-.2.2-.2-.1-.1-.2,0-.3.6-1.2,1.4-2.1,2.6-2.7.9-.4,1.7-.4,2.6-.4.3,0,.6-.2.9-.2-.7-.1-1.3-.3-1.9-.5-.2-.1-.5-.1-.7,0-.6.1-.8,0-1.1-.5-.1-.2-.2-.2-.3-.2-.4.1-.9-.1-1.3-.2-.7-.2-1.3-.6-2-.8-.5-.2-.9-.6-1.3-.9-.3-.2-.6-.5-.9-.7-.1-.1-.2-.1-.2-.2s.2-.2.3-.2c.2,0,.4.1.5-.1-.1-.1-.3-.1-.4-.1-.2,0-.3,0-.4-.2,0-.2.1-.2.3-.3.5-.2,1-.2,1.5-.1,1,.1,2,.1,3.1-.2-.2-.2-.4-.3-.6-.2-.3.1-.5,0-.5-.3,0-.1-.1-.3-.2-.1-.2.3-.4.4-.7.4-.7,0-1.3.1-2,.1-.5,0-.9-.1-.9-.7,0,0-.1,0-.1.1v.8c0,.1,0,.3-.2.3s-.2-.2-.3-.3c-.1-.2-.1-.4-.1-.6.1-.3-.3-.4-.3-.7,1.2,0,2.5-.1,3.7,0,2,.2,3.9.2,5.9.2.9.1,1.8,0,2.7.1.5,0,1.1.1,1.6.1,1-.1,2.1,0,3.1.1.3,0,.7.1.7.5s-.4.4-.8.4c-1.4,0-2.9.3-4.3.2-.2,0-.4.1-.7.1-.8.1-1.5,0-2.3,0h-1.9c.3.1.6,0,.9,0,1.7,0,3.4-.1,5.1.1.6.1,1.2-.1,1.8-.1h4.1c2.9,0,5.8-.1,8.7-.1,2.1,0,4.1-.1,6.2-.1.5,0,1-.2,1.4,0,.2.1.4.1.6.1.1,0,.3,0,.3.2s-.1.2-.3.3c-.1,0-.3.1-.4.2-1.1.1-2.2,0-3.3,0-1.3,0-2.6.1-3.9.1-1.9,0-3.9,0-5.8.1-4.7.1-9.3.1-14,.1h-3.7c-.6,0-1.2.1-1.7,0s-1-.1-1.6,0c.1.2.3.2.4.2.2,0,.4.1.6.2.2.2.5.2.8.3.4.1.8.3,1.2.5.3.2.6.3,1,.3s.7.3,1.1.4c.2.1.4.2.7.2.5,0,.9.1,1.2.5.1.1.3.1.5.1.7-.2,1.3,0,2,.2,1.1.2,2.2.3,3.3.2h.2c.9.4,1.8,0,2.7.3h.3c.6-.2,1.2-.1,1.9,0,.2,0,.4,0,.5-.1.2-.1.3-.1.5-.2.6,0,1.3.1,1.9-.2h.3c.2.1.4,0,.6-.1.2-.3.5-.3.8-.2.6.2,1.2.2,1.9,0,.4-.1.8-.1,1.3.1s1.1.3,1.7.1c.2,0,.3-.1.5,0,.3,0,.5,0,.7-.2.2-.1.3-.2.5-.1.4.3.8.2,1.2.1.6-.1,1.2-.1,1.9.3s1.6.3,2.2-.2c.3-.2.7-.4,1-.6.7-.4,1.4-.8,1.9-1.4.3-.3.5-.3.6.2.2.6,0,1.2.1,1.7-.3-1.2-.4-2.1-.1-2.9Z"/>
      <path class="cls-12" d="M36.1,23.12c.4.3.8.2,1.2.3.6,0,1,.2,1.2.8,0,.1.1.2.1.3q.1-.1.1-.2c-.2-.6.1-1.1.3-1.7.1-.1.1-.3.1-.4-.3-.8.2-1.4.6-1.9.5-.8,1.2-1.3,2-1.7.1-.1.2-.2.3-.3.1-.1.3-.3.4-.2.2.1.2.3.2.4v1c-.1.5-.1,1,0,1.5.1.4.1.8,0,1.2-.1.4-.1.7-.1,1.1.1.7.1,1.4-.1,2.1,0,.2-.1.2-.3.2-.3,0-.5.2-.5.4,0,.3.3.2.5.3h.2c.1,0,.2.1.2.2s-.1.2-.3.2c-.2-.1-.4.1-.7-.1-.1,0-.2,0-.3.1s0,.2.1.3c.2.2.4.5.8.2.2-.2.2,0,.2.2v3.4c0,.6-.2.8-.8.6-.4-.1-.5.3-.7.5s-.1.4.1.6c.4.2.2.4,0,.7-.5-.4-.6-.4-1.1,0-.1.1-.2.1-.3.2-.4.2-.5.7-.3,1q.1.2,0,.4c-.1.2-.2.5-.5.4s-.4.1-.4.3c.3.8.1,1.7,0,2.5,0,.8.1,1.7,0,2.5v.6c0,.3.1.5.3.7.3.2.4.4.1.7-.1.1-.2.3-.2.5,0,.3-.1.7-.1,1,0,.4-.2.8.2,1.2.2.2.2.5-.1.8-.3.2-.2.5-.1.7.2.4.1.7.1,1.1-.1.4,0,.5.4.4.3-.1.4,0,.4.3s.2.4.5.3c.3-.1.6,0,.6.4.1.3.4.4.3.8-.2.4-.6.1-.8.3l-.1.1c0,.1.1.1.2.1.4,0,.8,0,.4.5.2.4-.2.8-.1,1.2.1.3-.1.6-.4.8-.3.2-.5,1.1-.3,1.4.1.2.1.5.4.6.2.1.1.3-.1.4-.5.2-.5.3-.3.8.1.1.1.3,0,.4-.1.2-.4.2-.6.1-.2,0-.2-.2-.2-.4,0-.3.1-.6-.3-.9-.1,4-.4,7.9-.9,11.8v-.5h-.1v3.2l-.1.1c-.2-.2-.1-.4-.1-.6,0-1.6-.1-3.2,0-4.9.2-3.5,0-7,.1-10.6,0-.8-.1-1.5-.1-2.3v-7c-.1-5.1-.1-10.2-.1-15.2,0-.2,0-.3-.1-.5-.1-.8,0-1.6,0-2.5,0-.6,0-1.1-.3-1.6,0-.4-.2-.7-.4-1-.1-.2-.3-.4-.4-.5.2.1,0,0,.1-.2Z"/>
      <path class="cls-6" d="M37.7,51.92c.1,4.9.1,9.7,0,14.6v3.7c-.2.6-.3,1.2-.7,1.8-.8.1-2.2-.7-2.2-1.5,0-.2.1-.5.1-.7.1-.6.1-1.2,0-1.9,0-1.1.2-1.8.3-3.2.3-3-.7-3.2-.4-6.1.1-1.2.4-2.4.6-3.1.5-1.8.6-1.6.7-2.4.3-2.4-.7-4.1.2-4.7.2-.1.3-.1.6-.4.4-.4.5-1,.5-1.4.1-.2.2-.2.3,0v4.7c0,.3-.1.4,0,.6Z"/>
      <path class="cls-15" d="M30.6,73.82c.3.2.6.2.9.2.8-.1,1.5-.1,2.3,0,1.1.1,1.9-.5,2.8-.9.6-.2,1-.6,1.4-1.1.1.2.1.3,0,.5-.6.8-1.3,1.6-2.3,1.9-.6.2-1.2.4-1.9.4-4.2,0-8.5-.1-12.7,0-2.7.1-5.3,0-8,.1-.4,0-.8,0-1.2-.1-.2,0-.4-.1-.5-.3.5-.1.9-.3,1.4-.2.2,0,.3.1.5,0-.1-.1,0-.1.2-.1.4.1.7,0,1.1,0,2.5,0,4.9-.2,7.4-.1.2,0,.3.1.5-.1.1-.1.3-.1.4-.1,2.3.1,4.7-.3,7-.2.2,0,.5,0,.7.1Z"/>
      <path class="cls-57" d="M42.8,30.72v-.7c.1-.1.1-.2.1-.3,0-1.2,0-2.4.1-3.6,0-.3,0-.6.1-.9.1-.3-.1-.7-.1-1.1.1-.8.1-1.6.2-2.4,0-.2,0-.4.1-.5-.1,4.6-.1,9.2-.2,13.8,0,1.5.1,2.9,0,4.4-.1,2.4,0,4.8-.1,7.1-.1,2,0,4.1-.1,6.1-.1,2.4,0,4.8-.1,7.2,0,.9,0,1.8-.1,2.7,0,.4.1.8,0,1.2,0,.1,0,.2-.2.2-.1,0-.2-.1-.2-.2.2-1.1-.1-2.2,0-3.4.2-3.4,0-6.9.1-10.3.1-2.2,0-4.3.1-6.5.1-2.3.1-4.6.1-7,.1-.2,0-.3,0-.5v-4.8c.2-.2.2-.4.2-.5Z"/>
      <path class="cls-45" d="M31.8,73.72h-1c-4.8,0-9.5.2-14.3.1-.2,0-.3,0-.5-.1q-.1-.1,0-.2c.1-.1.3-.1.4-.1,1.2.1,2.3-.2,3.4-.1-1.2,0-2.6.1-3.9,0-.2,0-.5.1-.6-.2.2-.2.5-.1.8-.1h15.2c.4,0,.8-.1,1.2-.1.3,0,.5.3.8.4s.6.2.9.2c.1,0,.3,0,.2.2-.9.1-1.7.1-2.6,0Z"/>
      <path class="cls-60" d="M9.2,72.62c-.1-.4-.4-.7-.6-1.1-.3-.7-.3-1.3-.3-2v-1.5c-.2-.2-.1-.4-.1-.6v-1.6c0-.3-.1-.6.2-.8.1.5,0,.9,0,1.4,0-.9-.1-1.9-.1-2.8-.1-1,0-2,0-3v-.3c.1-.9.2-1.8.1-2.8,0-.7-.1-1.5,0-2.2-.1-.7.1-1.5,0-2.2.1-.1.1-.3.1-.5v-3.6c.3.1.2.3.2.5v11.5c0,1-.1,1.9-.1,2.9,0,.7,0,1.4.1,2.1.1,1.2,0,2.4,0,3.7,0,1.2.5,2.2,1.4,3,.4.4.9.5,1.4.4.1,0,.2-.1.4,0,.4.3.8.6,1.4.5.1,0,.3,0,.3.2-.6.3-1.3.3-1.9,0-.2-.1-.4-.2-.7-.3-.7.2-1.2-.4-1.8-.9Z"/>
      <path class="cls-38" d="M11.2,73.52c.1,0,.2-.1.3-.1.7.6,1.5.3,2.3.3.1-.1.3-.1.5-.1.6,0,1.2-.1,1.7.1h15.1c-.1.1-.3.1-.5.1-1.4,0-2.7-.1-4.1,0-1.3.1-2.7.1-4,.2h-7.2c-.8,0-1.7.1-2.5.1-.6,0-1.1-.4-1.6-.6Z"/>
      <path class="cls-5" d="M34.9,70.52c0,.6.4.8.8,1,.4.2.8.4,1.3.5,0,.1-.1.1-.1.2h0c-.6-.3-1,.1-1.4.4-.4.2-.8.3-1.2.5-.1,0-.2.1-.3,0-.4-.3-.6,0-.9.1-.1.1-.2,0-.3,0-.6,0-3.7-.1-3.8-.1,1.1,0,2.4-.2,3.7-.6.3-.1.7-.2,1-.3.2-.7.7-1.2,1.2-1.7Z"/>
      <path class="cls-53" d="M32.9,72.92c0,.1-.2.2,0,.2q.1,0,.2-.1c.3-.2.5-.4.9-.1.3.2.7-.2,1-.3.4-.1.8-.3,1-.6.1-.2.3-.1.5,0s.3.1.5.2v.1c-.3.5-.8.8-1.3,1.1h0c-.4.1-.7.2-1,.4-.1,0-.2,0-.2-.1-.7,0-1.3-.1-1.8-.6-.1-.3,0-.3.2-.2Z"/>
      <path class="cls-12" d="M42.8,30.72v5.3c0,.2.1.3-.1.5v-5.4c0-.1,0-.3.1-.4Z"/>
      <path class="cls-38" d="M34.3,73.72h.3c.2-.1.3-.1.5,0-.1.1-.3.2-.4.2h-2.7s-.1,0-.1-.1h2c.1-.1.3,0,.4-.1Z"/>
      <path class="cls-45" d="M35.6,73.32c.4-.4.8-.7,1.3-1.1-.3.5-.8.9-1.3,1.1Z"/>
      <path class="cls-45" d="M35,73.72h-.5c.3-.3.6-.4,1-.4-.1.1-.3.2-.5.4Z"/>
      <path class="cls-62" d="M33.3,7.92c-.1.5,0,1.1.1,1.7,0,.2,0,.5-.3.5-.8.1-1.9-.2-2-1.2,0-.2,0-.3.1-.4l.1-.1c.1,0,.1.1.1.1.1.2.2.4.4.3.2,0,.2-.3.2-.5s.1-.4.1-.6,0-.3.3-.2h.2c.6-.4.7-.4.7.4Z"/>
      <path class="cls-62" d="M33.7,9.02c-.1-.4.2-.9,0-1.3v-.1c.3-.1.7-.3,1-.4.2,0,.3.2.3.4v1.9c0,.3-.1.5-.3.6-.3.1-.7.1-1,0-.1,0-.1-.2-.1-.3.1-.3.1-.5.1-.8Z"/>
      <path class="cls-2" d="M36.1,8.62v-1.2c0-.1,0-.3.2-.3s.2.2.2.3v2.3c0,.2-.1.2-.2.3-.2,0-.2-.1-.2-.2v-1.2h0Z"/>
      <path class="cls-31" d="M8.7,45.92v-1.5c-.1-1,0-1.9,0-2.9v-.1c.5-1.1.2-2.4.8-3.5.1-.1,0-.2,0-.4-.1-.6-.1-1.2,0-1.8.1-.3.2-.7.2-1,0-.7.2-1.4.6-2,.2-.3.3-.6.3-1,0-.3.1-.7.2-1,0-.1.1-.3.3-.2.1,0,.1.2.1.3,0,.5,0,.9.1,1.4,0,.1,0,.3-.1.4-.3.2-.5.5-.6.9-.2.9-.4,1.7-.6,2.6-.1.3-.1.7-.1,1,.2.8-.2,1.4-.4,2.1,0,.1-.1.3-.1.4.1.8-.1,1.6-.3,2.4-.2.7-.1,1.4-.1,2.1.1,1,.5,1.9.8,2.9.3.8.3,1.7.3,2.6,0,.6,0,1.2.1,1.8.2,1.3.2,2.6.2,3.9,0,.4,0,.7.2,1,.1.1.1.3.1.4-.2.5-.1.9.1,1.4s.2,1,.2,1.5c0,.3,0,.5.1.8.1.2,0,.4,0,.5v5c0,.3,0,.6-.3.8-.2.1-.1.2,0,.4.3.6.4,1.2.3,1.9-.1.8.1,1.7.4,2.4.1.4.5.7,1,.7h.1c.3.1.4.4.5.6.2.4-.2.3-.4.3-1.2,0-2.4-.7-2.9-1.8-.6-1.2-.6-2.6-.8-3.9,0-.3-.1-.7-.2-1-.2-.8-.2-1.6-.1-2.4v-.1c.8-1.2.6-2.5.6-3.8,0-1-.2-1.9-.1-2.9,0-.5,0-1-.1-1.6-.1-.7.1-1.3.1-2v-.3c-.4-1.9-.1-3.8-.4-5.7.1-.4,0-1-.1-1.6Z"/>
      <path class="cls-21" d="M12.3,24.92c-.3.2-.4.4-.5.7-.2.7-.3,1.4-.3,2.1.1,1.5-.2,2.9-.2,4.4,0,.1,0,.2-.1.3l-.1.1"/>
      <path class="cls-21" d="M8.7,41.82c-.1,0-.1.4,0,2.5-.1-.4-.1-.8-.1-1.2v-16.9c0-1.2.4-2.1,1.3-2.9.3-.2.7-.1,1.1,0,.3.1.6.1.9.1.2,0,.4-.1.6,0s.4,0,.5-.1c.1-.1.3-.1.3.2,5.3-.8,9.8-.8,12.9-.7,6.7.2,8,1.2,8.7,2,1.4,1.6,1.1,3.3,1,9.8,0,5.5.3,3.2.3,11.7.1,9.4-.3,7.4-.2,13.4,0,.8.1,3.7-.4,7.3-.3,2.5-.5,3.8-1.1,4.5-1.2,1.6-3.1,1.8-13.2,1.6-6.4-.1-8.4-.2-9.4-1.7-.6-.8-.5-1.6-.6-4.9-.1-2.5-.4-5-.4-7.5-.1-8.4-1.9-17.2-2.2-17.2Z"/>
      <path class="cls-56" d="M6,20.22c-.1.1,0,.3,0,.3.5.2.4.6.4,1,0,.3-.1.7-.5.9-.4.3-.4.9-.5,1.4-.1.6-.2,1.2-.4,1.8,0,.1-.1.2-.1.2-.5.1-.7.6-1,.9q-.1.1-.2.1c-.1-.1-.2-.2-.2-.3,0-.8-.1-1.6,0-2.4.1-1.7-.1-3.4-.1-5.1,0-.4.1-.8.1-1.2,0-.3.2-.3.3-.1.6.5,1.3,1,1.7,1.7.2.2.5.4.5.8Z"/>
      <path class="cls-17" d="M8.7,45.92c.1.1.2.1.2.2,0,.5.2,1,.3,1.5.1,1.2.2,2.3.2,3.5,0,.8-.1,1.5.2,2.3.1.3,0,.8-.1,1.1-.1.6,0,1.1,0,1.7,0,1.3,0,2.5.1,3.8,0,.9-.1,1.8-.1,2.7,0,.5-.2.9-.5,1.2-.2.3-.2.7-.2,1.1.1.6,0,1.2.3,1.7s0,1.1.2,1.6c.2.7.1,1.4.4,2.1.3,1,.9,1.8,1.8,2.3.5.3.9.3,1.4.3-.2.3-.4.3-.7.2h-.2c-1,.4-1.4.1-2.1-.7-.8-.9-1.1-1.9-1-3.1,0-1.7-.1-3.5-.1-5.2.1-4.8,0-9.6.1-14.4,0-.2.1-.4-.1-.5-.1-1.3-.1-2.3-.1-3.4Z"/>
      <path class="cls-19" d="M10.7,22.72c.3-.1.6-.2.9-.3h0c2.1,0,4.2-.3,6.3.2.2.1.4.1.6.2s.5.1.7.1c.1,0,.4,0,.3.2-.1.1-.3.1-.4.1h-3.5c-.1,0-.2,0-.3-.1q-.1-.2.2-.2c-.6.1-1.2.1-1.8.1-.7,0-1.4-.2-2.2-.2h-.8c.1.1,0,.1,0-.1,0,.1,0,0,0,0Z"/>
      <path class="cls-26" d="M8.7,28.52v5.7c0,.1,0,.3-.1.4-.1-.5-.1-1-.1-1.5,0-1.8-.1-3.6-.2-5.4,0-.5-.1-1.1-.1-1.6,0-.2,0-.3.1-.5.2.2.3.5.3.9,0,.7,0,1.3.1,2Z"/>
      <path class="cls-34" d="M8.7,28.52c-.2-.4-.1-.8-.1-1.1,0-.6,0-1.2-.3-1.7.3-1.4,1-2.3,2.4-2.8l.1.1c-.1.4-.6.3-.8.6-.2.2-.5.4-.7.7-.4.5-.6,1.1-.6,1.8-.1.7,0,1.5,0,2.4Z"/>
      <path class="cls-49" d="M3.4,17.42c-.2-.2-.6-.1-.5-.4,0-.2.3-.4.4-.3.3.1.1.4.1.7Z"/>
      <path class="cls-35" d="M8.5,65.02c-.2.2,0,.5-.1.7-.1.5-.2,1.1,0,1.6v.6c0,.1-.1.1-.1.2-.1.1,0,.4-.2.3s-.4,0-.5-.4c-.1-1.2-.1-2.4-.2-3.6-.1-1.1.1-2.2,0-3.3,0-.6.1-1.2.1-1.8,0-.2,0-.4.4-.3.3.1.7-.3.7-.7v-.9c-.2,0-.3.3-.6.1-.1-.1-.2,0-.2.1v.4c0,.2,0,.3-.2.3s-.2-.2-.1-.3c.1-.4-.2-.9,0-1.3,0-.1,0-.3.1-.3s.3.1.3.2c.1.3.4.5.6.4.2-.1,0-.4,0-.7,0-.4.1-.8.2-1.1v4.7c0,.1,0,.2-.1.3-.2-.3,0-.7-.2-1-.5.4-.5.5-.2.9.1.2.1.3.2.5,0-.1,0-.3.2-.3v3c-.1.8,0,1.3-.1,1.7Z"/>
      <path class="cls-3" d="M2.4,76.32c.3.1.4.2.2.5-.2-.2-.3-.3-.2-.5Z"/>
      <path class="cls-66" d="M13.5,7.32c.9.5,1.1,1.3,1,2.2-.2.3-.3.7-.7.9-.2.1-.3.2-.5.2h-.2c-.2.1-.5.1-.7.1-1,0-2,0-3,.1-.8,0-1.6-.1-2.3-.1h-.9c-.2.1-.3-.2-.3-.4.1-.8.1-1.6,0-2.4,0-.6,0-.7.6-.7h.9c.1,0,.2,0,.3.1v.2c-.2.2-.3.4-.3.7v1.5c0,.4.1.6.5.5.6,0,1.3-.1,1.9-.1h1.3c.5,0,1.1-.1,1.6,0h.4c.1,0,.2-.1.3-.1.6-.3.8-.8.7-1.4,0-.4-.2-.8-.7-.8-.2-.1-.3-.1-.4-.3,0-.6.3-.2.5-.2Z"/>
      <path class="cls-7" d="M7.6,7.52c0-.2-.2-.2-.3-.2h-.8c-.6,0-.6.1-.7.6v2c0,.1,0,.2-.1.3-.1-.6,0-1.1,0-1.7,0-.5-.3-1,.1-1.3.3-.3.9-.1,1.3-.1.6,0,1.2-.1,1.8,0,.1.1.2.1.4,0,1.3-.2,2.5,0,3.8-.1.2,0,.3.1.4.2-.1.1-.5-.3-.5.2-.9.1-.8.8-.8,1.4,0,.3.1.6.1.9,0,.2.1.3.3.3.1,0,.3,0,.2.2-.5,0-1-.1-1.5.1-.1,0-.2,0-.3-.1,0,0,.1-.1.2-.1s.2-.1.4-.1c.3-.8.1-1.6,0-2.4,0-.1-.2-.1-.2-.2-.2-.1-.3-.2-.5-.2.1,0,.2,0,.2.1-.6.2-.6.7-.5,1.3v.5c0,.4,0,.8.5,1v.1h-1.3v-.2c.1-.2.2-.3.1-.5-.1-.1-.1-.3,0-.4.3-.6,0-1.1-.1-1.6-.1-.1-.2,0-.3,0-.7.1-1.3.1-1.9,0Z"/>
      <path class="cls-7" d="M9.3,10.82c.3-.1.7-.2,1-.2h2.7c-.4.3-.9.2-1.4.2-.7-.1-1.3.1-1.9.1-.1-.1-.3,0-.4-.1Z"/>
      <path class="cls-7" d="M13.2,10.62c.5-.2,1-.5,1.1-1,0,0,.1,0,.2-.1-.1.5-.3.8-.6,1.2-.2.2-.4,0-.7-.1Z"/>
      <path class="cls-66" d="M9.3,7.22c0,.2-.2.2-.3.2s-.1-.1,0-.2h.3Z"/>
      <path class="cls-54" d="M49,38.12c-.2,1.3-.4,2.6-.7,3.8-.1-.1-.1-.2-.1-.2,0-.1-.1-.2-.1-.1l-.1.1c0,.1,0,.2-.1.2-.1.1-.2.4-.4.3-.2-.1-.5-.2-.4-.5,0-.3-.1-.6-.3-.9-.1-.2-.2-.4,0-.5.2-.2.3-.2.6-.2q.6.2.6.9c0,.1,0,.3.2.3s.2-.1.2-.2c-.1-.3.1-.6.2-.9q.1-.3-.2-.4c-.4,0-.7,0-1.1-.3-.3-.3-.3-.5-.3-.8s.3-.5.6-.7c.2-.1.3.1.3.2.1.5.5.7.7,1.3.1-.8.4-1.4.4-2.1,0,.2,0,.4,0,.7Z"/>
      <path class="cls-54" d="M48,43.82c-.1.7-.3,1.4-.4,2.2-.2-.1-.1-.3-.1-.5.1-.5.2-1,.3-1.5,0-.1.1-.2.2-.2Z"/>
      <path class="cls-41" d="M80,68.52c.1-1,0-2,0-3,.1.1.1.2.1.3v2.5s0,.1-.1.2Z"/>
      <path class="cls-52" d="M60.2,78.22c-.4-.1-.7-.3-1.1-.6.4,0,1.1.4,1.1.6Z"/>
      <path class="cls-23" d="M43.1,16.72c-.1.9-.1,1.8-.2,2.8-.2-.8,0-1.5-.3-2.3-.6.8-1.4,1.3-2.2,1.7-.6.3-1.1.9-1.8,1-.6.1-1.2.1-1.7-.2-.5-.4-1-.3-1.6-.3-.5,0-1,.2-1.4-.2-.1-.1-.3-.1-.4.1-.1.1-.1.2-.2.2-.6-.1-1.2.2-1.8.1-.4-.1-.9-.1-1.3-.3-.2-.1-.5-.1-.7,0-.8.2-1.5.2-2.2,0-.3-.1-.5.1-.6.3-.2.3-.3.3-.6.1-.1-.1-.2-.1-.3-.1-.6.3-1.3.1-1.9.2h-.3c-.4.5-.9.1-1.4.1-.2,0-.4-.1-.5,0-.8.2-1.5,0-2.2-.1-.1,0-.2,0-.3.1-.1.1-.3.1-.4,0-.8-.4-1.6-.1-2.3-.2-.2,0-.3,0-.4-.1-.2-.1-.4-.1-.7,0-.1,0-.2.1-.3,0-.5-.3-1.1-.1-1.6-.4-.3-.1-.6,0-.9.1s-.4,0-.6-.2c-.2-.3-.5-.4-.9-.4-.5,0-1-.2-1.3-.4-.4-.3-.9-.1-1.3-.3-.4-.2-.8-.3-1.2-.5-.2-.1-.4-.2-.6-.2-.1,0-.3-.1-.4-.2-.3-.3-.5-.4-.9-.4-.2,0-.3-.1-.4-.2-.1-.1-.1-.2.1-.2.5,0,1-.3,1.6,0q0,.1.1.1c.6,0,1.3.2,1.9.2h.3c.7.4,1.6.5,2.3.9.3.2.6.3.9.3.6,0,1.2.3,1.8.4.3.1.7.1,1,.1.8,0,1.6.1,2.3.2.4.1.8.1,1.2,0,.8-.1,1.6,0,2.4.2.7.2,1.3,0,1.9-.1.3,0,.6-.1.9-.1s.5-.1.8-.1c.5-.1,1.1-.3,1.6-.3h3.2c.7,0,1.5-.1,2.2,0s1.4-.1,2.1,0c.6.1,1.1,0,1.7,0,.7,0,1.4.1,2.1.3.2.1.5.1.7,0,.1,0,.2-.1.4-.1.6.1,1.2-.2,1.8-.3.6-.1,1-.5,1.4-.9.3-.3.6-.7,1.1-.9-.2-.1-.4-.1-.5-.1-.9,0-1.7-.1-2.6,0-.1,0-.3,0-.4-.1.1-.2.4-.1.6-.3-.3-.2-.6.1-.9-.2.2-.2.4-.2.7-.2h2.5c.2,0,.4.1.5-.2.1-.3.1-.6.2-1-.2.1-.2.2-.3.3-.2.1-.3.2-.1.4.1.1.1.2-.1.3-.7-.1-1.4,0-2.2,0-1.6.1-3.1.3-4.7.2-.1,0-.2,0-.4-.1,0-.2.1-.3.4-.3.6,0,1.2-.1,1.9-.1h.3c-.6-.1-1.3-.1-1.9,0-.2,0-.4,0-.5-.2-.2-.2-.6-.2-.8-.4-.1-.1-.1,0-.2.1-.2.3-.6.4-.9.2-.9-.5-1.8-.5-2.7-.3-.1,0-.2.1-.3.1-.8-.1-1.6,0-2.4,0-1,0-1.9.1-2.9.2-.4,0-.9.1-1.3.1s-.7,0-1.1.1c-.2.1-.4,0-.6-.1-.1-.1-.2-.1-.4-.1-.1,0-.2.1-.2.2s.1.1.2.1c.2,0,.4.1.5.1.7,0,1.5.2,2.2-.1.2-.1.4,0,.5,0,.8.1,1.6.2,2.5.3.5.1,1-.1,1.5-.1h2.4c.2,0,.4-.1.5.2-.1.2-.3.2-.5.2-1.3,0-2.5.1-3.8.1-1.2,0-2.4.1-3.6,0-2.3-.1-4.5.1-6.8,0-.5,0-1,.1-1.6.1-.2,0-.4,0-.5-.1.1-.2.3-.2.5-.2,1.5.1,3-.2,4.5-.2h.3c.1-.1.4-.1.4-.3s-.2-.3-.4-.3c-.3-.1-.6-.2-.9-.2-.7,0-1.3-.2-2-.1-.5.1-1.1.1-1.6,0-.1,0-.3,0-.4-.1.7-.1,1.4,0,2,0h.9c.4.1.7.1,1.1,0h.4c.1.1.3,0,.4,0h4.3c.2,0,.4-.1.6-.1h.6c.3.1.7,0,1,0,1.5-.1,3-.1,4.5-.2.5,0,1.1-.1,1.6,0h.5c.9-.1,1.7,0,2.6-.1.2,0,.4,0,.6-.1h.4c.7.1,1.3,0,2,0,.2,0,.4-.1.4.2,0,.2-.2.2-.3.3-.3.1-.6,0-.9.1.7,0,1.3,0,2,.2.2,0,.4,0,.6-.1.3-.1.6-.1.9,0,.4.1.8,0,1-.5.2-.4.5-.4.8-.3.1,0,.1.1,0,.1-.2.5-.1,1-.1,1.6.1.3,0,.5-.4.6.2,0,.4.1.4.3-.2.2-.2.4-.2.6Z"/>
      <path class="cls-7" d="M43.1,13.62c-.1.1-.2.1-.3.1-.2-.1-.3.1-.4.2-.2.5-.6.7-1.1.6-.2-.1-.4-.1-.7,0-.4.1-.9.2-1.3,0-.5-.2-1.1-.1-1.6-.1-.1,0-.3,0-.3-.1,0-.2.2-.1.3-.1.4-.2.9.1,1.4-.3-.9-.1-1.6.1-2.4-.1,1.7-.1,3.4-.1,5.1-.2.5,0,1-.1,1.5-.1,0,.1-.1.1-.2.1Z"/>
      <path class="cls-7" d="M32.6,13.92c-1.8.2-3.5.2-5.3.2-.4,0-.9.1-1.3.1-.1,0-.3.1-.4-.1,1.7-.1,3.3-.2,5-.2.6,0,1.2.2,1.8-.1-.1,0,.1,0,.2.1Z"/>
      <path class="cls-7" d="M24.9,14.12c-.3.1-.5.2-.8.1-.5-.1-1,0-1.5,0-1,0-2.1.1-3.1-.1h4.7c.2,0,.4-.1.7,0Z"/>
      <path class="cls-7" d="M17.6,14.12c-.2.2-.5.1-.8.1h-4.1c-.1,0-.3,0-.4-.1h5.3Z"/>
      <path class="cls-7" d="M36.3,13.72c-.3.3-.7.2-1.1.2h-2.1c.1-.1.2-.1.2-.1,1.1.1,2-.1,3-.1Z"/>
      <path class="cls-7" d="M19.1,14.12c-.4.1-.7.3-1.1,0h1.1Z"/>
      <path class="cls-49" d="M43.1,13.62q.1-.1.2-.2c.1.1.3.1.3.3-.2,0-.3,0-.5-.1q0,.1,0,0Z"/>
      <path class="cls-46" d="M48.3,4.12c-.2.1-.3.5-.6.5-.1,0,.1.2.1.3-.5-.4-1.1-.5-1.6-.9q.2-.1.4,0c-.5-.2-1-.6-1.6-.9-.1-.1-.3-.2-.3-.4.1-.3.3-.2.5-.1.9.5,1.9.9,2.8,1.4.2.1.3.1.3.1Z"/>
      <path class="cls-4" d="M35.2,1.82c0-.3.2-.6.2-.9,0-.1.2-.2.3-.2.3.1.9.7.9,1q0,.1-.1.2c-.1.1-1,.3-1.2.2-.1,0-.1-.1-.1-.3Z"/>
      <path class="cls-32" d="M44.8,2.72c.2.3.6.3.8.6.1.1.2-.1.4-.1,0,.3.2.5.4.5s.3.4.7,0c-.1.4-.2.5-.4.4-.1-.1-.3-.2-.4-.1-.8-.4-1.5-.9-2.3-1.3-.2-.1-.1-.2-.1-.2.1-.1.2-.3.2-.4.2-.1.3,0,.3.1.1.2-.1,0-.2.1-.1.1-.2.2-.1.2.3.1.4.4.7.2Z"/>
      <path class="cls-51" d="M45.6,4.52c.8.2,1.4.6,2,1,.1,0,.1.1,0,.2-.1.1-.1,0-.2,0-.4-.2-.8-.4-1.2-.7-.2-.2-.5-.2-.6-.5Z"/>
      <path class="cls-69" d="M44.2,3.62c-.3.1-.5-.2-.7-.1-.1,0-.1-.1-.1-.1,0-.1.1-.1.2-.1.2.1.4.2.6.3Z"/>
      <path class="cls-63" d="M45.3,56.22v.9c-.1-.2-.1-.5,0-.9Z"/>
      <path class="cls-49" d="M43.1,16.12c-.1-.1-.2-.2-.4-.1-.1.1-.3,0-.3-.2,0-.1.1-.2.2-.2.4.1.4-.1.4-.4.2.4.1.6.1.9Z"/>
      <path class="cls-7" d="M39.1,16.12h3.6c.1,0,.2.1.2.2s-.1.1-.2.1c-.3,0-.5.2-.7.5-.6.7-1.4,1.3-2.4,1.5-.4.1-.7.2-1.1.1-.1,0-.3,0-.4.1-.2.2-.5.1-.7,0-.3-.1-.7-.2-1.1-.2-.3,0-.6,0-.8-.1s-.4,0-.6.1c-.3.2-.5.2-.8,0-.4-.2-.8,0-1.2,0-.2,0-.4.1-.6,0-.7-.3-1.4,0-2-.1-.8-.1-1.6,0-2.4,0h-1.8c-.2,0-.3.1-.4.2s-.2.2-.3.1c-.7-.3-1.3.3-2.1.1-.3-.1-.7.1-1.1.2-.5.1-.9,0-1.3,0-.9-.1-1.8-.3-2.8-.1-.6.1-1.2-.2-1.8-.2-.4,0-.9-.1-1.3-.1-.7,0-1.3-.2-1.9-.4-.3-.1-.6-.2-.9-.2s-.6-.1-.8-.2c-.3-.2-.6-.3-1-.4-.3-.1-.7-.1-1-.4-.1-.1-.4-.2-.6-.2-.8.1-1.6-.3-2.4-.2,0,0-.1,0-.1-.1.1-.2.2-.2.3-.2,1.1,0,2.1,0,3.2-.1.5,0,1.1.1,1.6.1,3.7,0,7.3.1,11,0,2.7,0,5.3,0,8-.1,1.3,0,2.5,0,3.8-.1,1.5.1,3.2.2,4.9.1Z"/>
      <path class="cls-23" d="M16.5,22.32c-.1-.1-.2,0-.3-.1,0-.2.2-.1.2-.3-.4.1-.8-.1-1.2-.2-.2-.1-.4-.1-.6,0-.4.1-.7,0-.9-.4.2-.1.4-.2.6-.2h4.5c3-.1,6.1,0,9.1-.1,1.2-.1,2.4,0,3.6-.2.3,0,.5.1.8.1.5,0,1,.1,1.5-.1h.1c1,.3,2.2.4,2.8,1.4.1.1.1.3-.1.3s-.3.1-.5,0c-.5-.2-1-.1-1.5-.3-.2-.1-.5,0-.8,0-.2-.2-.4,0-.6-.1-.1-.2-.2,0-.3,0h-.4c-.1,0-.1-.2-.1-.2-.1,0,.1.2-.1.2-.3.1-.7-.1-1,.1h-6.1c-.3.2-.6.2-.9.2-1-.1-2,0-3,0-.6,0-1.2.1-1.8,0-.7-.1-1.3-.1-2-.1-.2,0-.4,0-.6.2-.3-.1-.4-.1-.4-.2Z"/>
      <path class="cls-7" d="M35,15.32c1.3,0,2.6,0,3.8-.1.6-.1,1.3,0,1.9-.1.6-.1,1.1,0,1.7.2.1-.1.1,0,.2,0q.1.1.2.2c-.2.2-.4.2-.6.2h-2.6c-.3,0-.5,0-.8.1-.4-.2-.8,0-1.3,0h-4c-2.3.1-4.7,0-7,.1-2.2.1-4.4,0-6.7.1-1.2,0-2.3.2-3.5.1-1.8-.1-3.6,0-5.4-.1-.3,0-.7.2-1-.1.1-.2.2-.2.4-.2h4.4c2-.1,4,0,6-.1,1.3-.1,2.5.1,3.8,0,1.1-.1,2.2.1,3.3,0,1.1-.1,2.3-.1,3.4-.1.1,0,.2,0,.3-.1s.2-.1.3-.1c.9.1,1.8-.1,2.7,0,.2-.1.3-.1.5,0Z"/>
      <path class="cls-48" d="M19.6,23.22c-.3-.2-.7,0-1-.2.5-.2.9-.2,1.4-.3.1,0,.3,0,.4-.1.5-.3.9-.2,1.4-.2.2,0,.4,0,.6-.1.5-.2.9-.2,1.4.1.4.3.9.2,1.3.4.1.1.2,0,.3-.1.2-.3.4-.3.7-.4h7c1.1,0,2.1.3,3.1.8.2.3.6.5.7.9-.3,0-.4-.2-.5-.3-.4-.4-.9-.6-1.5-.5-.6.1-1.3.1-1.8.4-1.5-.4-2.8-.4-4.1-.4-2.9.1-5.8.1-8.7.1-.3,0-.5.1-.7-.1Z"/>
      <path class="cls-65" d="M26,22.32c-.2.2-.5.4-.7.6-.1.1-.2.1-.3.1-.5-.3-1.1-.1-1.6-.6-.3-.3-.7-.2-1,0-.4.3-.9,0-1.3,0-.1,0-.2-.1-.3,0-.7.4-1.5.5-2.3.5-.2,0-.4-.1-.6-.2-2-.6-4-.3-6-.3h-.3c.1-.2.3-.1.5-.1h4.7c.2-.1.4-.1.7-.1,1.1,0,2.2.1,3.3.1h4.3c.3.1.6,0,.9,0Z"/>
      <path class="cls-7" d="M32.3,22.12h.5c.1-.1.2-.1.3,0,.2.1.5-.3.6.2h-2.7c.4-.4.8-.1,1.3-.2-.1-.1,0-.1,0,0Z"/>
      <path class="cls-12" d="M39.8,33.92c0-.1-.1-.3.2-.3.2,0,.4.1.4.4,0,.2-.1.3-.3.4-.3-.1-.3-.3-.3-.5Z"/>
      <path class="cls-12" d="M42.3,32.52v1.3c-.3-.5-.4-.9,0-1.3Z"/>
      <path class="cls-3" d="M39.1,62.02c-.2,0-.2-.2-.2-.3s0-.3.1-.2c.1.1.3.2.3.4,0,0-.1,0-.2.1Z"/>
      <path class="cls-3" d="M39,60.72c-.2-.2-.3-.5,0-.7.1.3.1.5,0,.7Z"/>
      <path class="cls-23" d="M37.1,21.42c-.1,0-.2,0-.2-.2,0-.1.1-.2.2-.2s.2.1.2.2c0,.2-.1.2-.2.2Z"/>
      <path class="cls-3" d="M42.7,30.12c.1.2.1.3,0,.5-.2-.2-.2-.3,0-.5Z"/>
      <path class="cls-24" d="M37.3,24.92c.5,1.4.2,2.8.3,4.2.1.2,0,.3,0,.5v8.5q0,.7-.7.9c-.5.1-.9.5-1.3.8-.2.1-.3.3-.5.2s-.2-.4-.2-.6v-13.5c0-.1.1-.2.2-.1.4.3.8,0,1.2,0,.2,0,.2-.2.3-.3.1-.3.3-.6.6-.7q0,.1.1.1Z"/>
      <path class="cls-1" d="M36.8,38.92q.7-.2.7-1v-8.8c.1.1.1.3.1.5v11.1c0,1.5.1,3,.1,4.4v6.8c-.1-.1-.1-.3-.1-.5v-4.5c0-.1.1-.2-.1-.3,0,0,0,.1-.1.1-.1.6-.4,1.1-.6,1.7-.1.2-.2.4-.4.3q-.1,0-.1-.1c-.1-.1,0-.2-.1-.3-.1-.2-.3-.2-.5-.4,0,0-.3-.1-.6-.6-.3-.4-.4-.9-.4-1.6,0-1.2.2-2.1.2-2.3.5-2.7-1.1-4.5-.3-5.1.2,0,.8-.1,2.2.6Z"/>
      <path class="cls-27" d="M37.3,24.92q-.1,0,0,0c-.8-.8-1.7-.9-2.7-.7-.3.1-.5-.2-.8-.2-.3-.1-.6-.2-.7-.5.2-.3.4-.4.8-.4.5,0,.9-.1,1.4-.2.5,0,.8.3,1.1.6.2.1.3.4.5.4.1.4.3.6.4,1Z"/>
      <path class="cls-14" d="M12.2,71.72c.2,0,.8,0,1.2.3.4.2.5.4.5.4q.1.1.3.2c.1,0,.2.1.4.1.1,0,.2,0,.4.1.2,0,.3,0,.5.1.5.1,1,.1,1.6.2.3,0,.7.1,1.2.1,1.3,0,2.2-.3,2.4.1,0,.1.1.1,0,.3,0,.1-.1.1-.2.1-1.4-.1-2.7.3-4.1.2-.1,0-.2,0-.3.1h-2.2c-.3-.2-.6-.1-.8-.1-.4,0-.6-.2-.8-.5.3,0,.5,0,.7-.2h.4c-.1-.1-.2-.2-.3-.3-.4-.6-.7-.9-.9-1.2Z"/>
      <path class="cls-9" d="M8.5,60.62c-.2.2,0,.4-.2.6-.1-.1-.2-.3-.2-.4,0-.2-.1-.4-.2-.5-.3-.2-.3-.5,0-.7.2-.1.2-.5.5-.4.2.1.1.4.1.6v.6s0,.1,0,.2Z"/>
      <path class="cls-17" d="M8.5,65.02v-1.4c.2.3.1.6.1.8,0,.7,0,1.4-.1,2.1v-1.5Z"/>
      <path class="cls-9" d="M8.4,67.42c-.3-.2-.2-.5-.2-.7,0-.3,0-.7.2-.9v1.6Z"/>
      <path class="cls-7" d="M32,9.22q0,.1-.1.2c-.1,0-.2,0-.2-.1s0-.1.1-.2c.1,0,.2,0,.2.1Z"/>
      <path class="cls-36" d="M12.6,72.12c-.4.4-.6-.1-.8-.2-.2-.1-.3-.3-.4-.6-.1-.9-.5-1.8-.3-2.8.1-.6-.1-1.1-.4-1.6-.2-.2-.2-.4.2-.4.3,0,.3-.2.3-.4v-5.7c-.1-.2-.1-.4-.1-.7,0-.8,0-1.6-.2-2.5v-.2c.2-.6,0-1.1-.1-1.7-.2-.7-.1-1.4,0-2.1,0-.1.1-.3,0-.4-.3-.7-.3-1.4-.4-2.1-.1-.5-.1-1-.1-1.5.1-.6,0-1.2,0-1.9,0-.3-.1-.5-.2-.7-.3-.8-.9-1.5-.9-2.4,0-.6-.3-1.2-.1-1.8.2-.7.2-1.4.4-2.1v-.4c-.1-.7.1-1.2.3-1.8s.3-1.3.3-2c0-.4.2-.7.2-1,.1-.7.2-1.4.4-2,.1-.2.1-.4.3-.6v-.4h0c.2,0,.2.2.2.4-.1.7,0,1.3,0,2,0,.1-.1.3-.2.4-.2.5-.3.9-.1,1.4v.1c-.1.8-.2,1.5-.5,2.2-.1.4-.2.7-.1,1.1.1.5,0,1-.1,1.5,0,.2-.1.3-.1.5,0,.3,0,.5-.2.8-.2.2-.3.4-.3.6.1.8.2,1.5.6,2.2.4.5.8,1.1,1,1.7.1,1,0,2,0,3.1v11.1c0,.1,0,.3-.1.6-.2,2.7.9,5.7.5,6.5,0,0-.1.3-.2.6,0,.2,0,.4.1.5.2.6.2.9.3,1,.1.3.3.8.3,1.5.3.1.4.1.5.2Z"/>
      <path class="cls-40" d="M11.1,32.72c.1.3-.1.4-.2.6-.3.7-.3,1.4-.4,2,0,.2-.1.4-.2.5-.1.2-.2.4,0,.6,0,0,.1.1,0,.2-.3.5-.1,1.2-.4,1.7-.3.5-.4,1.1-.4,1.7s-.1,1.3-.3,1.9c-.2.8-.2,1.6-.1,2.4,0,.9.7,1.4.7,2.2.6.4.4,1,.5,1.5.1.7-.1,1.4,0,2.1.1.9.1,1.8.5,2.6.2.4,0,.8-.1,1.2-.1.7.1,1.3.2,2,0,.1.1.3.1.4-.2,1.3.1,2.6,0,4-.2-.1-.2-.3-.2-.5.1-.8-.1-1.5-.4-2.2,0-.1-.1-.1-.1-.2.3-.6-.1-1.2-.1-1.8v-1.9c0-1.2-.2-2.3-.4-3.4v-1.4c0-1-.3-1.9-.6-2.8-.6-1.5-.7-3.1-.3-4.7.1-.5.3-1,.2-1.5-.1-.6.2-1,.4-1.6.1-.2.2-.4.1-.7-.1-.8,0-1.5.2-2.2s.3-1.4.5-2.1c.3-.2.3-.7.8-.6Z"/>
      <path class="cls-67" d="M16.2,23.72c-.4.1-1,.2-1.7.2-.5,0-1-.1-1.3-.2,0-.1.1-.2-.1-.1-.3.2-.5.4-.8,0-.7.2-1.4-.1-2.1-.1h-.2c.2-.3.6-.3.8-.6.5-.3,1-.1,1.5,0,.6,0,1.2.2,1.8.2.5-.1,1.1.1,1.7,0-.2,0-.3,0-.3.1,0,0,.2.2.7.5Z"/>
      <path class="cls-49" d="M9.8,10.32h0c-.6.1-1.3.2-1.9.2-.2-.6-.1-1.2-.1-1.7,0-.4,0-.8-.1-1.1v-.1c.2,0,.4,0,.6-.1.2-.1.5-.1.7.1s.3.1.5,0c0,.6.1,1.3.1,1.9-.1.2-.1.5.2.8Z"/>
      <path class="cls-49" d="M12.8,10.32c-.1-.1-.2-.1-.3-.1-.3,0-.4-.1-.4-.4,0-.6-.1-1.1,0-1.7,0-.4.1-.7.6-.7h.4c.2,0,.2.1.4.2.1.1.1.3.2.5v.1c.2.4.6.8-.1,1.1,0,.3,0,.6-.2.8-.1,0-.2.1-.3.1,0-.8.1-1.6-.1-2.4,0,.8-.2,1.6.1,2.4-.1.2-.2.1-.3.1Z"/>
      <path class="cls-68" d="M7.6,7.62c.3,0,.3.2.3.4v2.4q-.6,0-.6-.6v-1.9c-.1-.2,0-.3.3-.3Z"/>
      <path class="cls-7" d="M13.3,10.22c0-.3.2-.5,0-.8-.1-.1.2-.3.3-.3s.2,0,.2-.1-.1-.1-.2-.2c-.4-.3-.2-.7-.3-1.1.3,0,.5.1.6.4.5.8.2,1.6-.6,2.1Z"/>
      <path class="cls-49" d="M11,10.32c-.6-.1-.7-.5-.6-1v-1c-.1-.5.1-.7.7-.9.1-.1.2-.1.3,0,.3,0,.4.1.4.4.1.6.1,1.3,0,1.9,0,.2,0,.4-.2.5-.1-.2-.1-.4-.1-.6v-1.5c0-.2,0-.3-.2-.6-.2.5-.1.9-.1,1.4v1.3c0,.1-.1.1-.2.1h0Z"/>
      <path class="cls-29" d="M11.2,10.32c-.1-.1-.2-.3-.2-.5v-1.9c0-.2,0-.4.3-.4s.3.2.3.4v2.3c-.1.1-.2.1-.4.1Z"/>
      <path class="cls-33" d="M9.8,10.32c-.5,0-.5-.4-.5-.6.1-.6-.1-1.1,0-1.7,0-.2.1-.4.1-.5h.4c0,.6.2,1.1.1,1.7-.2.4.1.7-.1,1.1h0Z"/>
      <path class="cls-49" d="M9.8,10.32v-2.7c.2.4.1.9.3,1.2.1.1-.1.2-.1.3-.2.2-.2.4,0,.6.1.3,0,.4-.2.6Z"/>
      <path class="cls-66" d="M11.3,7.42h-.3c-.2,0-.4,0-.6-.1.5-.1.6-.1.9.1Z"/>
      <path class="cls-49" d="M35,15.32c-1.2,0-2.3.1-3.5,0-1,0-1.9-.1-2.9,0-1.3.1-2.7-.1-4-.3h-.2c-.6.3-1.3.2-1.9.2-.4,0-.9,0-1.3-.1-.3-.1-.3-.3-.1-.5.2-.2.5-.2.7,0,.3.2.5.2.8.1.2-.1.3-.1.6-.1.8.1,1.6,0,2.4-.1.7-.1,1.4-.1,2.1-.1.6,0,1.2-.2,1.8-.1.5.1,1-.1,1.5-.1.5-.1,1.1-.2,1.7.2.1.1.2-.1.4-.1-.1.5.3.4.5.4s.5,0,.4-.4q0-.1.1-.2c.1-.1.2-.1.3,0,.2.4.8.2,1,.6,0,.1.2.1.3,0,.8-.2,1.7,0,2.5,0,0,.2-.1.2-.2.2-.7-.1-1.4.1-2.1.1-.4.1-.7.2-.9.3Z"/>
      <path class="cls-49" d="M42.6,15.22h-.2c-.4-.3-.6-.5,0-.8.2-.1.1-.4.3-.3.3.1.1.4,0,.6,0,.2.2.4-.1.5Z"/>
      <path class="cls-49" d="M41.9,15.92c-.2.1-.3.1-.6,0,.2-.1.4-.2.6,0Z"/>
      <path class="cls-7" d="M35.5,21.92c-.8-.1-1.6-.2-2.4-.3-.2,0-.3-.2-.3-.3,0-.2.2-.1.3-.1.9-.2,1.7,0,2.5.4.1,0,.3.1.3.2-.1.2-.3.1-.4.1Z"/>
      <path class="cls-49" d="M21.1,22.32c-.1.1-.3.1-.4.1h-4c.3-.5.8-.3,1.2-.3,1.1,0,2.1.2,3.2.2Z"/>
      <path class="cls-7" d="M30.5,21.32c.5-.1,1-.3,1.7-.1-.6.3-1.1.3-1.7.1Z"/>
      <path class="cls-49" d="M29.7,22.02c.2-.2.4-.2.6-.1.1,0,.1.1,0,.1-.1.2-.3-.1-.6,0Z"/>
      <path class="cls-49" d="M32.3,22.12s-.1,0,0,0c-.1-.1-.4,0-.4-.2.2-.1.4-.1.5,0,.1,0-.1.1-.1.2Z"/>
      <path class="cls-49" d="M33.1,22.12h-.3c0-.1,0-.3.2-.3s.2.1.1.3Z"/>
      <path class="cls-70" d="M33.8,24.52c0-.1,0-.2-.1-.3q0-.1.1-.2c0-.2.1-.1.2,0,.2.2.4.2.6.1.5-.2,1.1-.1,1.6.1.5.1.8.3.9.8-.2.3-.5.6-.6,1-.1.2-.2.2-.4.2-.3,0-.5,0-.8.1-.2.1-.3-.1-.4-.2v.4c.1-1-.6-1.5-1.1-2Z"/>
      <path class="cls-28" d="M11.3,36.62c0,.7.1,1.4,0,2.1-.1.6-.3,1.1-.2,1.6.4,2.1.1,4.1.2,6.2v.5c-.3-.1-.4-.5-.5-.7-.6-.8-1.1-1.8-1.1-2.9,0-.3.1-.6.3-.8s.3-.5.2-.8.2-.7.2-1c0-.2.1-.5,0-.7-.1-.6,0-1.1.2-1.7.1-.5.4-.9.3-1.4,0-.2,0-.3.1-.5.2-.1.2.1.3.1Z"/>
      <path class="cls-31" d="M11.3,61.32v7.8c-.1-.1-.1-.3-.1-.4v-6.9c0-.2,0-.4.1-.5Z"/>
      <path class="cls-28" d="M11.1,35.02c.1.1.1.2.1.3-.1.4,0,.8-.1,1.2-.2-.1-.2-.3-.2-.4,0-.4,0-.8.2-1.1Z"/>
      <path class="cls-40" d="M11.3,32.62v1.9c0,.1,0,.2-.1.2v-1.9s0-.1.1-.2Z"/>
      <path class="cls-40" d="M11,36.52c.1-.4-.1-.8.1-1.2v.7c0,.2,0,.5.2.7-.1-.1-.2-.1-.3-.2h0Z"/>
      <path class="cls-42" d="M8.7,8.92v1.1c0,.2-.1.4-.3.4-.3,0-.2-.2-.2-.4,0-.7-.2-1.4,0-2.1.1-.2.1-.3.3-.3.3,0,.2.2.2.4v.9Z"/>
      <path class="cls-13" d="M13.1,10.32c-.2,0-.3-.1-.3-.3v-2c0-.1,0-.3.2-.3.1,0,.3.1.3.2,0,.7.1,1.5,0,2.2-.1,0-.2.1-.2.2h0Z"/>
    </g>
  </g>
</svg>